{
classes = (
{
automatic = 1;
code = "dotlessbeh-ar hamza-ar highhamza-ar alef-ar alefHamzaabove-ar alefHamzabelow-ar alefMadda-ar alefWasla-ar beh-ar peh-ar teh-ar tehRing-ar theh-ar tteh-ar jeem-ar tcheh-ar hah-ar hahHamzaabove-ar hahThreedotsabove-ar khah-ar dal-ar thal-ar ddal-ar dalRing-ar dul-ar dalVinvertedabove-ar reh-ar zain-ar rreh-ar rehRing-ar rehVbelow-ar rehDotbelowdotabove-ar jeh-ar seen-ar seenDotbelowDotabove-ar sheen-ar sad-ar dad-ar tah-ar zah-ar ain-ar ghain-ar feh-ar veh-ar dotlessfeh-ar dotlessqaf-ar qaf-ar kaf-ar keheh-ar gaf-ar kafRing-ar ng-ar lam-ar lamVabove-ar meem-ar noon-ar noonghunna-ar noonRing-ar heh-ar hehgoal-ar hehgoalHamzaabove-ar hehDoachashmee-ar tehMarbuta-ar tehMarbutagoal-ar waw-ar wawring-ar wawTwodots-ar wawHamzaabove-ar oe-ar u-ar yu-ar ve-ar alefMaksura-ar yeh-ar yehHamzaabove-ar yehVabove-ar yeh-farsi yehTail-ar e-ar yehbarree-ar yehbarreeHamzaabove-ar ae-ar kashida-ar lam_alef-ar lam_alefHamzaabove-ar lam_alefHamzabelow-ar lam_alefMadda-ar allah-ar";
name = ArabicLetters;
},
{
automatic = 1;

glyphs = (
{
glyphname = "dotlessbeh-ar";
lastChange = "2016-01-30 17:19:08 +0000";
layers = (
{
anchors = (
{
name = bottom;
position = "{773, -197}";
},
{
name = top;
position = "{727, 749}";
}
);
layerId = "3D7C20C2-9735-4AE4-B4D3-DDFDA9BF3443";
name = Light;
paths = (
{
closed = 1;
nodes = (
"1360 840 OFFCURVE",
"1359 841 OFFCURVE",
"1355 836 CURVE",
"1265 746 LINE",
"1261 741 OFFCURVE",
"1261 738 OFFCURVE",
"1262 733 CURVE SMOOTH",
"1373 256 LINE SMOOTH",
"1376 242 OFFCURVE",
"1371 233 OFFCURVE",
"1359 228 CURVE SMOOTH",
"1236 173 OFFCURVE",
"930 102 OFFCURVE",
"652 107 CURVE SMOOTH",
"362 112 OFFCURVE",
"217 207 OFFCURVE",
"235 386 CURVE SMOOTH",
"247 511 LINE",
"248 516 OFFCURVE",
"246 518 OFFCURVE",
"241 518 CURVE",
"186 523 LINE",
"182 524 OFFCURVE",
"178 521 OFFCURVE",
"178 516 CURVE",
"163 384 LINE SMOOTH",
"130 97 OFFCURVE",
"254 -29 OFFCURVE",
"579 -38 CURVE SMOOTH",
"694 -41 OFFCURVE",
"840 -25 OFFCURVE",
"991 2 CURVE SMOOTH",
"1253 44 OFFCURVE",
"1458 116 OFFCURVE",
"1458 358 CURVE SMOOTH",
"1458 437 OFFCURVE",
"1397 683 OFFCURVE",
"1361 836 CURVE SMOOTH"
);
}
);
width = 1586;
},
{
anchors = (
{
name = bottom;
position = "{773, -197}";
},
{
name = top;
position = "{727, 749}";
}
);
layerId = "13527720-5DE3-47C6-AB0B-155DF4EF49D9";
name = Regular;
paths = (
{
closed = 1;
nodes = (
"694 -49 OFFCURVE",
"841 -33 OFFCURVE",
"992 -6 CURVE SMOOTH",
"1255 36 OFFCURVE",
"1466 110 OFFCURVE",
"1466 358 CURVE SMOOTH",
"1466 438 OFFCURVE",
"1405 685 OFFCURVE",
"1369 838 CURVE",
"1366 849 OFFCURVE",
"1357 850 OFFCURVE",
"1349 842 CURVE SMOOTH",
"1259 751 LINE",
"1254 745 OFFCURVE",
"1252 739 OFFCURVE",
"1254 731 CURVE SMOOTH",
"1365 254 LINE SMOOTH",
"1367 245 OFFCURVE",
"1365 239 OFFCURVE",
"1356 235 CURVE SMOOTH",
"1233 181 OFFCURVE",
"929 110 OFFCURVE",
"652 115 CURVE SMOOTH",
"417 119 OFFCURVE",
"223 184 OFFCURVE",
"243 385 CURVE SMOOTH",
"255 510 LINE SMOOTH",
"256 519 OFFCURVE",
"251 525 OFFCURVE",
"242 526 CURVE SMOOTH",
"187 531 LINE SMOOTH",
"178 532 OFFCURVE",
"171 526 OFFCURVE",
"170 517 CURVE SMOOTH",
"155 385 LINE SMOOTH",
"120 82 OFFCURVE",
"262 -37 OFFCURVE",
"579 -46 CURVE SMOOTH"
);
}
);
width = 1586;
},
{
anchors = (
{
name = bottom;
position = "{773, -197}";
},
{
name = top;
position = "{727, 749}";
}
);
guideLines = (
{
position = "{383, 1092}";
}
);
layerId = "C8F46AD5-0BB5-455F-A00C-91F555441CD3";
name = Bold;
paths = (
{
closed = 1;
nodes = (
"687.126 -58.824 OFFCURVE",
"830.865 -44.971 OFFCURVE",
"993.76 -15.844 CURVE SMOOTH",
"1257.463 26.267 OFFCURVE",
"1476 102.91 OFFCURVE",
"1476 358 CURVE SMOOTH",
"1476 439.217 OFFCURVE",
"1414.722 687.344 OFFCURVE",
"1378.734 840.29 CURVE SMOOTH",
"1373.679 858.85 OFFCURVE",
"1355.755 862.898 OFFCURVE",
"1341.929 849.071 CURVE SMOOTH",
"1251.89 758.032 LINE",
"1251.318 757.402 LINE",
"1244.018 748.642 OFFCURVE",
"1241.672 739.079 OFFCURVE",
"1244.299 728.575 CURVE SMOOTH",
"1355.26 251.734 LINE SMOOTH",
"1356.34 246.872 OFFCURVE",
"1355.762 245.837 OFFCURVE",
"1351.939 244.138 CURVE SMOOTH",
"1229.826 190.528 OFFCURVE",
"927.937 120.021 OFFCURVE",
"652.18 124.998 CURVE SMOOTH",
"372.784 129.754 OFFCURVE",
"236.388 217.548 OFFCURVE",
"252.951 384.01 CURVE SMOOTH",
"264.954 509.044 LINE SMOOTH",
"266.537 523.282 OFFCURVE",
"257.608 534.327 OFFCURVE",
"243.104 535.939 CURVE SMOOTH",
"187.905 540.959 LINE SMOOTH",
"173.77 542.532 OFFCURVE",
"161.679 532.665 OFFCURVE",
"160.061 518.104 CURVE SMOOTH",
"145.064 386.129 LINE SMOOTH",
"110.653 88.23 OFFCURVE",
"242.954 -46.463 OFFCURVE",
"578.716 -55.996 CURVE SMOOTH"
);
}
);
width = 1586;
}
);
unicode = 066E;
userData = {
com.typemytype.robofont.guides = (
{
angle = 0;
isGlobal = 0;
x = 383;
y = 1092;
}
);
};
},
{
glyphname = "hamza-ar";
lastChange = "2016-01-30 17:19:08 +0000";
layers = (
{
anchors = (
{
name = bottom;
position = "{453, -173}";
},
{
name = top;
position = "{453, 804}";
}
);
layerId = "3D7C20C2-9735-4AE4-B4D3-DDFDA9BF3443";
name = Light;
paths = (
{
closed = 1;
nodes = (
"375 77 OFFCURVE",
"545 177 OFFCURVE",
"741 281 CURVE SMOOTH",
"747 284 OFFCURVE",
"749 287 OFFCURVE",
"748 291 CURVE",
"741 405 LINE",
"741 410 OFFCURVE",
"739 411 OFFCURVE",
"735 408 CURVE",
"434 229 LINE",
"423 223 OFFCURVE",
"411 224 OFFCURVE",
"403 232 CURVE",
"231 391 LINE SMOOTH",
"220 401 OFFCURVE",
"219 413 OFFCURVE",
"228 423 CURVE SMOOTH",
"318 528 OFFCURVE",
"441 546 OFFCURVE",
"567 542 CURVE SMOOTH",
"568 542 LINE",
"573 541 OFFCURVE",
"574 543 OFFCURVE",
"574 547 CURVE",
"564 624 LINE",
"563 630 OFFCURVE",
"561 633 OFFCURVE",
"556 634 CURVE",
"360 690 OFFCURVE",
"158 567 OFFCURVE",
"158 389 CURVE SMOOTH",
"158 308 OFFCURVE",
"244 222 OFFCURVE",
"306 176 CURVE SMOOTH",
"319 166 OFFCURVE",
"318 152 OFFCURVE",
"304 142 CURVE",
"199 78 LINE SMOOTH",
"194 75 OFFCURVE",
"193 73 OFFCURVE",
"193 67 CURVE SMOOTH",
"192 -23 LINE SMOOTH",
"192 -29 OFFCURVE",
"194 -30 OFFCURVE",
"198 -27 CURVE"
);
}
);
width = 876;
},
{
anchors = (
{
name = bottom;
position = "{453, -173}";
},
{
name = top;
position = "{453, 804}";
}
);
layerId = "13527720-5DE3-47C6-AB0B-155DF4EF49D9";
name = Regular;
paths = (
{
closed = 1;
nodes = (
"379 70 OFFCURVE",
"549 170 OFFCURVE",
"745 274 CURVE SMOOTH",
"753 278 OFFCURVE",
"757 284 OFFCURVE",
"756 292 CURVE",
"749 405 LINE SMOOTH",
"748 416 OFFCURVE",
"741 421 OFFCURVE",
"731 415 CURVE SMOOTH",
"430 236 LINE SMOOTH",
"423 232 OFFCURVE",
"415 232 OFFCURVE",
"409 238 CURVE",
"236 397 LINE",
"229 404 OFFCURVE",
"228 411 OFFCURVE",
"234 418 CURVE SMOOTH",
"322 521 OFFCURVE",
"441 538 OFFCURVE",
"567 534 CURVE",
"577 533 OFFCURVE",
"583 539 OFFCURVE",
"582 548 CURVE SMOOTH",
"572 625 LINE SMOOTH",
"571 633 OFFCURVE",
"568 639 OFFCURVE",
"559 642 CURVE",
"366 697 OFFCURVE",
"150 580 OFFCURVE",
"150 389 CURVE SMOOTH",
"150 305 OFFCURVE",
"239 216 OFFCURVE",
"301 170 CURVE SMOOTH",
"310 163 OFFCURVE",
"309 155 OFFCURVE",
"300 149 CURVE",
"195 85 LINE SMOOTH",
"188 81 OFFCURVE",
"185 76 OFFCURVE",
"185 67 CURVE SMOOTH",
"184 -23 LINE SMOOTH",
"184 -35 OFFCURVE",
"192 -40 OFFCURVE",
"202 -34 CURVE SMOOTH"
);
}
);
width = 876;
},
{
anchors = (
{
name = bottom;
position = "{453, -173}";
},
{
name = top;
position = "{453, 804}";
}
);
layerId = "C8F46AD5-0BB5-455F-A00C-91F555441CD3";
name = Bold;
paths = (
{
closed = 1;
nodes = (
"384.066 61.378 OFFCURVE",
"553.881 161.269 OFFCURVE",
"749.687 265.167 CURVE SMOOTH",
"761.398 271.019 OFFCURVE",
"767.425 281.225 OFFCURVE",
"765.923 293.24 CURVE",
"765.981 292.618 LINE",
"758.981 405.618 LINE SMOOTH",
"757.281 424.363 OFFCURVE",
"741.942 433.227 OFFCURVE",
"725.855 423.575 CURVE SMOOTH",
"424.889 244.595 LINE SMOOTH",
"421.164 242.469 OFFCURVE",
"418.413 242.73 OFFCURVE",
"416.071 245.071 CURVE",
"242.767 404.363 LINE",
"239.327 407.815 OFFCURVE",
"239.406 408.941 OFFCURVE",
"241.593 411.492 CURVE SMOOTH",
"327.151 511.634 OFFCURVE",
"441.553 527.977 OFFCURVE",
"566.683 524.005 CURVE",
"566.005 524.05 LINE",
"582.192 522.431 OFFCURVE",
"593.677 533.459 OFFCURVE",
"591.939 549.104 CURVE SMOOTH",
"581.917 626.288 LINE SMOOTH",
"580.327 639.01 OFFCURVE",
"573.569 647.685 OFFCURVE",
"562.162 651.487 CURVE",
"353.813 710.871 OFFCURVE",
"140 579.18 OFFCURVE",
"140 389 CURVE SMOOTH",
"140 300.858 OFFCURVE",
"232.45 208.408 OFFCURVE",
"295.042 161.969 CURVE SMOOTH",
"298.448 159.316 OFFCURVE",
"298.027 159.703 OFFCURVE",
"294.453 157.321 CURVE",
"189.795 93.539 LINE SMOOTH",
"179.939 87.911 OFFCURVE",
"175 79.119 OFFCURVE",
"175 67 CURVE SMOOTH",
"174 -22.889 LINE SMOOTH",
"174 -42.882 OFFCURVE",
"190.41 -52.616 OFFCURVE",
"207.145 -42.575 CURVE SMOOTH"
);
}
);
width = 876;
}
);
unicode = 0621;
},
{
glyphname = "alef-ar";
lastChange = "2016-01-30 17:19:08 +0000";
layers = (
{
anchors = (
{
name = bottom;
position = "{255, -180}";
},
{
name = top;
position = "{225, 1484}";
}
);
layerId = "3D7C20C2-9735-4AE4-B4D3-DDFDA9BF3443";
name = Light;
paths = (
{
closed = 1;
nodes = (
"296 5 LINE SMOOTH",
"299 6 OFFCURVE",
"300 7 OFFCURVE",
"300 10 CURVE",
"293 1321 LINE",
"293 1330 OFFCURVE",
"286 1334 OFFCURVE",
"278 1330 CURVE SMOOTH",
"161 1267 LINE SMOOTH",
"159 1266 OFFCURVE",
"158 1265 OFFCURVE",
"158 1262 CURVE",
"210 -13 LINE",
"210 -20 OFFCURVE",
"217 -24 OFFCURVE",
"222 -21 CURVE"
);
}
);
width = 428;
},
{
anchors = (
{
name = bottom;
position = "{255, -180}";
},
{
name = top;
position = "{225, 1484}";
}
);
layerId = "13527720-5DE3-47C6-AB0B-155DF4EF49D9";
name = Regular;
paths = (
{
closed = 1;
nodes = (
"299 -3 LINE",
"304 -1 OFFCURVE",
"308 3 OFFCURVE",
"308 10 CURVE",
"301 1321 LINE",
"301 1337 OFFCURVE",
"287 1344 OFFCURVE",
"274 1337 CURVE SMOOTH",
"157 1274 LINE SMOOTH",
"153 1272 OFFCURVE",
"150 1268 OFFCURVE",
"150 1262 CURVE",
"202 -13 LINE",
"202 -25 OFFCURVE",
"214 -33 OFFCURVE",
"225 -29 CURVE SMOOTH"
);
}
);
width = 428;
},
{
anchors = (
{
name = bottom;
position = "{255, -180}";
},
{
name = top;
position = "{225, 1484}";
}
);
layerId = "C8F46AD5-0BB5-455F-A00C-91F555441CD3";
name = Bold;
paths = (
{
closed = 1;
nodes = (
"302.315 -12.435 LINE",
"312.356 -8.428 OFFCURVE",
"318 -0.217 OFFCURVE",
"318 10 CURVE",
"311 1321.053 LINE",
"311 1344.067 OFFCURVE",
"289.618 1356.767 OFFCURVE",
"269.259 1345.805 CURVE SMOOTH",
"152.259 1282.805 LINE SMOOTH",
"144.899 1279.13 OFFCURVE",
"140 1270.907 OFFCURVE",
"140 1262 CURVE",
"192.008 -13.408 LINE",
"192 -32.067 OFFCURVE",
"211.073 -44.705 OFFCURVE",
"228.417 -38.398 CURVE SMOOTH"
);
}
);
width = 428;
}
);
unicode = 0627;
},
{
glyphname = "alef-ar.fina";
lastChange = "2016-01-30 17:19:08 +0000";
layers = (
{
anchors = (
{
name = bottom;
position = "{423, -150}";
},
{
name = top;
position = "{220, 1480}";
}
);
layerId = "3D7C20C2-9735-4AE4-B4D3-DDFDA9BF3443";
name = Light;
paths = (
{
closed = 1;
nodes = (
"575 8 LINE",
"612 55 OFFCURVE",
"612 101 OFFCURVE",
"575 148 CURVE",
"521 148 LINE SMOOTH",
"473 148 OFFCURVE",
"376 166 OFFCURVE",
"314 204 CURVE SMOOTH",
"304 210 OFFCURVE",
"300 217 OFFCURVE",
"300 229 CURVE",
"283 1322 LINE",
"283 1329 OFFCURVE",
"282 1328 OFFCURVE",
"277 1325 CURVE SMOOTH",
"163 1253 LINE",
"159 1250 OFFCURVE",
"158 1248 OFFCURVE",
"158 1242 CURVE",
"204 342 LINE SMOOTH",
"217 92 OFFCURVE",
"286 8 OFFCURVE",
"479 8 CURVE SMOOTH"
);
}
);
width = 579;
},
{
anchors = (
{
name = bottom;
position = "{423, -150}";
},
{
name = top;
position = "{220, 1480}";
}
);
layerId = "13527720-5DE3-47C6-AB0B-155DF4EF49D9";
name = Regular;
paths = (
{
closed = 1;
nodes = (
"579 0 LINE",
"621 52 OFFCURVE",
"621 104 OFFCURVE",
"579 156 CURVE",
"521 156 LINE SMOOTH",
"474 156 OFFCURVE",
"379 174 OFFCURVE",
"318 211 CURVE SMOOTH",
"311 215 OFFCURVE",
"308 220 OFFCURVE",
"308 229 CURVE",
"291 1322 LINE",
"291 1334 OFFCURVE",
"284 1339 OFFCURVE",
"273 1332 CURVE SMOOTH",
"159 1260 LINE",
"152 1255 OFFCURVE",
"150 1251 OFFCURVE",
"150 1242 CURVE",
"196 342 LINE SMOOTH",
"208 107 OFFCURVE",
"267 0 OFFCURVE",
"479 0 CURVE SMOOTH"
);
}
);
width = 579;
},
{
anchors = (
{
name = bottom;
position = "{423, -150}";
},
{
name = top;
position = "{220, 1480}";
}
);
layerId = "C8F46AD5-0BB5-455F-A00C-91F555441CD3";
name = Bold;
paths = (
{
closed = 1;
nodes = (
"583.708 -10 LINE",
"632.648 47.906 OFFCURVE",
"632.648 108.094 OFFCURVE",
"583.708 166 CURVE",
"521 166 LINE SMOOTH",
"474.939 166 OFFCURVE",
"382.639 183.488 OFFCURVE",
"323.186 219.55 CURVE SMOOTH",
"318.785 222.069 OFFCURVE",
"318 223.454 OFFCURVE",
"318 229 CURVE",
"300.999 1322.156 LINE",
"301 1342.525 OFFCURVE",
"284.901 1351.426 OFFCURVE",
"267.631 1340.437 CURVE SMOOTH",
"153.66 1268.455 LINE",
"153.188 1268.137 LINE SMOOTH",
"143.659 1261.331 OFFCURVE",
"140 1254.058 OFFCURVE",
"140 1242 CURVE SMOOTH",
"140.013 1241.49 LINE",
"186.013 341.49 LINE SMOOTH",
"199.233 82.592 OFFCURVE",
"275.532 -10 OFFCURVE",
"479 -10 CURVE SMOOTH"
);
}
);
width = 579;
}
);
unicode = FE8E;
},
{
glyphname = "alef-ar.short";
lastChange = "2016-01-30 17:19:08 +0000";
layers = (
{
anchors = (
{
name = bottom;
position = "{255, -179}";
},
{
name = top;
position = "{225, 1333}";
}
);
guideLines = (
{
position = "{293, 1187}";
}
);
layerId = "3D7C20C2-9735-4AE4-B4D3-DDFDA9BF3443";
name = Light;
paths = (
{
closed = 1;
nodes = (
"296 5 LINE SMOOTH",
"299 6 OFFCURVE",
"300 7 OFFCURVE",
"300 10 CURVE",
"293 1171 LINE",
"293 1180 OFFCURVE",
"286 1184 OFFCURVE",
"278 1180 CURVE SMOOTH",
"161 1117 LINE SMOOTH",
"159 1116 OFFCURVE",
"158 1115 OFFCURVE",
"158 1112 CURVE",
"210 -13 LINE",
"211 -19 OFFCURVE",
"216 -24 OFFCURVE",
"222 -21 CURVE"
);
}
);
width = 428;
},
{
anchors = (
{
name = bottom;
position = "{255, -179}";
},
{
name = top;
position = "{225, 1333}";
}
);
layerId = "13527720-5DE3-47C6-AB0B-155DF4EF49D9";
name = Regular;
paths = (
{
closed = 1;
nodes = (
"299 -3 LINE",
"304 -1 OFFCURVE",
"308 3 OFFCURVE",
"308 10 CURVE",
"301 1171 LINE",
"301 1187 OFFCURVE",
"287 1194 OFFCURVE",
"274 1187 CURVE SMOOTH",
"157 1124 LINE SMOOTH",
"153 1122 OFFCURVE",
"150 1118 OFFCURVE",
"150 1112 CURVE",
"202 -13 LINE",
"203 -25 OFFCURVE",
"214 -33 OFFCURVE",
"225 -29 CURVE SMOOTH"
);
}
);
width = 428;
},
{
anchors = (
{
name = bottom;
position = "{255, -179}";
},
{
name = top;
position = "{225, 1333}";
}
);
guideLines = (
{
position = "{293, 1187}";
}
);
layerId = "C8F46AD5-0BB5-455F-A00C-91F555441CD3";
name = Bold;
paths = (
{
closed = 1;
nodes = (
"302.315 -12.435 LINE",
"312.356 -8.428 OFFCURVE",
"318 -0.217 OFFCURVE",
"318 10 CURVE",
"311 1171.06 LINE",
"311 1194.067 OFFCURVE",
"289.618 1206.767 OFFCURVE",
"269.259 1195.805 CURVE SMOOTH",
"152.259 1132.805 LINE SMOOTH",
"144.899 1129.13 OFFCURVE",
"140 1120.907 OFFCURVE",
"140 1112 CURVE",
"192.011 -13.462 LINE",
"193.598 -32.592 OFFCURVE",
"211.316 -44.617 OFFCURVE",
"228.417 -38.398 CURVE SMOOTH"
);
}
);
width = 428;
}
);
userData = {
com.typemytype.robofont.guides = (
{
angle = 0;
isGlobal = 0;
x = 293;
y = 1187;
}
);
};
},
{
glyphname = "alef-ar.fina.short";
lastChange = "2016-01-30 17:19:08 +0000";
layers = (
{
anchors = (
{
name = bottom;
position = "{408, -150}";
},
{
name = top;
position = "{295, 1324}";
}
);
guideLines = (
{
position = "{285, 1176}";
}
);
layerId = "3D7C20C2-9735-4AE4-B4D3-DDFDA9BF3443";
name = Light;
paths = (
{
closed = 1;
nodes = (
"575 8 LINE",
"612 55 OFFCURVE",
"612 101 OFFCURVE",
"575 148 CURVE",
"521 148 LINE SMOOTH",
"473 148 OFFCURVE",
"376 166 OFFCURVE",
"314 204 CURVE SMOOTH",
"304 210 OFFCURVE",
"300 217 OFFCURVE",
"300 229 CURVE",
"283 1162 LINE",
"283 1169 OFFCURVE",
"282 1168 OFFCURVE",
"277 1165 CURVE SMOOTH",
"163 1093 LINE SMOOTH",
"158 1090 OFFCURVE",
"157 1088 OFFCURVE",
"158 1083 CURVE",
"204 342 LINE SMOOTH",
"220 91 OFFCURVE",
"287 8 OFFCURVE",
"479 8 CURVE SMOOTH"
);
}
);
width = 579;
},
{
anchors = (
{
name = bottom;
position = "{408, -150}";
},
{
name = top;
position = "{295, 1324}";
}
);
layerId = "13527720-5DE3-47C6-AB0B-155DF4EF49D9";
name = Regular;
paths = (
{
closed = 1;
nodes = (
"579 0 LINE",
"621 52 OFFCURVE",
"621 104 OFFCURVE",
"579 156 CURVE",
"521 156 LINE SMOOTH",
"474 156 OFFCURVE",
"379 174 OFFCURVE",
"318 211 CURVE SMOOTH",
"311 215 OFFCURVE",
"308 220 OFFCURVE",
"308 229 CURVE",
"291 1162 LINE",
"291 1174 OFFCURVE",
"284 1179 OFFCURVE",
"273 1172 CURVE SMOOTH",
"159 1100 LINE",
"152 1095 OFFCURVE",
"149 1091 OFFCURVE",
"150 1082 CURVE",
"196 342 LINE SMOOTH",
"211 107 OFFCURVE",
"267 0 OFFCURVE",
"479 0 CURVE SMOOTH"
);
}
);
width = 579;
},
{
anchors = (
{
name = bottom;
position = "{408, -150}";
},
{
name = top;
position = "{295, 1324}";
}
);
guideLines = (
{
position = "{285, 1176}";
}
);
layerId = "C8F46AD5-0BB5-455F-A00C-91F555441CD3";
name = Bold;
paths = (
{
closed = 1;
nodes = (
"583.708 -10 LINE",
"632.648 47.906 OFFCURVE",
"632.648 108.094 OFFCURVE",
"583.708 166 CURVE",
"521 166 LINE SMOOTH",
"474.939 166 OFFCURVE",
"382.639 183.488 OFFCURVE",
"323.186 219.55 CURVE SMOOTH",
"318.785 222.069 OFFCURVE",
"318 223.454 OFFCURVE",
"318 229 CURVE",
"300.998 1162.182 LINE",
"301 1182.525 OFFCURVE",
"284.901 1191.426 OFFCURVE",
"267.631 1180.437 CURVE SMOOTH",
"153.66 1108.455 LINE",
"153.188 1108.137 LINE SMOOTH",
"142.673 1100.627 OFFCURVE",
"138.762 1092.587 OFFCURVE",
"140.061 1080.896 CURVE",
"186.019 341.38 LINE SMOOTH",
"201.156 104.244 OFFCURVE",
"260.947 -10 OFFCURVE",
"479 -10 CURVE SMOOTH"
);
}
);
width = 579;
}
);
rightMetricsKey = z;
userData = {
com.schriftgestaltung.Glyphs.rightMetricsKey = z;
com.typemytype.robofont.guides = (
{
angle = 0;
isGlobal = 0;
x = 285;
y = 1176;
}
);
};
},
{
glyphname = "dotlessbeh-ar.fina";
lastChange = "2016-01-30 17:19:08 +0000";
layers = (
{
anchors = (
{
name = bottom;
position = "{773, -197}";
},
{
name = top;
position = "{727, 749}";
}
);
layerId = "3D7C20C2-9735-4AE4-B4D3-DDFDA9BF3443";
name = Light;
paths = (
{
closed = 1;
nodes = (
"1694 148 LINE SMOOTH",
"1540 148 OFFCURVE",
"1460 215 OFFCURVE",
"1441 359 CURVE SMOOTH",
"1405 626 LINE",
"1405 631 OFFCURVE",
"1402 632 OFFCURVE",
"1399 629 CURVE SMOOTH",
"1319 546 LINE",
"1315 541 OFFCURVE",
"1314 537 OFFCURVE",
"1315 532 CURVE",
"1363 233 LINE",
"1364 219 OFFCURVE",
"1359 210 OFFCURVE",
"1348 206 CURVE SMOOTH",
"1208 156 OFFCURVE",
"896 103 OFFCURVE",
"652 108 CURVE SMOOTH",
"360 114 OFFCURVE",
"217 209 OFFCURVE",
"235 387 CURVE SMOOTH",
"247 512 LINE",
"248 517 OFFCURVE",
"246 519 OFFCURVE",
"241 519 CURVE",
"186 524 LINE",
"182 525 OFFCURVE",
"178 522 OFFCURVE",
"178 517 CURVE",
"163 385 LINE SMOOTH",
"130 97 OFFCURVE",
"255 -31 OFFCURVE",
"579 -38 CURVE SMOOTH",
"843 -44 OFFCURVE",
"1302 21 OFFCURVE",
"1406 145 CURVE SMOOTH",
"1418 159 OFFCURVE",
"1432 156 OFFCURVE",
"1439 142 CURVE SMOOTH",
"1484 59 OFFCURVE",
"1581 8 OFFCURVE",
"1694 8 CURVE SMOOTH",
"1730 8 LINE",
"1767 55 OFFCURVE",
"1767 101 OFFCURVE",
"1730 148 CURVE"
);
}
);
width = 1734;
},
{
anchors = (
{
name = bottom;
position = "{773, -197}";
},
{
name = top;
position = "{727, 749}";
}
);
layerId = "13527720-5DE3-47C6-AB0B-155DF4EF49D9";
name = Regular;
paths = (
{
closed = 1;
nodes = (
"843 -52 OFFCURVE",
"1306 14 OFFCURVE",
"1412 140 CURVE SMOOTH",
"1420 149 OFFCURVE",
"1427 148 OFFCURVE",
"1432 138 CURVE",
"1483 45 OFFCURVE",
"1590 0 OFFCURVE",
"1694 0 CURVE SMOOTH",
"1734 0 LINE",
"1776 52 OFFCURVE",
"1776 104 OFFCURVE",
"1734 156 CURVE",
"1694 156 LINE SMOOTH",
"1558 156 OFFCURVE",
"1469 208 OFFCURVE",
"1449 360 CURVE SMOOTH",
"1413 627 LINE",
"1412 638 OFFCURVE",
"1401 643 OFFCURVE",
"1393 634 CURVE",
"1313 551 LINE",
"1308 545 OFFCURVE",
"1306 539 OFFCURVE",
"1307 531 CURVE SMOOTH",
"1355 232 LINE",
"1356 223 OFFCURVE",
"1354 217 OFFCURVE",
"1345 214 CURVE SMOOTH",
"1206 164 OFFCURVE",
"895 111 OFFCURVE",
"652 116 CURVE SMOOTH",
"417 121 OFFCURVE",
"223 185 OFFCURVE",
"243 386 CURVE SMOOTH",
"255 511 LINE SMOOTH",
"256 520 OFFCURVE",
"251 526 OFFCURVE",
"242 527 CURVE SMOOTH",
"187 532 LINE SMOOTH",
"178 533 OFFCURVE",
"171 527 OFFCURVE",
"170 518 CURVE SMOOTH",
"155 386 LINE SMOOTH",
"120 83 OFFCURVE",
"262 -39 OFFCURVE",
"579 -46 CURVE SMOOTH"
);
}
);
width = 1734;
},
{
anchors = (
{
name = bottom;
position = "{773, -197}";
},
{
name = top;
position = "{727, 749}";
}
);
layerId = "C8F46AD5-0BB5-455F-A00C-91F555441CD3";
name = Bold;
paths = (
{
closed = 1;
nodes = (
"843.596 -62.016 OFFCURVE",
"1311.193 4.639 OFFCURVE",
"1419.652 133.562 CURVE SMOOTH",
"1424.432 138.934 OFFCURVE",
"1421.006 137.627 OFFCURVE",
"1423.056 133.528 CURVE",
"1471.7 44.809 OFFCURVE",
"1575.516 -10 OFFCURVE",
"1694 -10 CURVE SMOOTH",
"1738.708 -10 LINE",
"1787.648 47.906 OFFCURVE",
"1787.648 108.094 OFFCURVE",
"1738.708 166 CURVE",
"1694 166 LINE SMOOTH",
"1549.471 166 OFFCURVE",
"1476.645 226.554 OFFCURVE",
"1458.915 361.305 CURVE SMOOTH",
"1422.91 628.336 LINE",
"1421.153 647.775 OFFCURVE",
"1399.115 655.932 OFFCURVE",
"1385.526 640.644 CURVE",
"1305.8 557.94 LINE",
"1305.318 557.402 LINE",
"1298.415 549.118 OFFCURVE",
"1295.766 540.252 OFFCURVE",
"1297.077 529.76 CURVE SMOOTH",
"1345.126 230.415 LINE",
"1345.7 225.143 OFFCURVE",
"1345.201 224.608 OFFCURVE",
"1341.838 223.487 CURVE SMOOTH",
"1203.448 173.709 OFFCURVE",
"894.256 121.017 OFFCURVE",
"652.206 125.998 CURVE SMOOTH",
"371.716 131.966 OFFCURVE",
"236.435 219.027 OFFCURVE",
"252.951 385.01 CURVE SMOOTH",
"264.954 510.044 LINE SMOOTH",
"266.537 524.282 OFFCURVE",
"257.608 535.327 OFFCURVE",
"243.104 536.939 CURVE SMOOTH",
"187.905 541.959 LINE SMOOTH",
"173.77 543.532 OFFCURVE",
"161.679 533.665 OFFCURVE",
"160.061 519.104 CURVE SMOOTH",
"145.064 387.129 LINE SMOOTH",
"110.516 88.04 OFFCURVE",
"244.443 -48.615 OFFCURVE",
"578.779 -55.998 CURVE SMOOTH"
);
}
);
width = 1734;
}
);
},
{
glyphname = "dotlessbeh-ar.medi";
lastChange = "2016-01-30 17:19:08 +0000";
layers = (
{
anchors = (
{
name = bottom;
position = "{322, -155}";
},
{
name = top;
position = "{460, 687}";
}
);
layerId = "3D7C20C2-9735-4AE4-B4D3-DDFDA9BF3443";
name = Light;
paths = (
{
closed = 1;
nodes = (
"38 8 LINE SMOOTH",
"146 8 OFFCURVE",
"279 21 OFFCURVE",
"378 110 CURVE SMOOTH",
"388 119 OFFCURVE",
"400 118 OFFCURVE",
"410 109 CURVE",
"482 32 OFFCURVE",
"618 8 OFFCURVE",
"768 8 CURVE SMOOTH",
"790 8 LINE",
"827 55 OFFCURVE",
"827 101 OFFCURVE",
"790 148 CURVE",
"754 148 LINE SMOOTH",
"685 148 OFFCURVE",
"560 163 OFFCURVE",
"490 187 CURVE",
"479 192 OFFCURVE",
"474 201 OFFCURVE",
"475 214 CURVE SMOOTH",
"496 515 LINE",
"497 520 OFFCURVE",
"495 523 OFFCURVE",
"491 523 CURVE",
"438 526 LINE",
"432 527 OFFCURVE",
"428 524 OFFCURVE",
"428 520 CURVE",
"403 309 LINE SMOOTH",
"384 146 OFFCURVE",
"158 148 OFFCURVE",
"44 148 CURVE SMOOTH",
"0 148 LINE SMOOTH",
"-92 148 OFFCURVE",
"-93 8 OFFCURVE",
"0 8 CURVE SMOOTH"
);
}
);
width = 794;
},
{
anchors = (
{
name = bottom;
position = "{322, -155}";
},
{
name = top;
position = "{460, 687}";
}
);
layerId = "13527720-5DE3-47C6-AB0B-155DF4EF49D9";
name = Regular;
paths = (
{
closed = 1;
nodes = (
"38 0 LINE SMOOTH",
"146 0 OFFCURVE",
"282 13 OFFCURVE",
"383 104 CURVE SMOOTH",
"390 110 OFFCURVE",
"397 110 OFFCURVE",
"404 103 CURVE SMOOTH",
"478 25 OFFCURVE",
"617 0 OFFCURVE",
"768 0 CURVE SMOOTH",
"794 0 LINE",
"836 52 OFFCURVE",
"836 104 OFFCURVE",
"794 156 CURVE",
"754 156 LINE SMOOTH",
"685 156 OFFCURVE",
"562 171 OFFCURVE",
"493 195 CURVE SMOOTH",
"485 198 OFFCURVE",
"482 204 OFFCURVE",
"483 213 CURVE",
"504 514 LINE",
"505 523 OFFCURVE",
"501 530 OFFCURVE",
"492 531 CURVE",
"438 534 LINE",
"429 535 OFFCURVE",
"421 530 OFFCURVE",
"420 521 CURVE SMOOTH",
"395 310 LINE SMOOTH",
"377 154 OFFCURVE",
"158 156 OFFCURVE",
"44 156 CURVE SMOOTH",
"0 156 LINE SMOOTH",
"-103 156 OFFCURVE",
"-103 0 OFFCURVE",
"0 0 CURVE SMOOTH"
);
}
);
width = 794;
},
{
anchors = (
{
name = bottom;
position = "{322, -155}";
},
{
name = top;
position = "{460, 687}";
}
);
layerId = "C8F46AD5-0BB5-455F-A00C-91F555441CD3";
name = Bold;
paths = (
{
closed = 1;
nodes = (
"38 -10 LINE SMOOTH",
"146.477 -10 OFFCURVE",
"286.24 3.36 OFFCURVE",
"389.694 96.571 CURVE SMOOTH",
"392.678 99.125 OFFCURVE",
"393.753 99.104 OFFCURVE",
"396.929 95.929 CURVE SMOOTH",
"473.002 15.738 OFFCURVE",
"616.108 -10 OFFCURVE",
"768 -10 CURVE SMOOTH",
"798.708 -10 LINE",
"847.648 47.906 OFFCURVE",
"847.648 108.094 OFFCURVE",
"798.708 166 CURVE",
"754 166 LINE SMOOTH",
"685.608 166 OFFCURVE",
"564.274 180.797 OFFCURVE",
"496.285 204.445 CURVE SMOOTH",
"493.121 205.635 OFFCURVE",
"492.374 206.815 OFFCURVE",
"492.939 211.896 CURVE",
"513.976 513.304 LINE",
"515.605 527.89 OFFCURVE",
"507.155 539.378 OFFCURVE",
"493.104 540.939 CURVE SMOOTH",
"492.555 540.985 LINE",
"438.555 543.985 LINE",
"439.104 543.939 LINE",
"424.216 545.593 OFFCURVE",
"411.627 536.201 OFFCURVE",
"410.061 522.104 CURVE SMOOTH",
"385.069 311.177 LINE SMOOTH",
"368.097 164.082 OFFCURVE",
"158.091 166 OFFCURVE",
"44 166 CURVE SMOOTH",
"0 166 LINE SMOOTH",
"-116.354 166 OFFCURVE",
"-116.354 -10 OFFCURVE",
"0 -10 CURVE SMOOTH"
);
}
);
width = 794;
}
);
},
{
glyphname = "dotlessbeh-ar.init";
lastChange = "2016-01-30 17:19:08 +0000";
layers = (
{
anchors = (
{
name = bottom;
position = "{254, -156}";
},
{
name = top;
position = "{361, 981}";
}
);
layerId = "3D7C20C2-9735-4AE4-B4D3-DDFDA9BF3443";
name = Light;
paths = (
{
closed = 1;
nodes = (
"423 820 OFFCURVE",
"422 821 OFFCURVE",
"418 816 CURVE",
"328 726 LINE",
"324 721 OFFCURVE",
"324 718 OFFCURVE",
"325 713 CURVE",
"436 246 LINE SMOOTH",
"439 232 OFFCURVE",
"434 223 OFFCURVE",
"422 218 CURVE SMOOTH",
"318 171 OFFCURVE",
"210 148 OFFCURVE",
"0 148 CURVE SMOOTH",
"-92 148 OFFCURVE",
"-93 8 OFFCURVE",
"0 8 CURVE SMOOTH",
"361 9 OFFCURVE",
"521 110 OFFCURVE",
"521 338 CURVE SMOOTH",
"521 417 OFFCURVE",
"460 663 OFFCURVE",
"424 816 CURVE SMOOTH"
);
}
);
width = 649;
},
{
anchors = (
{
name = bottom;
position = "{254, -156}";
},
{
name = top;
position = "{361, 981}";
}
);
layerId = "13527720-5DE3-47C6-AB0B-155DF4EF49D9";
name = Regular;
paths = (
{
closed = 1;
nodes = (
"342 1 OFFCURVE",
"529 91 OFFCURVE",
"529 338 CURVE SMOOTH",
"529 418 OFFCURVE",
"468 665 OFFCURVE",
"432 818 CURVE",
"429 829 OFFCURVE",
"420 830 OFFCURVE",
"412 822 CURVE SMOOTH",
"322 731 LINE",
"317 725 OFFCURVE",
"315 719 OFFCURVE",
"317 711 CURVE SMOOTH",
"428 244 LINE SMOOTH",
"430 235 OFFCURVE",
"428 229 OFFCURVE",
"419 225 CURVE SMOOTH",
"316 179 OFFCURVE",
"209 156 OFFCURVE",
"0 156 CURVE SMOOTH",
"-103 156 OFFCURVE",
"-103 0 OFFCURVE",
"0 0 CURVE SMOOTH"
);
}
);
width = 649;
},
{
anchors = (
{
name = bottom;
position = "{254, -156}";
},
{
name = top;
position = "{361, 981}";
}
);
layerId = "C8F46AD5-0BB5-455F-A00C-91F555441CD3";
name = Bold;
paths = (
{
closed = 1;
nodes = (
"370.855 -8.916 OFFCURVE",
"539 99.057 OFFCURVE",
"539 338 CURVE SMOOTH",
"539 419.217 OFFCURVE",
"477.722 667.344 OFFCURVE",
"441.734 820.29 CURVE SMOOTH",
"436.679 838.85 OFFCURVE",
"418.755 842.898 OFFCURVE",
"404.929 829.071 CURVE SMOOTH",
"314.89 738.032 LINE",
"314.318 737.402 LINE",
"307.018 728.642 OFFCURVE",
"304.672 719.079 OFFCURVE",
"307.299 708.575 CURVE SMOOTH",
"418.271 241.688 LINE SMOOTH",
"419.34 236.872 OFFCURVE",
"418.762 235.837 OFFCURVE",
"414.939 234.138 CURVE SMOOTH",
"312.877 188.557 OFFCURVE",
"207.937 166 OFFCURVE",
"0 166 CURVE SMOOTH",
"-116.354 166 OFFCURVE",
"-116.354 -10 OFFCURVE",
"0 -10 CURVE SMOOTH"
);
}
);
width = 649;
}
);
},
{
glyphname = "peh-ar.init";
lastChange = "2016-01-30 17:19:08 +0000";
layers = (
{
anchors = (
{
name = top;
position = "{473, 1008}";
}
);
components = (
{
name = "threedotsdownbelow-ar";
transform = "{1, 0, 0, 1, 22, -21}";
}
);
layerId = "3D7C20C2-9735-4AE4-B4D3-DDFDA9BF3443";
name = Light;
paths = (
{
closed = 1;
nodes = (
"472 850 OFFCURVE",
"471 851 OFFCURVE",
"467 846 CURVE",
"377 756 LINE",
"373 751 OFFCURVE",
"373 748 OFFCURVE",
"374 743 CURVE",
"502 279 LINE SMOOTH",
"510 248 OFFCURVE",
"493 238 OFFCURVE",
"477 229 CURVE",
"476 229 LINE",
"404 198 OFFCURVE",
"271 148 OFFCURVE",
"80 148 CURVE SMOOTH",
"0 148 LINE SMOOTH",
"-92 148 OFFCURVE",
"-93 8 OFFCURVE",
"0 8 CURVE SMOOTH",
"80 8 LINE SMOOTH",
"259 8 OFFCURVE",
"514 85 OFFCURVE",
"538 184 CURVE",
"538 185 LINE",
"558 242 OFFCURVE",
"570 314 OFFCURVE",
"570 368 CURVE SMOOTH",
"570 447 OFFCURVE",
"509 693 OFFCURVE",
"473 846 CURVE SMOOTH"
);
}
);
width = 698;
},
{
anchors = (
{
name = top;
position = "{473, 1008}";
}
);
components = (
{
name = "threedotsdownbelow-ar";
transform = "{1, 0, 0, 1, 22, -21}";
}
);
layerId = "13527720-5DE3-47C6-AB0B-155DF4EF49D9";
name = Regular;
paths = (
{
closed = 1;
nodes = (
"80 0 LINE SMOOTH",
"260 0 OFFCURVE",
"521 79 OFFCURVE",
"546 182 CURVE",
"566 242 OFFCURVE",
"578 314 OFFCURVE",
"578 368 CURVE SMOOTH",
"578 448 OFFCURVE",
"517 695 OFFCURVE",
"481 848 CURVE",
"478 859 OFFCURVE",
"469 860 OFFCURVE",
"461 852 CURVE SMOOTH",
"371 761 LINE",
"366 755 OFFCURVE",
"364 749 OFFCURVE",
"366 741 CURVE SMOOTH",
"494 277 LINE SMOOTH",
"501 252 OFFCURVE",
"489 245 OFFCURVE",
"473 236 CURVE",
"401 205 OFFCURVE",
"270 156 OFFCURVE",
"80 156 CURVE SMOOTH",
"0 156 LINE SMOOTH",
"-103 156 OFFCURVE",
"-103 0 OFFCURVE",
"0 0 CURVE SMOOTH"
);
}
);
width = 698;
},
{
anchors = (
{
name = top;
position = "{473, 1008}";
}
);
components = (
{
name = "threedotsdownbelow-ar";
transform = "{1, 0, 0, 1, 22, -21}";
}
);
layerId = "C8F46AD5-0BB5-455F-A00C-91F555441CD3";
name = Bold;
paths = (
{
closed = 1;
nodes = (
"80 -10 LINE SMOOTH",
"261.48 -10 OFFCURVE",
"529.369 71.085 OFFCURVE",
"555.718 179.641 CURVE",
"555.487 178.838 LINE",
"575.548 239.02 OFFCURVE",
"588 312.056 OFFCURVE",
"588 368 CURVE SMOOTH",
"588 449.217 OFFCURVE",
"526.722 697.344 OFFCURVE",
"490.734 850.29 CURVE SMOOTH",
"485.679 868.85 OFFCURVE",
"467.755 872.898 OFFCURVE",
"453.929 859.071 CURVE SMOOTH",
"363.89 768.032 LINE",
"363.318 767.402 LINE",
"356.018 758.642 OFFCURVE",
"353.672 749.079 OFFCURVE",
"356.299 738.575 CURVE SMOOTH",
"484.36 274.341 LINE SMOOTH",
"489.239 256.915 OFFCURVE",
"484.13 253.738 OFFCURVE",
"468.559 244.976 CURVE",
"396.687 214.064 OFFCURVE",
"267.767 166 OFFCURVE",
"80 166 CURVE SMOOTH",
"0 166 LINE SMOOTH",
"-116.354 166 OFFCURVE",
"-116.354 -10 OFFCURVE",
"0 -10 CURVE SMOOTH"
);
}
);
width = 698;
}
);
unicode = FB58;
},
{
glyphname = "hah-ar";
lastChange = "2016-01-30 17:19:08 +0000";
layers = (
{
anchors = (
{
name = bottom;
position = "{700, -822}";
},
{
name = center;
position = "{710, -61}";
},
{
name = top;
position = "{389, 926}";
}
);
layerId = "3D7C20C2-9735-4AE4-B4D3-DDFDA9BF3443";
name = Light;
paths = (
{
closed = 1;
nodes = (
"689 -554 OFFCURVE",
"378 -508 OFFCURVE",
"271 -316 CURVE SMOOTH",
"240 -256 OFFCURVE",
"234 -181 OFFCURVE",
"255 -96 CURVE SMOOTH",
"341 249 OFFCURVE",
"704 460 OFFCURVE",
"1068 465 CURVE SMOOTH",
"1070 465 OFFCURVE",
"1072 466 OFFCURVE",
"1073 469 CURVE SMOOTH",
"1121 614 LINE",
"1124 621 OFFCURVE",
"1119 628 OFFCURVE",
"1111 627 CURVE",
"821 612 OFFCURVE",
"679 691 OFFCURVE",
"532 736 CURVE SMOOTH",
"364 788 OFFCURVE",
"301 770 OFFCURVE",
"174 632 CURVE",
"172 630 OFFCURVE",
"171 628 OFFCURVE",
"172 626 CURVE",
"202 545 LINE SMOOTH",
"205 536 OFFCURVE",
"214 535 OFFCURVE",
"220 542 CURVE",
"324 644 OFFCURVE",
"369 639 OFFCURVE",
"472 607 CURVE SMOOTH",
"718 530 LINE",
"426 445 OFFCURVE",
"162 130 OFFCURVE",
"158 -200 CURVE SMOOTH",
"152 -679 OFFCURVE",
"552 -697 OFFCURVE",
"918 -643 CURVE SMOOTH",
"1089 -617 OFFCURVE",
"1134 -587 OFFCURVE",
"1181 -470 CURVE",
"1183 -464 OFFCURVE",
"1176 -459 OFFCURVE",
"1165 -461 CURVE SMOOTH"
);
},
{
closed = 1;
nodes = (
"1073 469 LINE",
"1073 468 LINE",
"1074 469 LINE"
);
}
);
width = 1250;
},
{
anchors = (
{
name = bottom;
position = "{700, -822}";
},
{
name = center;
position = "{710, -61}";
},
{
name = top;
position = "{389, 926}";
}
);
layerId = "13527720-5DE3-47C6-AB0B-155DF4EF49D9";
name = Regular;
paths = (
{
closed = 1;
nodes = (
"1091 -625 OFFCURVE",
"1140 -594 OFFCURVE",
"1188 -473 CURVE SMOOTH",
"1193 -460 OFFCURVE",
"1180 -450 OFFCURVE",
"1164 -453 CURVE SMOOTH",
"876 -509 OFFCURVE",
"416 -560 OFFCURVE",
"278 -312 CURVE SMOOTH",
"250 -259 OFFCURVE",
"241 -187 OFFCURVE",
"263 -98 CURVE SMOOTH",
"348 244 OFFCURVE",
"706 452 OFFCURVE",
"1068 457 CURVE SMOOTH",
"1074 457 OFFCURVE",
"1079 461 OFFCURVE",
"1081 466 CURVE",
"1129 612 LINE SMOOTH",
"1133 624 OFFCURVE",
"1124 636 OFFCURVE",
"1110 635 CURVE SMOOTH",
"823 620 OFFCURVE",
"682 698 OFFCURVE",
"534 744 CURVE SMOOTH",
"365 796 OFFCURVE",
"299 779 OFFCURVE",
"168 637 CURVE",
"164 633 OFFCURVE",
"163 628 OFFCURVE",
"164 624 CURVE",
"195 542 LINE SMOOTH",
"200 528 OFFCURVE",
"215 525 OFFCURVE",
"226 536 CURVE SMOOTH",
"327 636 OFFCURVE",
"367 631 OFFCURVE",
"470 599 CURVE SMOOTH",
"691 530 LINE",
"407 434 OFFCURVE",
"154 124 OFFCURVE",
"150 -200 CURVE SMOOTH",
"144 -687 OFFCURVE",
"552 -705 OFFCURVE",
"919 -651 CURVE SMOOTH"
);
}
);
width = 1250;
},
{
anchors = (
{
name = bottom;
position = "{700, -822}";
},
{
name = center;
position = "{710, -61}";
},
{
name = top;
position = "{389, 926}";
}
);
layerId = "C8F46AD5-0BB5-455F-A00C-91F555441CD3";
name = Bold;
paths = (
{
closed = 1;
nodes = (
"1096.931 -634.217 OFFCURVE",
"1148.326 -600.132 OFFCURVE",
"1197.295 -476.687 CURVE SMOOTH",
"1205.168 -456.219 OFFCURVE",
"1186.326 -438.64 OFFCURVE",
"1162.157 -443.171 CURVE SMOOTH",
"693.871 -534.227 OFFCURVE",
"388.885 -490.705 OFFCURVE",
"286.738 -307.138 CURVE SMOOTH",
"257.779 -252.317 OFFCURVE",
"252.829 -180.818 OFFCURVE",
"272.708 -100.4 CURVE SMOOTH",
"356.684 237.48 OFFCURVE",
"708.758 442.037 OFFCURVE",
"1068.138 447 CURVE SMOOTH",
"1077.687 447 OFFCURVE",
"1086.629 453.146 OFFCURVE",
"1090.285 462.286 CURVE SMOOTH",
"1090.5 462.877 LINE",
"1138.5 608.877 LINE SMOOTH",
"1144.751 627.63 OFFCURVE",
"1130.188 646.467 OFFCURVE",
"1109.288 644.975 CURVE SMOOTH",
"825.336 630.136 OFFCURVE",
"685.945 707.246 OFFCURVE",
"536.968 753.549 CURVE SMOOTH",
"362.57 807.21 OFFCURVE",
"292.554 786.76 OFFCURVE",
"160.65 643.781 CURVE",
"154.835 637.977 OFFCURVE",
"152.224 628.771 OFFCURVE",
"154.475 620.915 CURVE",
"185.646 538.464 LINE SMOOTH",
"192.924 518.079 OFFCURVE",
"216.807 512.665 OFFCURVE",
"233.071 528.929 CURVE SMOOTH",
"330.582 625.474 OFFCURVE",
"364.88 621.187 OFFCURVE",
"467.033 589.45 CURVE SMOOTH",
"659.726 529.288 LINE",
"369.899 416.894 OFFCURVE",
"143.748 103.624 OFFCURVE",
"140 -199.877 CURVE SMOOTH",
"133.881 -696.563 OFFCURVE",
"552.512 -715.032 OFFCURVE",
"920.456 -660.893 CURVE SMOOTH"
);
}
);
width = 1250;
}
);
unicode = 062D;
},
{
glyphname = "hah-ar.fina";
lastChange = "2016-01-30 17:19:08 +0000";
layers = (
{
anchors = (
{
name = bottom;
position = "{690, -822}";
},
{
name = center;
position = "{590, -104}";
},
{
name = top;
position = "{393, 924}";
}
);
layerId = "3D7C20C2-9735-4AE4-B4D3-DDFDA9BF3443";
name = Light;
paths = (
{
closed = 1;
nodes = (
"689 -554 OFFCURVE",
"378 -508 OFFCURVE",
"271 -316 CURVE SMOOTH",
"240 -256 OFFCURVE",
"234 -181 OFFCURVE",
"255 -96 CURVE SMOOTH",
"303 96 OFFCURVE",
"438 258 OFFCURVE",
"637 358 CURVE",
"710 129 OFFCURVE",
"856 8 OFFCURVE",
"1060 8 CURVE SMOOTH",
"1110 8 LINE",
"1147 55 OFFCURVE",
"1147 101 OFFCURVE",
"1110 148 CURVE",
"1074 148 LINE SMOOTH",
"958 148 OFFCURVE",
"778 197 OFFCURVE",
"715 395 CURVE",
"826 439 OFFCURVE",
"946 463 OFFCURVE",
"1068 465 CURVE SMOOTH",
"1070 465 OFFCURVE",
"1072 466 OFFCURVE",
"1073 469 CURVE SMOOTH",
"1121 614 LINE",
"1124 621 OFFCURVE",
"1119 628 OFFCURVE",
"1111 627 CURVE",
"821 612 OFFCURVE",
"679 691 OFFCURVE",
"532 736 CURVE SMOOTH",
"364 788 OFFCURVE",
"301 770 OFFCURVE",
"174 632 CURVE",
"172 630 OFFCURVE",
"171 628 OFFCURVE",
"172 626 CURVE",
"202 545 LINE SMOOTH",
"205 536 OFFCURVE",
"214 535 OFFCURVE",
"220 542 CURVE",
"324 644 OFFCURVE",
"369 639 OFFCURVE",
"472 607 CURVE SMOOTH",
"718 530 LINE",
"426 445 OFFCURVE",
"162 130 OFFCURVE",
"158 -200 CURVE SMOOTH",
"152 -679 OFFCURVE",
"552 -697 OFFCURVE",
"918 -643 CURVE SMOOTH",
"1089 -617 OFFCURVE",
"1134 -587 OFFCURVE",
"1181 -470 CURVE",
"1183 -464 OFFCURVE",
"1176 -459 OFFCURVE",
"1165 -461 CURVE SMOOTH"
);
},
{
closed = 1;
nodes = (
"1073 469 LINE",
"1073 468 LINE",
"1074 469 LINE"
);
}
);
width = 1114;
},
{
anchors = (
{
name = bottom;
position = "{690, -822}";
},
{
name = center;
position = "{590, -104}";
},
{
name = top;
position = "{393, 924}";
}
);
layerId = "13527720-5DE3-47C6-AB0B-155DF4EF49D9";
name = Regular;
paths = (
{
closed = 1;
nodes = (
"1091 -625 OFFCURVE",
"1140 -594 OFFCURVE",
"1188 -473 CURVE SMOOTH",
"1193 -460 OFFCURVE",
"1180 -450 OFFCURVE",
"1164 -453 CURVE SMOOTH",
"876 -509 OFFCURVE",
"416 -560 OFFCURVE",
"278 -312 CURVE SMOOTH",
"250 -259 OFFCURVE",
"241 -187 OFFCURVE",
"263 -98 CURVE SMOOTH",
"312 100 OFFCURVE",
"452 253 OFFCURVE",
"632 347 CURVE",
"705 126 OFFCURVE",
"850 0 OFFCURVE",
"1060 0 CURVE SMOOTH",
"1114 0 LINE",
"1156 52 OFFCURVE",
"1156 104 OFFCURVE",
"1114 156 CURVE",
"1074 156 LINE SMOOTH",
"960 156 OFFCURVE",
"789 202 OFFCURVE",
"725 390 CURVE",
"833 432 OFFCURVE",
"950 455 OFFCURVE",
"1068 457 CURVE SMOOTH",
"1074 457 OFFCURVE",
"1079 461 OFFCURVE",
"1081 466 CURVE",
"1129 612 LINE SMOOTH",
"1133 624 OFFCURVE",
"1124 636 OFFCURVE",
"1110 635 CURVE SMOOTH",
"823 620 OFFCURVE",
"682 698 OFFCURVE",
"534 744 CURVE SMOOTH",
"365 796 OFFCURVE",
"299 779 OFFCURVE",
"168 637 CURVE",
"164 633 OFFCURVE",
"163 628 OFFCURVE",
"164 624 CURVE",
"195 542 LINE SMOOTH",
"200 528 OFFCURVE",
"215 525 OFFCURVE",
"226 536 CURVE SMOOTH",
"327 636 OFFCURVE",
"367 631 OFFCURVE",
"470 599 CURVE SMOOTH",
"691 530 LINE",
"407 434 OFFCURVE",
"154 124 OFFCURVE",
"150 -200 CURVE SMOOTH",
"144 -687 OFFCURVE",
"552 -705 OFFCURVE",
"919 -651 CURVE SMOOTH"
);
}
);
width = 1114;
},
{
anchors = (
{
name = bottom;
position = "{690, -822}";
},
{
name = center;
position = "{590, -104}";
},
{
name = top;
position = "{393, 924}";
}
);
layerId = "C8F46AD5-0BB5-455F-A00C-91F555441CD3";
name = Bold;
paths = (
{
closed = 1;
nodes = (
"1096.931 -634.217 OFFCURVE",
"1148.326 -600.132 OFFCURVE",
"1197.295 -476.687 CURVE SMOOTH",
"1205.168 -456.219 OFFCURVE",
"1186.326 -438.64 OFFCURVE",
"1162.157 -443.171 CURVE SMOOTH",
"693.871 -534.227 OFFCURVE",
"388.885 -490.705 OFFCURVE",
"286.738 -307.138 CURVE SMOOTH",
"257.779 -252.317 OFFCURVE",
"252.829 -180.818 OFFCURVE",
"272.708 -100.4 CURVE SMOOTH",
"317.392 80.16 OFFCURVE",
"442.805 233.657 OFFCURVE",
"626.297 332.652 CURVE",
"703.691 109.174 OFFCURVE",
"854.255 -10 OFFCURVE",
"1060 -10 CURVE SMOOTH",
"1118.708 -10 LINE",
"1167.648 47.906 OFFCURVE",
"1167.648 108.094 OFFCURVE",
"1118.708 166 CURVE",
"1074 166 LINE SMOOTH",
"963.208 166 OFFCURVE",
"802.245 208.801 OFFCURVE",
"737.68 384.149 CURVE",
"842.668 423.75 OFFCURVE",
"955.373 445.09 OFFCURVE",
"1068.169 447.001 CURVE SMOOTH",
"1077.687 447 OFFCURVE",
"1086.629 453.146 OFFCURVE",
"1090.285 462.286 CURVE SMOOTH",
"1090.5 462.877 LINE",
"1138.5 608.877 LINE SMOOTH",
"1144.751 627.63 OFFCURVE",
"1130.188 646.467 OFFCURVE",
"1109.288 644.975 CURVE SMOOTH",
"825.336 630.136 OFFCURVE",
"685.945 707.246 OFFCURVE",
"536.968 753.549 CURVE SMOOTH",
"362.57 807.21 OFFCURVE",
"292.554 786.76 OFFCURVE",
"160.65 643.781 CURVE",
"154.835 637.977 OFFCURVE",
"152.224 628.771 OFFCURVE",
"154.475 620.915 CURVE",
"185.646 538.464 LINE SMOOTH",
"192.924 518.079 OFFCURVE",
"216.807 512.665 OFFCURVE",
"233.071 528.929 CURVE SMOOTH",
"330.582 625.474 OFFCURVE",
"364.88 621.187 OFFCURVE",
"467.033 589.45 CURVE SMOOTH",
"659.726 529.288 LINE",
"369.899 416.894 OFFCURVE",
"143.748 103.624 OFFCURVE",
"140 -199.877 CURVE SMOOTH",
"133.881 -696.563 OFFCURVE",
"552.512 -715.032 OFFCURVE",
"920.456 -660.893 CURVE SMOOTH"
);
}
);
width = 1114;
}
);
unicode = FEA2;
},
{
glyphname = "hah-ar.medi";
lastChange = "2016-01-30 17:19:08 +0000";
layers = (
{
anchors = (
{
name = bottom;
position = "{670, -115}";
},
{
name = top;
position = "{449, 842}";
}
);
layerId = "3D7C20C2-9735-4AE4-B4D3-DDFDA9BF3443";
name = Light;
paths = (
{
closed = 1;
nodes = (
"1357 148 LINE SMOOTH",
"1222 148 OFFCURVE",
"1128 195 OFFCURVE",
"1069 291 CURVE",
"1133 299 OFFCURVE",
"1190 296 OFFCURVE",
"1257 289 CURVE",
"1263 289 OFFCURVE",
"1265 291 OFFCURVE",
"1267 296 CURVE",
"1315 444 LINE",
"1317 451 OFFCURVE",
"1316 451 OFFCURVE",
"1310 451 CURVE",
"1097 441 OFFCURVE",
"926 517 OFFCURVE",
"738 593 CURVE SMOOTH",
"485 695 OFFCURVE",
"397 744 OFFCURVE",
"239 554 CURVE",
"239 553 LINE",
"236 550 OFFCURVE",
"235 548 OFFCURVE",
"237 541 CURVE SMOOTH",
"267 444 LINE",
"268 440 OFFCURVE",
"269 439 OFFCURVE",
"273 443 CURVE SMOOTH",
"347 521 OFFCURVE",
"384 545 OFFCURVE",
"437 545 CURVE SMOOTH",
"551 545 OFFCURVE",
"805 404 OFFCURVE",
"967 379 CURVE",
"762 330 OFFCURVE",
"404 148 OFFCURVE",
"0 148 CURVE SMOOTH",
"-92 148 OFFCURVE",
"-93 8 OFFCURVE",
"0 8 CURVE SMOOTH",
"304 8 OFFCURVE",
"587 134 OFFCURVE",
"835 227 CURVE SMOOTH",
"879 244 OFFCURVE",
"919 258 OFFCURVE",
"956 268 CURVE",
"1041 131 OFFCURVE",
"1134 8 OFFCURVE",
"1357 8 CURVE SMOOTH",
"1393 8 LINE",
"1430 55 OFFCURVE",
"1430 101 OFFCURVE",
"1393 148 CURVE"
);
},
{
closed = 1;
nodes = (
"1258 289 OFFCURVE",
"1258 289 OFFCURVE",
"1257 289 CURVE",
"1258 289 LINE"
);
}
);
width = 1397;
},
{
anchors = (
{
name = bottom;
position = "{670, -115}";
},
{
name = top;
position = "{449, 842}";
}
);
layerId = "13527720-5DE3-47C6-AB0B-155DF4EF49D9";
name = Regular;
paths = (
{
closed = 1;
nodes = (
"306 0 OFFCURVE",
"590 127 OFFCURVE",
"838 220 CURVE SMOOTH",
"880 236 OFFCURVE",
"918 249 OFFCURVE",
"952 259 CURVE",
"1037 123 OFFCURVE",
"1133 0 OFFCURVE",
"1357 0 CURVE SMOOTH",
"1397 0 LINE",
"1439 52 OFFCURVE",
"1439 104 OFFCURVE",
"1397 156 CURVE",
"1357 156 LINE SMOOTH",
"1219 156 OFFCURVE",
"1136 205 OFFCURVE",
"1083 285 CURVE",
"1141 291 OFFCURVE",
"1194 288 OFFCURVE",
"1257 281 CURVE",
"1266 281 OFFCURVE",
"1271 285 OFFCURVE",
"1274 293 CURVE",
"1323 442 LINE",
"1326 453 OFFCURVE",
"1322 459 OFFCURVE",
"1310 459 CURVE",
"1099 449 OFFCURVE",
"929 524 OFFCURVE",
"741 600 CURVE SMOOTH",
"488 702 OFFCURVE",
"395 754 OFFCURVE",
"233 559 CURVE",
"227 553 OFFCURVE",
"227 547 OFFCURVE",
"229 539 CURVE",
"259 442 LINE SMOOTH",
"262 431 OFFCURVE",
"271 429 OFFCURVE",
"279 438 CURVE SMOOTH",
"347 510 OFFCURVE",
"384 537 OFFCURVE",
"437 537 CURVE SMOOTH",
"542 537 OFFCURVE",
"771 414 OFFCURVE",
"934 378 CURVE",
"724 320 OFFCURVE",
"382 156 OFFCURVE",
"0 156 CURVE SMOOTH",
"-103 156 OFFCURVE",
"-103 0 OFFCURVE",
"0 0 CURVE SMOOTH"
);
}
);
width = 1397;
},
{
anchors = (
{
name = bottom;
position = "{670, -115}";
},
{
name = top;
position = "{449, 842}";
}
);
layerId = "C8F46AD5-0BB5-455F-A00C-91F555441CD3";
name = Bold;
paths = (
{
closed = 1;
nodes = (
"308.134 -10 OFFCURVE",
"593.8 117.745 OFFCURVE",
"841.511 210.637 CURVE SMOOTH",
"880.937 225.656 OFFCURVE",
"916.191 237.781 OFFCURVE",
"947.569 247.246 CURVE",
"1031.964 113.272 OFFCURVE",
"1131.733 -10 OFFCURVE",
"1357 -10 CURVE SMOOTH",
"1401.708 -10 LINE",
"1450.648 47.906 OFFCURVE",
"1450.648 108.094 OFFCURVE",
"1401.708 166 CURVE",
"1357 166 LINE SMOOTH",
"1239.656 166 OFFCURVE",
"1157.102 201.637 OFFCURVE",
"1101.146 276.575 CURVE",
"1151.941 280.35 OFFCURVE",
"1199.761 277.312 OFFCURVE",
"1256.405 271.004 CURVE",
"1269.527 270.807 OFFCURVE",
"1278.729 277.131 OFFCURVE",
"1283.363 289.489 CURVE",
"1332.5 438.876 LINE",
"1332.648 439.369 LINE SMOOTH",
"1337.47 457.051 OFFCURVE",
"1328.337 469 OFFCURVE",
"1310 469 CURVE",
"1100.88 459.1 OFFCURVE",
"932.893 533.212 OFFCURVE",
"744.748 609.271 CURVE SMOOTH",
"492.327 711.038 OFFCURVE",
"392.622 766.787 OFFCURVE",
"225.308 565.39 CURVE",
"225.929 566.071 LINE",
"218.182 558.324 OFFCURVE",
"216.167 549.102 OFFCURVE",
"219.299 536.575 CURVE SMOOTH",
"219.446 536.045 LINE",
"249.446 439.045 LINE SMOOTH",
"254.494 420.517 OFFCURVE",
"273.269 416.5 OFFCURVE",
"286.474 431.356 CURVE SMOOTH",
"356.911 505.93 OFFCURVE",
"390.398 527 OFFCURVE",
"437 527 CURVE SMOOTH",
"532.175 527 OFFCURVE",
"735.606 421.38 OFFCURVE",
"895.776 377.241 CURVE",
"683.279 312.102 OFFCURVE",
"359.063 166 OFFCURVE",
"0 166 CURVE SMOOTH",
"-116.354 166 OFFCURVE",
"-116.354 -10 OFFCURVE",
"0 -10 CURVE SMOOTH"
);
}
);
width = 1397;
}
);
unicode = FEA4;
},
{
glyphname = "hah-ar.init";
lastChange = "2016-01-30 17:19:08 +0000";
layers = (
{
anchors = (
{
name = bottom;
position = "{625, -131}";
},
{
name = top;
position = "{442, 846}";
}
);
layerId = "3D7C20C2-9735-4AE4-B4D3-DDFDA9BF3443";
name = Light;
paths = (
{
closed = 1;
nodes = (
"1097 441 OFFCURVE",
"926 517 OFFCURVE",
"738 593 CURVE SMOOTH",
"485 695 OFFCURVE",
"397 744 OFFCURVE",
"239 554 CURVE",
"239 553 LINE",
"236 550 OFFCURVE",
"235 548 OFFCURVE",
"237 541 CURVE SMOOTH",
"267 444 LINE",
"268 440 OFFCURVE",
"269 439 OFFCURVE",
"273 443 CURVE SMOOTH",
"347 521 OFFCURVE",
"384 545 OFFCURVE",
"437 545 CURVE SMOOTH",
"551 545 OFFCURVE",
"805 404 OFFCURVE",
"967 379 CURVE",
"762 330 OFFCURVE",
"404 148 OFFCURVE",
"0 148 CURVE SMOOTH",
"-92 148 OFFCURVE",
"-93 8 OFFCURVE",
"0 8 CURVE SMOOTH",
"294 8 OFFCURVE",
"587 134 OFFCURVE",
"835 227 CURVE SMOOTH",
"1031 302 OFFCURVE",
"1123 304 OFFCURVE",
"1257 289 CURVE",
"1263 289 OFFCURVE",
"1265 291 OFFCURVE",
"1267 296 CURVE",
"1315 444 LINE",
"1317 451 OFFCURVE",
"1316 451 OFFCURVE",
"1310 451 CURVE"
);
},
{
closed = 1;
nodes = (
"1258 289 OFFCURVE",
"1258 289 OFFCURVE",
"1257 289 CURVE",
"1258 289 LINE"
);
}
);
width = 1444;
},
{
anchors = (
{
name = bottom;
position = "{625, -131}";
},
{
name = top;
position = "{442, 846}";
}
);
layerId = "13527720-5DE3-47C6-AB0B-155DF4EF49D9";
name = Regular;
paths = (
{
closed = 1;
nodes = (
"296 0 OFFCURVE",
"590 127 OFFCURVE",
"838 220 CURVE SMOOTH",
"1033 294 OFFCURVE",
"1123 296 OFFCURVE",
"1257 281 CURVE",
"1266 281 OFFCURVE",
"1271 285 OFFCURVE",
"1274 293 CURVE",
"1323 442 LINE",
"1326 453 OFFCURVE",
"1322 459 OFFCURVE",
"1310 459 CURVE",
"1099 449 OFFCURVE",
"929 524 OFFCURVE",
"741 600 CURVE SMOOTH",
"488 702 OFFCURVE",
"395 754 OFFCURVE",
"233 559 CURVE",
"227 553 OFFCURVE",
"227 547 OFFCURVE",
"229 539 CURVE",
"259 442 LINE SMOOTH",
"262 431 OFFCURVE",
"271 429 OFFCURVE",
"279 438 CURVE SMOOTH",
"347 510 OFFCURVE",
"384 537 OFFCURVE",
"437 537 CURVE SMOOTH",
"542 537 OFFCURVE",
"771 414 OFFCURVE",
"934 378 CURVE",
"724 320 OFFCURVE",
"382 156 OFFCURVE",
"0 156 CURVE SMOOTH",
"-103 156 OFFCURVE",
"-103 0 OFFCURVE",
"0 0 CURVE SMOOTH"
);
}
);
width = 1444;
},
{
anchors = (
{
name = bottom;
position = "{625, -131}";
},
{
name = top;
position = "{442, 846}";
}
);
layerId = "C8F46AD5-0BB5-455F-A00C-91F555441CD3";
name = Bold;
paths = (
{
closed = 1;
nodes = (
"298.068 -10 OFFCURVE",
"593.741 117.723 OFFCURVE",
"841.511 210.637 CURVE SMOOTH",
"1035.189 284.135 OFFCURVE",
"1122.777 285.992 OFFCURVE",
"1256.401 271.005 CURVE",
"1269.525 270.805 OFFCURVE",
"1278.729 277.13 OFFCURVE",
"1283.363 289.489 CURVE",
"1332.5 438.876 LINE",
"1332.648 439.369 LINE SMOOTH",
"1337.47 457.051 OFFCURVE",
"1328.337 469 OFFCURVE",
"1310 469 CURVE",
"1100.88 459.1 OFFCURVE",
"932.893 533.212 OFFCURVE",
"744.748 609.271 CURVE SMOOTH",
"492.327 711.038 OFFCURVE",
"392.622 766.787 OFFCURVE",
"225.308 565.39 CURVE",
"225.929 566.071 LINE",
"218.182 558.324 OFFCURVE",
"216.167 549.102 OFFCURVE",
"219.299 536.575 CURVE SMOOTH",
"219.446 536.045 LINE",
"249.446 439.045 LINE SMOOTH",
"254.494 420.517 OFFCURVE",
"273.269 416.5 OFFCURVE",
"286.474 431.356 CURVE SMOOTH",
"356.911 505.93 OFFCURVE",
"390.398 527 OFFCURVE",
"437 527 CURVE SMOOTH",
"532.175 527 OFFCURVE",
"735.606 421.38 OFFCURVE",
"895.776 377.241 CURVE",
"683.279 312.102 OFFCURVE",
"359.063 166 OFFCURVE",
"0 166 CURVE SMOOTH",
"-116.354 166 OFFCURVE",
"-116.354 -10 OFFCURVE",
"0 -10 CURVE SMOOTH"
);
}
);
width = 1444;
}
);
unicode = FEA3;
},
{
glyphname = "dal-ar";
lastChange = "2016-01-30 17:19:08 +0000";
layers = (
{
anchors = (
{
name = bottom;
position = "{447, -200}";
},
{
name = top;
position = "{541, 1007}";
}
);
layerId = "3D7C20C2-9735-4AE4-B4D3-DDFDA9BF3443";
name = Light;
paths = (
{
closed = 1;
nodes = (
"570 847 OFFCURVE",
"571 846 OFFCURVE",
"571 846 CURVE",
"571 848 LINE",
"569 848 OFFCURVE",
"569 848 OFFCURVE",
"570 847 CURVE",
"570 848 LINE",
"570 847 LINE"
);
},
{
closed = 1;
nodes = (
"574 845 OFFCURVE",
"572 846 OFFCURVE",
"571 846 CURVE",
"571 723 OFFCURVE",
"570 644 OFFCURVE",
"570 847 CURVE",
"489 723 LINE",
"486 718 OFFCURVE",
"486 715 OFFCURVE",
"490 709 CURVE",
"754 342 OFFCURVE",
"779 248 OFFCURVE",
"790 182 CURVE",
"660 135 OFFCURVE",
"487 100 OFFCURVE",
"331 118 CURVE SMOOTH",
"259 127 OFFCURVE",
"250 158 OFFCURVE",
"245 268 CURVE",
"244 273 OFFCURVE",
"242 275 OFFCURVE",
"237 275 CURVE SMOOTH",
"170 275 LINE SMOOTH",
"165 275 OFFCURVE",
"164 273 OFFCURVE",
"163 268 CURVE",
"149 104 OFFCURVE",
"144 -41 OFFCURVE",
"389 -41 CURVE SMOOTH",
"508 -41 OFFCURVE",
"740 0 OFFCURVE",
"813 52 CURVE SMOOTH",
"854 82 OFFCURVE",
"875 131 OFFCURVE",
"875 199 CURVE SMOOTH",
"877 372 OFFCURVE",
"812 477 OFFCURVE",
"574 844 CURVE"
);
},
{
closed = 1;
nodes = (
"490 710 OFFCURVE",
"490 710 OFFCURVE",
"489 710 CURVE",
"490 709 LINE"
);
}
);
width = 1003;
},
{
anchors = (
{
name = bottom;
position = "{447, -200}";
},
{
name = top;
position = "{541, 1007}";
}
);
layerId = "13527720-5DE3-47C6-AB0B-155DF4EF49D9";
name = Regular;
paths = (
{
closed = 1;
nodes = (
"509 -49 OFFCURVE",
"743 -8 OFFCURVE",
"818 46 CURVE SMOOTH",
"864 79 OFFCURVE",
"883 134 OFFCURVE",
"883 199 CURVE SMOOTH",
"885 374 OFFCURVE",
"819 481 OFFCURVE",
"581 848 CURVE SMOOTH",
"576 856 OFFCURVE",
"566 856 OFFCURVE",
"563 852 CURVE",
"563 851 OFFCURVE",
"562 851 OFFCURVE",
"562 850 CURVE",
"482 727 LINE",
"478 720 OFFCURVE",
"478 713 OFFCURVE",
"483 705 CURVE",
"738 351 OFFCURVE",
"769 253 OFFCURVE",
"781 187 CURVE",
"652 142 OFFCURVE",
"484 108 OFFCURVE",
"332 126 CURVE SMOOTH",
"265 134 OFFCURVE",
"258 159 OFFCURVE",
"253 268 CURVE",
"252 278 OFFCURVE",
"246 283 OFFCURVE",
"237 283 CURVE SMOOTH",
"170 283 LINE SMOOTH",
"161 283 OFFCURVE",
"156 278 OFFCURVE",
"155 269 CURVE SMOOTH",
"141 104 OFFCURVE",
"136 -49 OFFCURVE",
"389 -49 CURVE SMOOTH"
);
}
);
width = 1003;
},
{
anchors = (
{
name = bottom;
position = "{447, -200}";
},
{
name = top;
position = "{541, 1007}";
}
);
layerId = "C8F46AD5-0BB5-455F-A00C-91F555441CD3";
name = Bold;
paths = (
{
closed = 1;
nodes = (
"509.869 -59 OFFCURVE",
"746.983 -17.454 OFFCURVE",
"823.843 37.885 CURVE SMOOTH",
"869.34 70.523 OFFCURVE",
"893 125.842 OFFCURVE",
"893 199 CURVE SMOOTH",
"895.032 376.783 OFFCURVE",
"827.452 486.346 OFFCURVE",
"589.39 853.441 CURVE SMOOTH",
"580.753 867.263 OFFCURVE",
"559.657 868.67 OFFCURVE",
"553.156 855.26 CURVE",
"552.993 1115.347 OFFCURVE",
"552.011 1027.575 OFFCURVE",
"552 852.966 CURVE",
"473.617 732.452 LINE",
"473.318 731.961 LINE SMOOTH",
"467.453 721.699 OFFCURVE",
"467.898 710.295 OFFCURVE",
"474.52 699.7 CURVE SMOOTH",
"474.886 699.155 LINE SMOOTH",
"718.275 361.274 OFFCURVE",
"756.332 259.097 OFFCURVE",
"769.55 193.629 CURVE",
"642.376 150.276 OFFCURVE",
"480.419 118.494 OFFCURVE",
"333.176 135.931 CURVE SMOOTH",
"276.14 142.741 OFFCURVE",
"268.098 157.085 OFFCURVE",
"262.989 268.458 CURVE SMOOTH",
"262.95 268.995 LINE SMOOTH",
"261.471 283.79 OFFCURVE",
"251.547 293 OFFCURVE",
"237 293 CURVE SMOOTH",
"170 293 LINE SMOOTH",
"155.987 293 OFFCURVE",
"146.649 284.393 OFFCURVE",
"145.061 270.104 CURVE SMOOTH",
"131.014 104.586 OFFCURVE",
"125.668 -59 OFFCURVE",
"389 -59 CURVE SMOOTH"
);
}
);
width = 1003;
}
);
unicode = 062F;
},
{
glyphname = "dal-ar.fina";
lastChange = "2016-01-30 17:19:08 +0000";
layers = (
{
anchors = (
{
name = bottom;
position = "{447, -200}";
},
{
name = top;
position = "{765, 1042}";
}
);
guideLines = (
{
position = "{2480, -225}";
}
);
layerId = "3D7C20C2-9735-4AE4-B4D3-DDFDA9BF3443";
name = Light;
paths = (
{
closed = 1;
nodes = (
"508 -41 OFFCURVE",
"718 0 OFFCURVE",
"791 52 CURVE SMOOTH",
"818 72 OFFCURVE",
"836 100 OFFCURVE",
"844 140 CURVE SMOOTH",
"847 158 OFFCURVE",
"861 160 OFFCURVE",
"870 143 CURVE",
"910 53 OFFCURVE",
"988 8 OFFCURVE",
"1101 8 CURVE SMOOTH",
"1137 8 LINE",
"1174 55 OFFCURVE",
"1174 101 OFFCURVE",
"1137 148 CURVE",
"1113 148 LINE SMOOTH",
"936 148 OFFCURVE",
"888 206 OFFCURVE",
"847 456 CURVE SMOOTH",
"778 879 LINE",
"777 884 OFFCURVE",
"775 884 OFFCURVE",
"772 882 CURVE",
"668 803 LINE",
"663 798 OFFCURVE",
"662 796 OFFCURVE",
"663 792 CURVE",
"779 195 LINE",
"781 181 OFFCURVE",
"776 172 OFFCURVE",
"764 168 CURVE",
"763 167 LINE",
"635 128 OFFCURVE",
"459 100 OFFCURVE",
"331 118 CURVE SMOOTH",
"260 129 OFFCURVE",
"251 158 OFFCURVE",
"245 268 CURVE",
"244 273 OFFCURVE",
"242 275 OFFCURVE",
"237 275 CURVE SMOOTH",
"170 275 LINE SMOOTH",
"165 275 OFFCURVE",
"164 273 OFFCURVE",
"163 268 CURVE",
"149 104 OFFCURVE",
"144 -41 OFFCURVE",
"389 -41 CURVE SMOOTH"
);
}
);
width = 1141;
},
{
anchors = (
{
name = bottom;
position = "{447, -200}";
},
{
name = top;
position = "{765, 1042}";
}
);
layerId = "13527720-5DE3-47C6-AB0B-155DF4EF49D9";
name = Regular;
paths = (
{
closed = 1;
nodes = (
"509 -49 OFFCURVE",
"721 -8 OFFCURVE",
"796 46 CURVE SMOOTH",
"827 68 OFFCURVE",
"844 100 OFFCURVE",
"852 138 CURVE SMOOTH",
"854 149 OFFCURVE",
"858 149 OFFCURVE",
"863 139 CURVE",
"907 41 OFFCURVE",
"993 0 OFFCURVE",
"1101 0 CURVE SMOOTH",
"1141 0 LINE",
"1183 52 OFFCURVE",
"1183 104 OFFCURVE",
"1141 156 CURVE",
"1113 156 LINE SMOOTH",
"937 156 OFFCURVE",
"894 216 OFFCURVE",
"855 457 CURVE SMOOTH",
"786 880 LINE SMOOTH",
"784 891 OFFCURVE",
"776 895 OFFCURVE",
"767 888 CURVE SMOOTH",
"663 809 LINE",
"657 804 OFFCURVE",
"653 799 OFFCURVE",
"655 790 CURVE SMOOTH",
"771 193 LINE SMOOTH",
"773 183 OFFCURVE",
"769 178 OFFCURVE",
"761 175 CURVE",
"633 136 OFFCURVE",
"459 108 OFFCURVE",
"332 126 CURVE SMOOTH",
"266 136 OFFCURVE",
"259 159 OFFCURVE",
"253 268 CURVE",
"252 278 OFFCURVE",
"246 283 OFFCURVE",
"237 283 CURVE SMOOTH",
"170 283 LINE SMOOTH",
"161 283 OFFCURVE",
"156 278 OFFCURVE",
"155 269 CURVE SMOOTH",
"141 104 OFFCURVE",
"136 -49 OFFCURVE",
"389 -49 CURVE SMOOTH"
);
}
);
width = 1141;
},
{
anchors = (
{
name = bottom;
position = "{447, -200}";
},
{
name = top;
position = "{765, 1042}";
}
);
guideLines = (
{
position = "{2480, -225}";
}
);
layerId = "C8F46AD5-0BB5-455F-A00C-91F555441CD3";
name = Bold;
paths = (
{
closed = 1;
nodes = (
"509.958 -59 OFFCURVE",
"725.058 -17.4 OFFCURVE",
"801.843 37.885 CURVE SMOOTH",
"832.748 59.817 OFFCURVE",
"852.613 92.37 OFFCURVE",
"861.785 135.94 CURVE SMOOTH",
"879.193 231.662 OFFCURVE",
"806.111 230.418 OFFCURVE",
"854.056 134.528 CURVE",
"896.737 39.444 OFFCURVE",
"981.205 -10 OFFCURVE",
"1101 -10 CURVE SMOOTH",
"1145.708 -10 LINE",
"1194.648 47.906 OFFCURVE",
"1194.648 108.094 OFFCURVE",
"1145.708 166 CURVE",
"1113 166 LINE SMOOTH",
"947.003 166 OFFCURVE",
"904.12 216.065 OFFCURVE",
"864.872 458.597 CURVE SMOOTH",
"795.87 881.61 LINE SMOOTH",
"792.409 900.654 OFFCURVE",
"775.699 907.434 OFFCURVE",
"760.861 895.894 CURVE SMOOTH",
"656.951 816.963 LINE",
"646.434 808.212 OFFCURVE",
"642.754 799.008 OFFCURVE",
"645.238 787.831 CURVE SMOOTH",
"761.184 191.093 LINE SMOOTH",
"762.05 186.762 OFFCURVE",
"761.565 185.892 OFFCURVE",
"757.489 184.363 CURVE",
"758.085 184.566 LINE",
"630.738 145.765 OFFCURVE",
"458.905 118.113 OFFCURVE",
"333.403 135.901 CURVE SMOOTH",
"276.667 144.498 OFFCURVE",
"269.071 157.978 OFFCURVE",
"262.985 268.55 CURVE",
"261.471 283.79 OFFCURVE",
"251.547 293 OFFCURVE",
"237 293 CURVE SMOOTH",
"170 293 LINE SMOOTH",
"155.987 293 OFFCURVE",
"146.649 284.393 OFFCURVE",
"145.061 270.104 CURVE SMOOTH",
"131.014 104.586 OFFCURVE",
"125.668 -59 OFFCURVE",
"389 -59 CURVE SMOOTH"
);
}
);
width = 1141;
}
);
unicode = FEAA;
userData = {
com.typemytype.robofont.guides = (
{
angle = 0;
isGlobal = 0;
x = 2480;
y = "-225";
}
);
};
},
{
glyphname = "reh-ar";
lastChange = "2016-01-30 17:19:08 +0000";
layers = (
{
anchors = (
{
name = bottom;
position = "{260, -565}";
},
{
name = top;
position = "{485, 840}";
}
);
guideLines = (
{
position = "{-844, -463}";
}
);
layerId = "3D7C20C2-9735-4AE4-B4D3-DDFDA9BF3443";
name = Light;
paths = (
{
closed = 1;
nodes = (
"568 586 OFFCURVE",
"567 587 OFFCURVE",
"563 582 CURVE",
"473 492 LINE",
"469 487 OFFCURVE",
"469 484 OFFCURVE",
"470 479 CURVE",
"594 43 LINE",
"596 33 OFFCURVE",
"596 26 OFFCURVE",
"592 18 CURVE",
"471 -258 OFFCURVE",
"304 -389 OFFCURVE",
"-37 -314 CURVE",
"-40 -313 OFFCURVE",
"-43 -315 OFFCURVE",
"-45 -322 CURVE",
"-65 -379 LINE",
"-66 -383 OFFCURVE",
"-65 -385 OFFCURVE",
"-59 -386 CURVE",
"146 -455 OFFCURVE",
"286 -476 OFFCURVE",
"406 -409 CURVE SMOOTH",
"530 -339 OFFCURVE",
"646 -138 OFFCURVE",
"664 41 CURVE SMOOTH",
"676 160 OFFCURVE",
"614 391 OFFCURVE",
"569 582 CURVE SMOOTH"
);
}
);
width = 794;
},
{
anchors = (
{
name = bottom;
position = "{260, -565}";
},
{
name = top;
position = "{485, 840}";
}
);
layerId = "13527720-5DE3-47C6-AB0B-155DF4EF49D9";
name = Regular;
paths = (
{
closed = 1;
nodes = (
"533 -347 OFFCURVE",
"653 -146 OFFCURVE",
"672 40 CURVE SMOOTH",
"684 161 OFFCURVE",
"622 393 OFFCURVE",
"577 584 CURVE SMOOTH",
"574 595 OFFCURVE",
"565 596 OFFCURVE",
"557 588 CURVE SMOOTH",
"467 497 LINE",
"462 491 OFFCURVE",
"460 485 OFFCURVE",
"462 477 CURVE SMOOTH",
"586 41 LINE SMOOTH",
"588 33 OFFCURVE",
"588 28 OFFCURVE",
"585 21 CURVE SMOOTH",
"464 -253 OFFCURVE",
"302 -380 OFFCURVE",
"-35 -306 CURVE SMOOTH",
"-44 -304 OFFCURVE",
"-50 -310 OFFCURVE",
"-53 -319 CURVE SMOOTH",
"-73 -377 LINE",
"-75 -385 OFFCURVE",
"-71 -391 OFFCURVE",
"-62 -394 CURVE SMOOTH",
"144 -463 OFFCURVE",
"288 -484 OFFCURVE",
"410 -416 CURVE SMOOTH"
);
}
);
width = 794;
},
{
anchors = (
{
name = bottom;
position = "{260, -565}";
},
{
name = top;
position = "{485, 840}";
}
);
guideLines = (
{
position = "{-844, -463}";
}
);
layerId = "C8F46AD5-0BB5-455F-A00C-91F555441CD3";
name = Bold;
paths = (
{
closed = 1;
nodes = (
"543.992 -352.3 OFFCURVE",
"663.123 -145.31 OFFCURVE",
"681.948 38.984 CURVE SMOOTH",
"694.131 161.824 OFFCURVE",
"631.699 395.438 OFFCURVE",
"586.734 586.293 CURVE SMOOTH",
"581.679 604.85 OFFCURVE",
"563.755 608.898 OFFCURVE",
"549.929 595.071 CURVE SMOOTH",
"459.89 504.032 LINE",
"459.318 503.402 LINE",
"452.018 494.642 OFFCURVE",
"449.672 485.079 OFFCURVE",
"452.299 474.575 CURVE SMOOTH",
"576.381 38.264 LINE SMOOTH",
"577.867 32.301 OFFCURVE",
"577.706 29.367 OFFCURVE",
"575.809 24.939 CURVE SMOOTH",
"444.735 -271.87 OFFCURVE",
"273.071 -363.409 OFFCURVE",
"-32.855 -296.233 CURVE SMOOTH",
"-46.276 -293.25 OFFCURVE",
"-57.481 -300.82 OFFCURVE",
"-62.487 -315.838 CURVE SMOOTH",
"-82.454 -373.74 LINE",
"-82.701 -374.575 LINE",
"-85.988 -387.723 OFFCURVE",
"-79.155 -398.822 OFFCURVE",
"-65.162 -403.487 CURVE SMOOTH",
"141.672 -472.766 OFFCURVE",
"289.909 -494.384 OFFCURVE",
"414.869 -424.735 CURVE SMOOTH"
);
}
);
width = 794;
}
);
unicode = 0631;
userData = {
com.typemytype.robofont.guides = (
{
angle = 0;
isGlobal = 0;
x = "-844";
y = "-463";
}
);
};
},
{
glyphname = "reh-ar.fina";
lastChange = "2016-01-30 17:19:08 +0000";
layers = (
{
anchors = (
{
name = bottom;
position = "{290, -565}";
},
{
name = top;
position = "{560, 745}";
}
);
guideLines = (
{
position = "{618, 606}";
}
);
layerId = "3D7C20C2-9735-4AE4-B4D3-DDFDA9BF3443";
name = Light;
paths = (
{
closed = 1;
nodes = (
"916 148 LINE SMOOTH",
"748 148 OFFCURVE",
"711 222 OFFCURVE",
"658 452 CURVE SMOOTH",
"627 585 LINE SMOOTH",
"625 594 OFFCURVE",
"618 596 OFFCURVE",
"612 591 CURVE",
"525 512 LINE",
"523 510 OFFCURVE",
"522 509 OFFCURVE",
"523 506 CURVE",
"624 88 LINE SMOOTH",
"626 79 OFFCURVE",
"624 70 OFFCURVE",
"622 64 CURVE SMOOTH",
"500 -268 OFFCURVE",
"294 -387 OFFCURVE",
"-37 -314 CURVE",
"-40 -313 OFFCURVE",
"-43 -315 OFFCURVE",
"-45 -322 CURVE",
"-65 -379 LINE",
"-66 -383 OFFCURVE",
"-65 -385 OFFCURVE",
"-59 -386 CURVE",
"164 -461 OFFCURVE",
"294 -468 OFFCURVE",
"406 -409 CURVE SMOOTH",
"538 -341 OFFCURVE",
"689 -109 OFFCURVE",
"704 111 CURVE",
"755 39 OFFCURVE",
"819 8 OFFCURVE",
"916 8 CURVE SMOOTH",
"1005 8 LINE",
"1042 55 OFFCURVE",
"1042 101 OFFCURVE",
"1005 148 CURVE"
);
},
{
closed = 1;
nodes = (
"523 506 LINE",
"523 505 LINE"
);
}
);
width = 1009;
},
{
anchors = (
{
name = bottom;
position = "{290, -565}";
},
{
name = top;
position = "{560, 745}";
}
);
layerId = "13527720-5DE3-47C6-AB0B-155DF4EF49D9";
name = Regular;
paths = (
{
closed = 1;
nodes = (
"539 -349 OFFCURVE",
"687 -126 OFFCURVE",
"710 90 CURVE",
"763 25 OFFCURVE",
"828 0 OFFCURVE",
"916 0 CURVE SMOOTH",
"1009 0 LINE",
"1051 52 OFFCURVE",
"1051 104 OFFCURVE",
"1009 156 CURVE",
"916 156 LINE SMOOTH",
"753 156 OFFCURVE",
"719 225 OFFCURVE",
"666 454 CURVE SMOOTH",
"635 587 LINE SMOOTH",
"632 601 OFFCURVE",
"618 607 OFFCURVE",
"607 597 CURVE SMOOTH",
"520 518 LINE",
"515 514 OFFCURVE",
"514 510 OFFCURVE",
"515 504 CURVE",
"616 86 LINE",
"618 79 OFFCURVE",
"616 73 OFFCURVE",
"614 67 CURVE SMOOTH",
"494 -261 OFFCURVE",
"292 -378 OFFCURVE",
"-35 -306 CURVE SMOOTH",
"-44 -304 OFFCURVE",
"-50 -310 OFFCURVE",
"-53 -319 CURVE SMOOTH",
"-73 -377 LINE",
"-75 -385 OFFCURVE",
"-71 -391 OFFCURVE",
"-62 -394 CURVE SMOOTH",
"144 -463 OFFCURVE",
"286 -481 OFFCURVE",
"410 -416 CURVE SMOOTH"
);
}
);
width = 1009;
},
{
anchors = (
{
name = bottom;
position = "{290, -565}";
},
{
name = top;
position = "{560, 745}";
}
);
guideLines = (
{
position = "{618, 606}";
}
);
layerId = "C8F46AD5-0BB5-455F-A00C-91F555441CD3";
name = Bold;
paths = (
{
closed = 1;
nodes = (
"541.46 -358.991 OFFCURVE",
"686.502 -144.687 OFFCURVE",
"717.15 66.741 CURVE",
"767.414 13.912 OFFCURVE",
"829.957 -10 OFFCURVE",
"916 -10 CURVE SMOOTH",
"1013.708 -10 LINE",
"1062.648 47.906 OFFCURVE",
"1062.648 108.094 OFFCURVE",
"1013.708 166 CURVE",
"916 166 LINE SMOOTH",
"759.221 166 OFFCURVE",
"728.482 228.382 OFFCURVE",
"675.742 456.255 CURVE SMOOTH",
"644.739 589.27 LINE SMOOTH",
"640.028 611.262 OFFCURVE",
"616.696 619.329 OFFCURVE",
"600.273 604.399 CURVE SMOOTH",
"513.278 525.403 LINE",
"513.753 525.809 LINE",
"506.375 519.906 OFFCURVE",
"503.515 512.08 OFFCURVE",
"505.136 502.356 CURVE",
"505.28 501.651 LINE",
"606.28 83.651 LINE",
"607.34 79.908 OFFCURVE",
"606.815 77.069 OFFCURVE",
"604.513 70.162 CURVE SMOOTH",
"486.128 -253.412 OFFCURVE",
"288.566 -367.004 OFFCURVE",
"-32.85 -296.234 CURVE SMOOTH",
"-46.276 -293.25 OFFCURVE",
"-57.481 -300.82 OFFCURVE",
"-62.487 -315.838 CURVE SMOOTH",
"-82.454 -373.74 LINE",
"-82.701 -374.575 LINE",
"-85.988 -387.723 OFFCURVE",
"-79.155 -398.822 OFFCURVE",
"-65.162 -403.487 CURVE SMOOTH",
"141.762 -472.796 OFFCURVE",
"287.86 -491.316 OFFCURVE",
"414.643 -424.857 CURVE SMOOTH"
);
}
);
width = 1009;
}
);
unicode = FEAE;
userData = {
com.typemytype.robofont.guides = (
{
angle = 0;
isGlobal = 0;
x = 618;
y = 606;
}
);
};
},
{
glyphname = "seen-ar";
lastChange = "2016-01-30 17:19:08 +0000";
layers = (
{
anchors = (
{
name = bottom;
position = "{614, -612}";
},
{
name = top;
position = "{582, 581}";
}
);
layerId = "3D7C20C2-9735-4AE4-B4D3-DDFDA9BF3443";
name = Light;
paths = (
{
closed = 1;
nodes = (
"2171 355 OFFCURVE",
"2143 582 OFFCURVE",
"2108 728 CURVE SMOOTH",
"2107 732 OFFCURVE",
"2106 733 OFFCURVE",
"2102 728 CURVE",
"2012 638 LINE",
"2008 633 OFFCURVE",
"2008 630 OFFCURVE",
"2009 625 CURVE SMOOTH",
"2106 187 LINE SMOOTH",
"2109 172 OFFCURVE",
"2100 158 OFFCURVE",
"2083 153 CURVE",
"1942 125 OFFCURVE",
"1821 136 OFFCURVE",
"1700 189 CURVE",
"1691 192 OFFCURVE",
"1686 201 OFFCURVE",
"1687 211 CURVE SMOOTH",
"1721 507 LINE",
"1722 512 OFFCURVE",
"1719 514 OFFCURVE",
"1714 515 CURVE",
"1654 520 LINE",
"1650 521 OFFCURVE",
"1647 518 OFFCURVE",
"1647 514 CURVE",
"1618 301 LINE SMOOTH",
"1600 168 OFFCURVE",
"1483 141 OFFCURVE",
"1344 143 CURVE SMOOTH",
"1219 145 OFFCURVE",
"1132 160 OFFCURVE",
"1117 262 CURVE SMOOTH",
"1084 494 LINE SMOOTH",
"1083 503 OFFCURVE",
"1075 506 OFFCURVE",
"1068 501 CURVE SMOOTH",
"972 430 LINE",
"970 428 OFFCURVE",
"969 427 OFFCURVE",
"970 425 CURVE",
"1063 -153 LINE",
"1065 -163 OFFCURVE",
"1059 -173 OFFCURVE",
"1050 -176 CURVE",
"997 -201 OFFCURVE",
"767 -295 OFFCURVE",
"536 -295 CURVE SMOOTH",
"314 -295 OFFCURVE",
"214 -172 OFFCURVE",
"255 54 CURVE SMOOTH",
"285 219 LINE SMOOTH",
"286 224 OFFCURVE",
"284 227 OFFCURVE",
"278 228 CURVE SMOOTH",
"214 237 LINE",
"210 238 OFFCURVE",
"207 236 OFFCURVE",
"206 231 CURVE SMOOTH",
"170 32 LINE SMOOTH",
"124 -221 OFFCURVE",
"198 -454 OFFCURVE",
"512 -454 CURVE SMOOTH",
"708 -454 OFFCURVE",
"1016 -373 OFFCURVE",
"1119 -231 CURVE SMOOTH",
"1164 -169 OFFCURVE",
"1155 -89 OFFCURVE",
"1145 33 CURVE",
"1223 -16 OFFCURVE",
"1546 -12 OFFCURVE",
"1617 94 CURVE",
"1701 40 OFFCURVE",
"1805 5 OFFCURVE",
"1887 3 CURVE SMOOTH",
"2110 -4 OFFCURVE",
"2181 59 OFFCURVE",
"2175 268 CURVE SMOOTH"
);
},
{
closed = 1;
nodes = (
"1050 -177 OFFCURVE",
"1050 -176 OFFCURVE",
"1050 -176 CURVE",
"1050 -177 LINE"
);
}
);
width = 2303;
},
{
anchors = (
{
name = bottom;
position = "{614, -612}";
},
{
name = top;
position = "{645, 620}";
}
);
layerId = "13527720-5DE3-47C6-AB0B-155DF4EF49D9";
name = Regular;
paths = (
{
closed = 1;
nodes = (
"709 -462 OFFCURVE",
"1021 -380 OFFCURVE",
"1125 -236 CURVE SMOOTH",
"1170 -174 OFFCURVE",
"1164 -95 OFFCURVE",
"1154 19 CURVE",
"1249 -23 OFFCURVE",
"1542 -15 OFFCURVE",
"1619 83 CURVE",
"1693 37 OFFCURVE",
"1796 -3 OFFCURVE",
"1887 -5 CURVE SMOOTH",
"2099 -12 OFFCURVE",
"2189 40 OFFCURVE",
"2183 268 CURVE SMOOTH",
"2179 356 OFFCURVE",
"2151 583 OFFCURVE",
"2116 730 CURVE SMOOTH",
"2113 741 OFFCURVE",
"2104 742 OFFCURVE",
"2096 734 CURVE SMOOTH",
"2006 643 LINE",
"2001 637 OFFCURVE",
"1999 631 OFFCURVE",
"2001 623 CURVE SMOOTH",
"2098 185 LINE SMOOTH",
"2101 173 OFFCURVE",
"2092 164 OFFCURVE",
"2081 161 CURVE",
"1943 133 OFFCURVE",
"1824 143 OFFCURVE",
"1703 196 CURVE SMOOTH",
"1698 198 OFFCURVE",
"1694 203 OFFCURVE",
"1695 210 CURVE SMOOTH",
"1729 506 LINE SMOOTH",
"1730 516 OFFCURVE",
"1724 522 OFFCURVE",
"1715 523 CURVE SMOOTH",
"1655 528 LINE",
"1647 529 OFFCURVE",
"1640 524 OFFCURVE",
"1639 515 CURVE SMOOTH",
"1610 302 LINE SMOOTH",
"1593 175 OFFCURVE",
"1482 149 OFFCURVE",
"1344 151 CURVE SMOOTH",
"1220 153 OFFCURVE",
"1139 167 OFFCURVE",
"1125 263 CURVE SMOOTH",
"1092 495 LINE SMOOTH",
"1090 511 OFFCURVE",
"1075 516 OFFCURVE",
"1063 507 CURVE SMOOTH",
"967 436 LINE SMOOTH",
"963 433 OFFCURVE",
"961 428 OFFCURVE",
"962 423 CURVE",
"1055 -154 LINE SMOOTH",
"1056 -160 OFFCURVE",
"1053 -167 OFFCURVE",
"1047 -169 CURVE",
"995 -193 OFFCURVE",
"766 -287 OFFCURVE",
"536 -287 CURVE SMOOTH",
"340 -287 OFFCURVE",
"219 -189 OFFCURVE",
"263 53 CURVE SMOOTH",
"293 218 LINE SMOOTH",
"295 228 OFFCURVE",
"288 235 OFFCURVE",
"279 236 CURVE SMOOTH",
"215 245 LINE SMOOTH",
"207 246 OFFCURVE",
"200 242 OFFCURVE",
"198 233 CURVE",
"162 33 LINE SMOOTH",
"116 -222 OFFCURVE",
"192 -462 OFFCURVE",
"512 -462 CURVE SMOOTH"
);
}
);
width = 2303;
},
{
anchors = (
{
name = bottom;
position = "{614, -612}";
},
{
name = top;
position = "{582, 581}";
}
);
layerId = "C8F46AD5-0BB5-455F-A00C-91F555441CD3";
name = Bold;
paths = (
{
closed = 1;
nodes = (
"710.292 -472 OFFCURVE",
"1027.008 -388.76 OFFCURVE",
"1133.107 -241.855 CURVE SMOOTH",
"1178.035 -179.953 OFFCURVE",
"1174.439 -101.912 OFFCURVE",
"1165.341 4.015 CURVE",
"1272.759 -31.189 OFFCURVE",
"1537.719 -20.523 OFFCURVE",
"1621.063 70.015 CURVE",
"1705.793 19.009 OFFCURVE",
"1806.151 -13.226 OFFCURVE",
"1886.78 -14.998 CURVE SMOOTH",
"2120.22 -22.706 OFFCURVE",
"2198.779 48.518 OFFCURVE",
"2192.997 268.263 CURVE SMOOTH",
"2188.972 356.84 OFFCURVE",
"2160.857 584.776 OFFCURVE",
"2125.728 732.316 CURVE SMOOTH",
"2120.679 750.85 OFFCURVE",
"2102.755 754.898 OFFCURVE",
"2088.929 741.071 CURVE SMOOTH",
"1998.89 650.032 LINE",
"1998.318 649.402 LINE",
"1991.018 640.642 OFFCURVE",
"1988.672 631.079 OFFCURVE",
"1991.299 620.575 CURVE SMOOTH",
"2088.237 182.838 LINE SMOOTH",
"2089.547 177.579 OFFCURVE",
"2085.876 172.695 OFFCURVE",
"2078.369 170.648 CURVE",
"2079.012 170.8 LINE",
"1941.424 142.884 OFFCURVE",
"1824.49 153.703 OFFCURVE",
"1707.012 205.16 CURVE SMOOTH",
"1705.154 205.909 OFFCURVE",
"1704.641 206.773 OFFCURVE",
"1704.899 208.586 CURVE SMOOTH",
"1738.935 504.859 LINE SMOOTH",
"1740.437 519.875 OFFCURVE",
"1731.102 531.272 OFFCURVE",
"1716.104 532.939 CURVE SMOOTH",
"1655.83 537.965 LINE",
"1642.382 539.655 OFFCURVE",
"1630.627 530.198 OFFCURVE",
"1629.061 516.104 CURVE SMOOTH",
"1600.091 303.349 LINE SMOOTH",
"1586.315 200.433 OFFCURVE",
"1509.331 158.605 OFFCURVE",
"1344.145 160.999 CURVE SMOOTH",
"1220.938 162.986 OFFCURVE",
"1147.849 175.619 OFFCURVE",
"1134.895 264.443 CURVE SMOOTH",
"1101.9 496.408 LINE SMOOTH",
"1099.034 519.35 OFFCURVE",
"1075.748 529.061 OFFCURVE",
"1057 515 CURVE SMOOTH",
"961.054 444.04 LINE SMOOTH",
"954.109 438.832 OFFCURVE",
"950.511 429.455 OFFCURVE",
"952.194 421.039 CURVE",
"1045.127 -155.591 LINE SMOOTH",
"1045.541 -158.071 OFFCURVE",
"1044.368 -159.672 OFFCURVE",
"1043.481 -159.581 CURVE",
"992.981 -183.017 OFFCURVE",
"765.021 -277 OFFCURVE",
"536 -277 CURVE SMOOTH",
"324.613 -277 OFFCURVE",
"233.759 -163.728 OFFCURVE",
"272.839 51.211 CURVE SMOOTH",
"302.839 216.211 LINE SMOOTH",
"305.853 231.274 OFFCURVE",
"295.352 244.245 OFFCURVE",
"280.104 245.939 CURVE SMOOTH",
"216.393 254.903 LINE SMOOTH",
"202.499 256.64 OFFCURVE",
"191.245 248.7 OFFCURVE",
"188.238 235.169 CURVE",
"152.158 34.772 LINE SMOOTH",
"95.307 -280.384 OFFCURVE",
"229.71 -472 OFFCURVE",
"512 -472 CURVE SMOOTH"
);
}
);
width = 2303;
}
);
unicode = 0633;
},
{
glyphname = "seen-ar.fina";
lastChange = "2016-01-30 17:19:08 +0000";
layers = (
{
anchors = (
{
name = bottom;
position = "{615, -612}";
},
{
name = top;
position = "{645, 620}";
}
);
layerId = "3D7C20C2-9735-4AE4-B4D3-DDFDA9BF3443";
name = Light;
paths = (
{
closed = 1;
nodes = (
"2426 148 LINE SMOOTH",
"2267 148 OFFCURVE",
"2234 224 OFFCURVE",
"2198 453 CURVE SMOOTH",
"2177 586 LINE SMOOTH",
"2176 593 OFFCURVE",
"2168 596 OFFCURVE",
"2162 591 CURVE SMOOTH",
"2075 522 LINE",
"2073 520 OFFCURVE",
"2072 519 OFFCURVE",
"2073 515 CURVE",
"2128 182 LINE",
"2129 168 OFFCURVE",
"2122 157 OFFCURVE",
"2110 154 CURVE",
"1956 124 OFFCURVE",
"1818 136 OFFCURVE",
"1702 191 CURVE",
"1692 195 OFFCURVE",
"1688 204 OFFCURVE",
"1689 213 CURVE SMOOTH",
"1723 507 LINE",
"1724 512 OFFCURVE",
"1721 514 OFFCURVE",
"1716 515 CURVE",
"1656 520 LINE",
"1652 521 OFFCURVE",
"1649 518 OFFCURVE",
"1649 514 CURVE",
"1620 297 LINE SMOOTH",
"1602 166 OFFCURVE",
"1495 142 OFFCURVE",
"1365 142 CURVE SMOOTH",
"1307 142 OFFCURVE",
"1244 144 OFFCURVE",
"1198 160 CURVE SMOOTH",
"1151 177 OFFCURVE",
"1126 210 OFFCURVE",
"1118 261 CURVE SMOOTH",
"1085 494 LINE SMOOTH",
"1084 503 OFFCURVE",
"1076 506 OFFCURVE",
"1069 501 CURVE SMOOTH",
"973 430 LINE",
"971 428 OFFCURVE",
"970 427 OFFCURVE",
"971 425 CURVE",
"1064 -153 LINE",
"1066 -163 OFFCURVE",
"1060 -173 OFFCURVE",
"1051 -176 CURVE",
"998 -201 OFFCURVE",
"768 -295 OFFCURVE",
"537 -295 CURVE SMOOTH",
"314 -295 OFFCURVE",
"212 -170 OFFCURVE",
"256 55 CURVE SMOOTH",
"286 210 LINE",
"287 214 OFFCURVE",
"285 217 OFFCURVE",
"279 218 CURVE SMOOTH",
"215 227 LINE",
"211 228 OFFCURVE",
"208 226 OFFCURVE",
"207 221 CURVE SMOOTH",
"171 32 LINE SMOOTH",
"123 -221 OFFCURVE",
"199 -454 OFFCURVE",
"513 -454 CURVE SMOOTH",
"709 -454 OFFCURVE",
"1017 -373 OFFCURVE",
"1120 -231 CURVE SMOOTH",
"1164 -170 OFFCURVE",
"1157 -92 OFFCURVE",
"1146 29 CURVE",
"1208 10 OFFCURVE",
"1287 0 OFFCURVE",
"1357 0 CURVE SMOOTH",
"1478 1 OFFCURVE",
"1586 37 OFFCURVE",
"1619 87 CURVE",
"1693 39 OFFCURVE",
"1798 7 OFFCURVE",
"1889 5 CURVE SMOOTH",
"2049 -1 OFFCURVE",
"2135 30 OFFCURVE",
"2172 104 CURVE",
"2182 122 OFFCURVE",
"2201 124 OFFCURVE",
"2214 108 CURVE SMOOTH",
"2266 43 OFFCURVE",
"2340 8 OFFCURVE",
"2426 8 CURVE SMOOTH",
"2492 8 LINE",
"2529 55 OFFCURVE",
"2529 101 OFFCURVE",
"2492 148 CURVE"
);
},
{
closed = 1;
nodes = (
"1051 -177 OFFCURVE",
"1051 -176 OFFCURVE",
"1051 -176 CURVE",
"1051 -177 LINE"
);
}
);
width = 2496;
},
{
anchors = (
{
name = bottom;
position = "{614, -612}";
},
{
name = top;
position = "{645, 620}";
}
);
layerId = "13527720-5DE3-47C6-AB0B-155DF4EF49D9";
name = Regular;
paths = (
{
closed = 1;
nodes = (
"710 -462 OFFCURVE",
"1022 -380 OFFCURVE",
"1126 -236 CURVE SMOOTH",
"1171 -174 OFFCURVE",
"1165 -96 OFFCURVE",
"1155 18 CURVE",
"1221 0 OFFCURVE",
"1296 -8 OFFCURVE",
"1357 -8 CURVE SMOOTH",
"1469 -7 OFFCURVE",
"1580 24 OFFCURVE",
"1621 76 CURVE",
"1695 30 OFFCURVE",
"1798 -1 OFFCURVE",
"1889 -3 CURVE SMOOTH",
"2032 -8 OFFCURVE",
"2136 14 OFFCURVE",
"2179 100 CURVE SMOOTH",
"2186 113 OFFCURVE",
"2198 115 OFFCURVE",
"2208 103 CURVE SMOOTH",
"2261 36 OFFCURVE",
"2337 0 OFFCURVE",
"2426 0 CURVE SMOOTH",
"2496 0 LINE",
"2538 52 OFFCURVE",
"2538 104 OFFCURVE",
"2496 156 CURVE",
"2426 156 LINE SMOOTH",
"2272 156 OFFCURVE",
"2242 226 OFFCURVE",
"2206 454 CURVE SMOOTH",
"2185 587 LINE SMOOTH",
"2183 601 OFFCURVE",
"2168 606 OFFCURVE",
"2157 597 CURVE SMOOTH",
"2070 528 LINE SMOOTH",
"2065 524 OFFCURVE",
"2064 520 OFFCURVE",
"2065 514 CURVE SMOOTH",
"2120 181 LINE",
"2121 172 OFFCURVE",
"2117 164 OFFCURVE",
"2108 162 CURVE SMOOTH",
"1966 134 OFFCURVE",
"1827 141 OFFCURVE",
"1705 198 CURVE SMOOTH",
"1699 201 OFFCURVE",
"1696 206 OFFCURVE",
"1697 212 CURVE",
"1731 506 LINE SMOOTH",
"1732 516 OFFCURVE",
"1726 522 OFFCURVE",
"1717 523 CURVE SMOOTH",
"1657 528 LINE",
"1649 529 OFFCURVE",
"1642 524 OFFCURVE",
"1641 515 CURVE SMOOTH",
"1612 298 LINE SMOOTH",
"1595 173 OFFCURVE",
"1494 150 OFFCURVE",
"1365 150 CURVE SMOOTH",
"1307 150 OFFCURVE",
"1246 152 OFFCURVE",
"1201 168 CURVE SMOOTH",
"1162 182 OFFCURVE",
"1134 208 OFFCURVE",
"1126 262 CURVE SMOOTH",
"1093 495 LINE SMOOTH",
"1091 511 OFFCURVE",
"1076 516 OFFCURVE",
"1064 507 CURVE SMOOTH",
"968 436 LINE SMOOTH",
"964 433 OFFCURVE",
"962 428 OFFCURVE",
"963 423 CURVE",
"1056 -154 LINE SMOOTH",
"1057 -160 OFFCURVE",
"1054 -167 OFFCURVE",
"1048 -169 CURVE",
"996 -193 OFFCURVE",
"767 -287 OFFCURVE",
"537 -287 CURVE SMOOTH",
"341 -287 OFFCURVE",
"217 -188 OFFCURVE",
"264 53 CURVE SMOOTH",
"294 208 LINE SMOOTH",
"296 218 OFFCURVE",
"289 225 OFFCURVE",
"280 226 CURVE SMOOTH",
"216 235 LINE SMOOTH",
"208 236 OFFCURVE",
"201 232 OFFCURVE",
"199 223 CURVE SMOOTH",
"163 33 LINE SMOOTH",
"115 -222 OFFCURVE",
"193 -462 OFFCURVE",
"513 -462 CURVE SMOOTH"
);
}
);
width = 2496;
},
{
anchors = (
{
name = bottom;
position = "{615, -612}";
},
{
name = top;
position = "{645, 620}";
}
);
layerId = "C8F46AD5-0BB5-455F-A00C-91F555441CD3";
name = Bold;
paths = (
{
closed = 1;
nodes = (
"711.292 -472 OFFCURVE",
"1028.008 -388.76 OFFCURVE",
"1134.107 -241.855 CURVE SMOOTH",
"1179.284 -179.611 OFFCURVE",
"1175.398 -101.973 OFFCURVE",
"1166.192 4.759 CURVE",
"1224.936 -9.792 OFFCURVE",
"1293.934 -18 OFFCURVE",
"1357 -18 CURVE SMOOTH",
"1473.729 -16.958 OFFCURVE",
"1578.439 15.091 OFFCURVE",
"1623.053 63.052 CURVE",
"1698.497 18.241 OFFCURVE",
"1799.863 -11.043 OFFCURVE",
"1888.78 -12.998 CURVE SMOOTH",
"2054.747 -18.801 OFFCURVE",
"2147.413 14.466 OFFCURVE",
"2187.944 95.528 CURVE SMOOTH",
"2191.592 102.293 OFFCURVE",
"2195.256 102.672 OFFCURVE",
"2200.318 96.598 CURVE SMOOTH",
"2255.057 27.394 OFFCURVE",
"2334.16 -10 OFFCURVE",
"2426 -10 CURVE SMOOTH",
"2500.708 -10 LINE",
"2549.648 47.906 OFFCURVE",
"2549.648 108.094 OFFCURVE",
"2500.708 166 CURVE",
"2426 166 LINE SMOOTH",
"2278.594 166 OFFCURVE",
"2251.683 228.792 OFFCURVE",
"2215.878 455.56 CURVE SMOOTH",
"2194.878 588.56 LINE SMOOTH",
"2191.809 610.047 OFFCURVE",
"2167.895 618.835 OFFCURVE",
"2150.668 604.74 CURVE SMOOTH",
"2063.786 535.835 LINE SMOOTH",
"2056.375 529.906 OFFCURVE",
"2053.515 522.08 OFFCURVE",
"2055.136 512.356 CURVE SMOOTH",
"2110.134 179.37 LINE",
"2110.061 179.896 LINE",
"2110.592 175.114 OFFCURVE",
"2108.901 172.444 OFFCURVE",
"2105.831 171.762 CURVE SMOOTH",
"1956.14 142.248 OFFCURVE",
"1821.958 154.394 OFFCURVE",
"1709.233 207.06 CURVE SMOOTH",
"1706.878 208.241 OFFCURVE",
"1706.642 209.025 OFFCURVE",
"1706.864 210.356 CURVE SMOOTH",
"1706.934 210.851 LINE",
"1740.934 504.851 LINE SMOOTH",
"1742.437 519.875 OFFCURVE",
"1733.102 531.272 OFFCURVE",
"1718.104 532.939 CURVE SMOOTH",
"1657.83 537.965 LINE",
"1644.382 539.655 OFFCURVE",
"1632.627 530.198 OFFCURVE",
"1631.061 516.104 CURVE SMOOTH",
"1602.088 299.325 LINE SMOOTH",
"1588.414 198.782 OFFCURVE",
"1520.745 160 OFFCURVE",
"1365 160 CURVE SMOOTH",
"1307.164 160 OFFCURVE",
"1247.883 161.944 OFFCURVE",
"1204.35 177.422 CURVE SMOOTH",
"1163.555 192.067 OFFCURVE",
"1142.567 218.412 OFFCURVE",
"1135.892 263.465 CURVE SMOOTH",
"1102.901 496.402 LINE SMOOTH",
"1100.034 519.35 OFFCURVE",
"1076.748 529.061 OFFCURVE",
"1058 515 CURVE SMOOTH",
"962.054 444.04 LINE SMOOTH",
"955.109 438.832 OFFCURVE",
"951.511 429.455 OFFCURVE",
"953.194 421.039 CURVE",
"1046.127 -155.591 LINE SMOOTH",
"1046.541 -158.071 OFFCURVE",
"1045.368 -159.672 OFFCURVE",
"1044.481 -159.581 CURVE",
"993.981 -183.017 OFFCURVE",
"766.021 -277 OFFCURVE",
"537 -277 CURVE SMOOTH",
"324.547 -277 OFFCURVE",
"232.262 -161.984 OFFCURVE",
"273.815 51.086 CURVE SMOOTH",
"303.818 206.1 LINE SMOOTH",
"306.853 221.274 OFFCURVE",
"296.352 234.245 OFFCURVE",
"281.104 235.939 CURVE SMOOTH",
"217.393 244.903 LINE SMOOTH",
"203.499 246.64 OFFCURVE",
"192.245 238.7 OFFCURVE",
"189.238 225.169 CURVE SMOOTH",
"153.175 34.862 LINE SMOOTH",
"94.145 -278.734 OFFCURVE",
"229.713 -472 OFFCURVE",
"513 -472 CURVE SMOOTH"
);
}
);
width = 2496;
}
);
unicode = FEB2;
},
{
glyphname = "seen-ar.medi";
lastChange = "2016-01-30 17:19:08 +0000";
layers = (
{
anchors = (
{
name = bottom;
position = "{990, -170}";
},
{
name = top;
position = "{872, 760}";
}
);
layerId = "3D7C20C2-9735-4AE4-B4D3-DDFDA9BF3443";
name = Light;
paths = (
{
closed = 1;
nodes = (
"771 3 OFFCURVE",
"872 34 OFFCURVE",
"903 82 CURVE",
"974 35 OFFCURVE",
"1079 5 OFFCURVE",
"1173 3 CURVE SMOOTH",
"1331 -3 OFFCURVE",
"1419 29 OFFCURVE",
"1456 104 CURVE",
"1466 122 OFFCURVE",
"1485 124 OFFCURVE",
"1498 108 CURVE SMOOTH",
"1550 43 OFFCURVE",
"1624 8 OFFCURVE",
"1710 8 CURVE SMOOTH",
"1766 8 LINE",
"1803 55 OFFCURVE",
"1803 101 OFFCURVE",
"1766 148 CURVE",
"1710 148 LINE SMOOTH",
"1545 148 OFFCURVE",
"1502 208 OFFCURVE",
"1482 453 CURVE SMOOTH",
"1471 586 LINE",
"1471 593 OFFCURVE",
"1462 596 OFFCURVE",
"1456 591 CURVE SMOOTH",
"1369 522 LINE",
"1367 520 OFFCURVE",
"1366 519 OFFCURVE",
"1367 515 CURVE",
"1412 182 LINE",
"1413 168 OFFCURVE",
"1406 157 OFFCURVE",
"1394 154 CURVE",
"1247 125 OFFCURVE",
"1107 134 OFFCURVE",
"986 181 CURVE",
"977 184 OFFCURVE",
"971 193 OFFCURVE",
"973 203 CURVE",
"1007 507 LINE",
"1008 512 OFFCURVE",
"1005 514 OFFCURVE",
"1000 515 CURVE",
"940 520 LINE",
"936 521 OFFCURVE",
"933 518 OFFCURVE",
"933 514 CURVE",
"904 287 LINE SMOOTH",
"887 156 OFFCURVE",
"779 139 OFFCURVE",
"649 139 CURVE SMOOTH",
"578 139 OFFCURVE",
"487 148 OFFCURVE",
"419 168 CURVE",
"410 171 OFFCURVE",
"405 179 OFFCURVE",
"405 190 CURVE SMOOTH",
"405 191 LINE",
"430 507 LINE",
"431 512 OFFCURVE",
"428 514 OFFCURVE",
"422 515 CURVE",
"363 518 LINE",
"358 518 OFFCURVE",
"355 516 OFFCURVE",
"355 512 CURVE",
"337 366 LINE SMOOTH",
"314 182 OFFCURVE",
"284 152 OFFCURVE",
"112 149 CURVE SMOOTH",
"0 149 LINE SMOOTH",
"-92 149 OFFCURVE",
"-93 8 OFFCURVE",
"0 8 CURVE SMOOTH",
"98 8 LINE SMOOTH",
"187 8 OFFCURVE",
"279 43 OFFCURVE",
"306 89 CURVE",
"367 9 OFFCURVE",
"526 2 OFFCURVE",
"641 2 CURVE SMOOTH"
);
}
);
width = 1770;
},
{
anchors = (
{
name = bottom;
position = "{990, -170}";
},
{
name = top;
position = "{872, 760}";
}
);
layerId = "13527720-5DE3-47C6-AB0B-155DF4EF49D9";
name = Regular;
paths = (
{
closed = 1;
nodes = (
"753 -5 OFFCURVE",
"864 19 OFFCURVE",
"905 71 CURVE",
"979 25 OFFCURVE",
"1082 -3 OFFCURVE",
"1173 -5 CURVE SMOOTH",
"1316 -10 OFFCURVE",
"1420 14 OFFCURVE",
"1463 100 CURVE SMOOTH",
"1470 113 OFFCURVE",
"1482 115 OFFCURVE",
"1492 103 CURVE SMOOTH",
"1545 36 OFFCURVE",
"1621 0 OFFCURVE",
"1710 0 CURVE SMOOTH",
"1770 0 LINE",
"1812 52 OFFCURVE",
"1812 104 OFFCURVE",
"1770 156 CURVE",
"1710 156 LINE SMOOTH",
"1545 156 OFFCURVE",
"1509 220 OFFCURVE",
"1490 454 CURVE SMOOTH",
"1479 587 LINE SMOOTH",
"1478 601 OFFCURVE",
"1462 606 OFFCURVE",
"1451 597 CURVE SMOOTH",
"1364 528 LINE SMOOTH",
"1359 524 OFFCURVE",
"1358 520 OFFCURVE",
"1359 514 CURVE SMOOTH",
"1404 181 LINE SMOOTH",
"1405 172 OFFCURVE",
"1401 164 OFFCURVE",
"1392 162 CURVE SMOOTH",
"1250 134 OFFCURVE",
"1111 141 OFFCURVE",
"989 188 CURVE",
"983 190 OFFCURVE",
"980 196 OFFCURVE",
"981 202 CURVE",
"1015 506 LINE SMOOTH",
"1016 516 OFFCURVE",
"1010 522 OFFCURVE",
"1001 523 CURVE SMOOTH",
"941 528 LINE",
"933 529 OFFCURVE",
"926 524 OFFCURVE",
"925 515 CURVE SMOOTH",
"896 288 LINE SMOOTH",
"880 163 OFFCURVE",
"778 147 OFFCURVE",
"649 147 CURVE SMOOTH",
"578 147 OFFCURVE",
"489 156 OFFCURVE",
"421 176 CURVE",
"415 178 OFFCURVE",
"413 184 OFFCURVE",
"413 190 CURVE",
"438 506 LINE SMOOTH",
"439 516 OFFCURVE",
"433 522 OFFCURVE",
"423 523 CURVE",
"363 526 LINE",
"355 526 OFFCURVE",
"348 522 OFFCURVE",
"347 513 CURVE SMOOTH",
"329 367 LINE SMOOTH",
"307 189 OFFCURVE",
"282 160 OFFCURVE",
"112 157 CURVE SMOOTH",
"0 157 LINE SMOOTH",
"-103 157 OFFCURVE",
"-103 0 OFFCURVE",
"0 0 CURVE SMOOTH",
"98 0 LINE SMOOTH",
"188 0 OFFCURVE",
"274 34 OFFCURVE",
"307 76 CURVE",
"374 1 OFFCURVE",
"530 -6 OFFCURVE",
"641 -6 CURVE SMOOTH"
);
}
);
width = 1770;
},
{
anchors = (
{
name = bottom;
position = "{990, -170}";
},
{
name = top;
position = "{872, 760}";
}
);
layerId = "C8F46AD5-0BB5-455F-A00C-91F555441CD3";
name = Bold;
paths = (
{
closed = 1;
nodes = (
"764.985 -14.893 OFFCURVE",
"864.417 12.825 OFFCURVE",
"907.034 58.073 CURVE",
"980.44 14.662 OFFCURVE",
"1081.219 -12.985 OFFCURVE",
"1172.78 -14.998 CURVE SMOOTH",
"1336.782 -20.733 OFFCURVE",
"1431.06 13.759 OFFCURVE",
"1471.944 95.528 CURVE SMOOTH",
"1475.592 102.293 OFFCURVE",
"1479.256 102.672 OFFCURVE",
"1484.318 96.598 CURVE SMOOTH",
"1539.057 27.394 OFFCURVE",
"1618.16 -10 OFFCURVE",
"1710 -10 CURVE SMOOTH",
"1774.708 -10 LINE",
"1823.648 47.906 OFFCURVE",
"1823.648 108.094 OFFCURVE",
"1774.708 166 CURVE",
"1710 166 LINE SMOOTH",
"1556.869 166 OFFCURVE",
"1519.273 217.048 OFFCURVE",
"1499.967 454.809 CURVE SMOOTH",
"1488.966 587.824 LINE SMOOTH",
"1487.417 609.513 OFFCURVE",
"1462.232 619.111 OFFCURVE",
"1444.668 604.74 CURVE SMOOTH",
"1357.786 535.835 LINE SMOOTH",
"1350.375 529.906 OFFCURVE",
"1347.515 522.08 OFFCURVE",
"1349.136 512.356 CURVE SMOOTH",
"1394.09 179.661 LINE SMOOTH",
"1394.592 175.114 OFFCURVE",
"1392.901 172.444 OFFCURVE",
"1389.831 171.762 CURVE SMOOTH",
"1245.666 143.338 OFFCURVE",
"1109.549 152.275 OFFCURVE",
"992.595 197.331 CURVE",
"990.735 197.963 OFFCURVE",
"990.503 198.191 OFFCURVE",
"990.864 200.356 CURVE SMOOTH",
"990.938 200.889 LINE",
"1024.938 504.889 LINE SMOOTH",
"1026.437 519.875 OFFCURVE",
"1017.102 531.272 OFFCURVE",
"1002.104 532.939 CURVE SMOOTH",
"941.83 537.965 LINE",
"928.382 539.655 OFFCURVE",
"916.627 530.198 OFFCURVE",
"915.061 516.104 CURVE SMOOTH",
"886.081 289.267 LINE SMOOTH",
"871.034 171.716 OFFCURVE",
"777.22 157 OFFCURVE",
"649 157 CURVE SMOOTH",
"578.504 157 OFFCURVE",
"490.93 165.856 OFFCURVE",
"423.822 185.594 CURVE",
"423.544 185.693 OFFCURVE",
"423 186.241 OFFCURVE",
"423 190 CURVE",
"422.969 189.211 LINE",
"447.969 505.211 LINE SMOOTH",
"449.466 520.163 OFFCURVE",
"439.802 531.37 OFFCURVE",
"423.995 532.95 CURVE",
"363.499 535.988 LINE",
"348.793 536 OFFCURVE",
"338.541 527.422 OFFCURVE",
"337.061 514.104 CURVE SMOOTH",
"319.075 368.224 LINE SMOOTH",
"297.343 192.391 OFFCURVE",
"274.03 169.861 OFFCURVE",
"111.824 166.998 CURVE SMOOTH",
"0 167 LINE SMOOTH",
"-116.354 167 OFFCURVE",
"-116.354 -10 OFFCURVE",
"0 -10 CURVE SMOOTH",
"98 -10 LINE SMOOTH",
"181.613 -10 OFFCURVE",
"266.969 19.373 OFFCURVE",
"307.359 61.237 CURVE",
"380.739 -9.306 OFFCURVE",
"533.747 -16 OFFCURVE",
"641 -16 CURVE SMOOTH"
);
}
);
width = 1770;
}
);
unicode = FEB4;
},
{
glyphname = "seen-ar.init";
lastChange = "2016-01-30 17:19:08 +0000";
layers = (
{
anchors = (
{
name = bottom;
position = "{995, -170}";
},
{
name = top;
position = "{877, 760}";
}
);
layerId = "3D7C20C2-9735-4AE4-B4D3-DDFDA9BF3443";
name = Light;
paths = (
{
closed = 1;
nodes = (
"1467 357 OFFCURVE",
"1429 581 OFFCURVE",
"1394 728 CURVE SMOOTH",
"1393 732 OFFCURVE",
"1392 733 OFFCURVE",
"1388 728 CURVE",
"1298 638 LINE",
"1294 633 OFFCURVE",
"1294 630 OFFCURVE",
"1295 625 CURVE",
"1402 189 LINE",
"1405 174 OFFCURVE",
"1396 160 OFFCURVE",
"1379 155 CURVE",
"1238 127 OFFCURVE",
"1117 138 OFFCURVE",
"996 191 CURVE",
"987 194 OFFCURVE",
"982 203 OFFCURVE",
"983 213 CURVE SMOOTH",
"1017 507 LINE",
"1018 512 OFFCURVE",
"1015 514 OFFCURVE",
"1010 515 CURVE",
"950 520 LINE",
"946 521 OFFCURVE",
"943 518 OFFCURVE",
"943 514 CURVE",
"914 298 LINE SMOOTH",
"897 168 OFFCURVE",
"789 140 OFFCURVE",
"659 140 CURVE SMOOTH",
"588 140 OFFCURVE",
"497 149 OFFCURVE",
"428 180 CURVE",
"420 182 OFFCURVE",
"415 191 OFFCURVE",
"415 201 CURVE SMOOTH",
"415 202 LINE",
"440 507 LINE",
"441 512 OFFCURVE",
"438 514 OFFCURVE",
"432 515 CURVE",
"373 518 LINE",
"368 518 OFFCURVE",
"365 516 OFFCURVE",
"365 512 CURVE",
"347 377 LINE SMOOTH",
"323 195 OFFCURVE",
"288 162 OFFCURVE",
"105 151 CURVE",
"0 149 LINE SMOOTH",
"-93 147 OFFCURVE",
"-92 8 OFFCURVE",
"0 8 CURVE SMOOTH",
"108 8 LINE SMOOTH",
"202 8 OFFCURVE",
"290 57 OFFCURVE",
"316 100 CURVE",
"377 21 OFFCURVE",
"537 3 OFFCURVE",
"651 3 CURVE SMOOTH",
"775 4 OFFCURVE",
"881 38 OFFCURVE",
"913 88 CURVE",
"988 39 OFFCURVE",
"1093 7 OFFCURVE",
"1183 5 CURVE SMOOTH",
"1406 -2 OFFCURVE",
"1477 61 OFFCURVE",
"1471 270 CURVE SMOOTH"
);
},
{
closed = 1;
nodes = (
"428 180 OFFCURVE",
"428 180 OFFCURVE",
"428 180 CURVE",
"428 179 LINE",
"428 180 LINE"
);
}
);
width = 1599;
},
{
anchors = (
{
name = bottom;
position = "{995, -170}";
},
{
name = top;
position = "{877, 760}";
}
);
layerId = "13527720-5DE3-47C6-AB0B-155DF4EF49D9";
name = Regular;
paths = (
{
closed = 1;
nodes = (
"763 -4 OFFCURVE",
"874 25 OFFCURVE",
"915 77 CURVE",
"989 31 OFFCURVE",
"1092 -1 OFFCURVE",
"1183 -3 CURVE SMOOTH",
"1395 -10 OFFCURVE",
"1485 42 OFFCURVE",
"1479 270 CURVE SMOOTH",
"1475 358 OFFCURVE",
"1437 583 OFFCURVE",
"1402 730 CURVE SMOOTH",
"1399 741 OFFCURVE",
"1390 742 OFFCURVE",
"1382 734 CURVE SMOOTH",
"1292 643 LINE",
"1287 637 OFFCURVE",
"1285 631 OFFCURVE",
"1287 623 CURVE SMOOTH",
"1394 187 LINE SMOOTH",
"1397 175 OFFCURVE",
"1388 166 OFFCURVE",
"1377 163 CURVE",
"1239 135 OFFCURVE",
"1120 145 OFFCURVE",
"999 198 CURVE SMOOTH",
"994 200 OFFCURVE",
"990 205 OFFCURVE",
"991 212 CURVE SMOOTH",
"1025 506 LINE SMOOTH",
"1026 516 OFFCURVE",
"1020 522 OFFCURVE",
"1011 523 CURVE SMOOTH",
"951 528 LINE",
"943 529 OFFCURVE",
"936 524 OFFCURVE",
"935 515 CURVE SMOOTH",
"906 299 LINE SMOOTH",
"890 174 OFFCURVE",
"788 148 OFFCURVE",
"659 148 CURVE SMOOTH",
"588 148 OFFCURVE",
"499 157 OFFCURVE",
"431 187 CURVE",
"425 189 OFFCURVE",
"423 195 OFFCURVE",
"423 201 CURVE",
"448 506 LINE SMOOTH",
"449 516 OFFCURVE",
"443 522 OFFCURVE",
"433 523 CURVE",
"373 526 LINE",
"365 526 OFFCURVE",
"358 522 OFFCURVE",
"357 513 CURVE SMOOTH",
"339 378 LINE SMOOTH",
"315 198 OFFCURVE",
"282 170 OFFCURVE",
"105 159 CURVE",
"0 157 LINE SMOOTH",
"-103 155 OFFCURVE",
"-103 0 OFFCURVE",
"0 0 CURVE SMOOTH",
"108 0 LINE SMOOTH",
"198 0 OFFCURVE",
"284 45 OFFCURVE",
"317 87 CURVE",
"384 12 OFFCURVE",
"540 -5 OFFCURVE",
"651 -5 CURVE SMOOTH"
);
}
);
width = 1599;
},
{
anchors = (
{
name = bottom;
position = "{995, -170}";
},
{
name = top;
position = "{877, 760}";
}
);
layerId = "C8F46AD5-0BB5-455F-A00C-91F555441CD3";
name = Bold;
paths = (
{
closed = 1;
nodes = (
"769.669 -13.941 OFFCURVE",
"872.995 16.881 OFFCURVE",
"917.043 64.054 CURVE",
"993.378 18.643 OFFCURVE",
"1094.884 -11.066 OFFCURVE",
"1182.78 -12.998 CURVE SMOOTH",
"1416.22 -20.706 OFFCURVE",
"1494.779 50.518 OFFCURVE",
"1488.997 270.263 CURVE SMOOTH",
"1485 358.234 OFFCURVE",
"1447.262 583.073 OFFCURVE",
"1411.728 732.316 CURVE SMOOTH",
"1406.679 750.85 OFFCURVE",
"1388.755 754.898 OFFCURVE",
"1374.929 741.071 CURVE SMOOTH",
"1284.89 650.032 LINE",
"1284.318 649.402 LINE",
"1277.018 640.642 OFFCURVE",
"1274.672 631.079 OFFCURVE",
"1277.299 620.575 CURVE SMOOTH",
"1384.288 184.617 LINE SMOOTH",
"1385.547 179.579 OFFCURVE",
"1381.876 174.695 OFFCURVE",
"1374.369 172.648 CURVE",
"1375.012 172.8 LINE",
"1237.424 144.884 OFFCURVE",
"1120.49 155.703 OFFCURVE",
"1003.012 207.16 CURVE SMOOTH",
"1001.154 207.909 OFFCURVE",
"1000.641 208.773 OFFCURVE",
"1000.899 210.586 CURVE SMOOTH",
"1034.934 504.851 LINE SMOOTH",
"1036.437 519.875 OFFCURVE",
"1027.102 531.272 OFFCURVE",
"1012.104 532.939 CURVE SMOOTH",
"951.83 537.965 LINE",
"938.382 539.655 OFFCURVE",
"926.627 530.198 OFFCURVE",
"925.061 516.104 CURVE SMOOTH",
"896.089 300.331 LINE SMOOTH",
"883.114 198.967 OFFCURVE",
"813.178 158 OFFCURVE",
"659 158 CURVE SMOOTH",
"570.845 158 OFFCURVE",
"491.082 171.423 OFFCURVE",
"435.036 196.149 CURVE",
"434.162 196.487 LINE",
"433.544 196.693 OFFCURVE",
"433 197.241 OFFCURVE",
"433 201 CURVE",
"432.967 200.183 LINE",
"457.967 505.183 LINE SMOOTH",
"459.466 520.163 OFFCURVE",
"449.802 531.37 OFFCURVE",
"433.995 532.95 CURVE",
"373.499 535.988 LINE",
"358.793 536 OFFCURVE",
"348.541 527.422 OFFCURVE",
"347.061 514.104 CURVE SMOOTH",
"329.088 379.322 LINE SMOOTH",
"305.955 205.828 OFFCURVE",
"278.12 179.778 OFFCURVE",
"104.38 168.981 CURVE",
"-0.19 166.998 LINE SMOOTH",
"-115.79 164.754 OFFCURVE",
"-116.259 -10 OFFCURVE",
"0 -10 CURVE SMOOTH",
"108 -10 LINE SMOOTH",
"185.197 -10 OFFCURVE",
"273.817 25.199 OFFCURVE",
"317.43 72.146 CURVE",
"375.866 15.686 OFFCURVE",
"495.274 -15 OFFCURVE",
"651 -15 CURVE SMOOTH"
);
}
);
width = 1599;
}
);
unicode = FEB3;
},
{
glyphname = "sad-ar";
lastChange = "2016-01-30 17:19:08 +0000";
layers = (
{
anchors = (
{
name = bottom;
position = "{605, -612}";
},
{
name = top;
position = "{636, 626}";
}
);
layerId = "3D7C20C2-9735-4AE4-B4D3-DDFDA9BF3443";
name = Light;
paths = (
{
closed = 1;
nodes = (
"1693 672 OFFCURVE",
"1505 611 OFFCURVE",
"1179 210 CURVE",
"1110 261 OFFCURVE",
"1117 359 OFFCURVE",
"1098 501 CURVE SMOOTH",
"1097 510 OFFCURVE",
"1089 513 OFFCURVE",
"1082 508 CURVE SMOOTH",
"986 437 LINE",
"984 435 OFFCURVE",
"983 434 OFFCURVE",
"984 432 CURVE",
"1065 -153 LINE",
"1067 -163 OFFCURVE",
"1061 -173 OFFCURVE",
"1052 -176 CURVE",
"980 -210 OFFCURVE",
"809 -295 OFFCURVE",
"538 -295 CURVE SMOOTH",
"310 -295 OFFCURVE",
"215 -176 OFFCURVE",
"257 54 CURVE SMOOTH",
"287 219 LINE SMOOTH",
"288 224 OFFCURVE",
"286 227 OFFCURVE",
"280 228 CURVE SMOOTH",
"216 237 LINE",
"212 238 OFFCURVE",
"209 236 OFFCURVE",
"208 231 CURVE SMOOTH",
"172 32 LINE SMOOTH",
"115 -285 OFFCURVE",
"233 -454 OFFCURVE",
"514 -454 CURVE SMOOTH",
"710 -454 OFFCURVE",
"1018 -364 OFFCURVE",
"1121 -231 CURVE SMOOTH",
"1160 -179 OFFCURVE",
"1163 -133 OFFCURVE",
"1141 89 CURVE",
"1347 -56 OFFCURVE",
"1976 -27 OFFCURVE",
"2166 157 CURVE",
"2359 375 OFFCURVE",
"2063 669 OFFCURVE",
"1847 671 CURVE SMOOTH"
);
},
{
closed = 1;
nodes = (
"1893 106 OFFCURVE",
"1506 108 OFFCURVE",
"1248 183 CURVE",
"1489 475 OFFCURVE",
"1632 535 OFFCURVE",
"1777 535 CURVE SMOOTH",
"1964 535 OFFCURVE",
"2106 357 OFFCURVE",
"2144 282 CURVE",
"2150 269 OFFCURVE",
"2147 258 OFFCURVE",
"2135 251 CURVE SMOOTH"
);
},
{
closed = 1;
nodes = (
"2166 157 LINE",
"2166 157 OFFCURVE",
"2166 157 OFFCURVE",
"2166 157 CURVE",
"2166 156 LINE"
);
},
{
closed = 1;
nodes = (
"1052 -177 OFFCURVE",
"1052 -176 OFFCURVE",
"1052 -176 CURVE",
"1052 -177 LINE"
);
}
);
width = 2356;
},
{
anchors = (
{
name = bottom;
position = "{615, -612}";
},
{
name = top;
position = "{645, 620}";
}
);
layerId = "13527720-5DE3-47C6-AB0B-155DF4EF49D9";
name = Regular;
paths = (
{
closed = 1;
nodes = (
"711 -462 OFFCURVE",
"1023 -371 OFFCURVE",
"1127 -236 CURVE SMOOTH",
"1169 -181 OFFCURVE",
"1170 -128 OFFCURVE",
"1151 73 CURVE",
"1372 -63 OFFCURVE",
"1984 -31 OFFCURVE",
"2172 151 CURVE",
"2370 375 OFFCURVE",
"2066 677 OFFCURVE",
"1847 679 CURVE SMOOTH",
"1693 680 OFFCURVE",
"1502 619 OFFCURVE",
"1178 221 CURVE",
"1119 271 OFFCURVE",
"1124 364 OFFCURVE",
"1106 502 CURVE SMOOTH",
"1104 518 OFFCURVE",
"1089 523 OFFCURVE",
"1077 514 CURVE SMOOTH",
"981 443 LINE SMOOTH",
"977 440 OFFCURVE",
"975 435 OFFCURVE",
"976 430 CURVE",
"1057 -154 LINE SMOOTH",
"1058 -160 OFFCURVE",
"1055 -167 OFFCURVE",
"1049 -169 CURVE",
"977 -203 OFFCURVE",
"808 -287 OFFCURVE",
"538 -287 CURVE SMOOTH",
"332 -287 OFFCURVE",
"221 -189 OFFCURVE",
"265 53 CURVE SMOOTH",
"295 218 LINE SMOOTH",
"297 228 OFFCURVE",
"290 235 OFFCURVE",
"281 236 CURVE SMOOTH",
"217 245 LINE SMOOTH",
"209 246 OFFCURVE",
"202 242 OFFCURVE",
"200 233 CURVE",
"164 33 LINE SMOOTH",
"118 -222 OFFCURVE",
"174 -462 OFFCURVE",
"514 -462 CURVE SMOOTH"
);
},
{
closed = 1;
nodes = (
"1497 470 OFFCURVE",
"1635 527 OFFCURVE",
"1777 527 CURVE SMOOTH",
"1960 527 OFFCURVE",
"2099 353 OFFCURVE",
"2137 278 CURVE",
"2141 269 OFFCURVE",
"2139 263 OFFCURVE",
"2131 258 CURVE SMOOTH",
"1894 116 OFFCURVE",
"1519 116 OFFCURVE",
"1262 187 CURVE"
);
}
);
width = 2356;
},
{
anchors = (
{
name = bottom;
position = "{605, -612}";
},
{
name = top;
position = "{636, 626}";
}
);
layerId = "C8F46AD5-0BB5-455F-A00C-91F555441CD3";
name = Bold;
paths = (
{
closed = 1;
nodes = (
"712.429 -472 OFFCURVE",
"1028.931 -379.687 OFFCURVE",
"1134.922 -242.103 CURVE SMOOTH",
"1177.508 -186.336 OFFCURVE",
"1179.894 -131.316 OFFCURVE",
"1162.748 54.753 CURVE",
"1399.229 -71.487 OFFCURVE",
"1992.896 -36.306 OFFCURVE",
"2178.955 143.815 CURVE",
"2179.493 144.377 LINE",
"2383.741 375.446 OFFCURVE",
"2070.161 686.962 OFFCURVE",
"1847.091 689 CURVE SMOOTH",
"1692.551 690.003 OFFCURVE",
"1498.827 628.482 OFFCURVE",
"1176.996 235.581 CURVE",
"1129.655 283.982 OFFCURVE",
"1133.175 370.978 OFFCURVE",
"1115.916 503.293 CURVE SMOOTH",
"1113.034 526.35 OFFCURVE",
"1089.748 536.061 OFFCURVE",
"1071 522 CURVE SMOOTH",
"975.054 451.04 LINE SMOOTH",
"968.109 445.832 OFFCURVE",
"964.511 436.455 OFFCURVE",
"966.194 428.039 CURVE",
"966.095 428.626 LINE",
"1047.095 -155.374 LINE SMOOTH",
"1047.546 -158.104 OFFCURVE",
"1046.336 -159.715 OFFCURVE",
"1045.442 -159.585 CURVE",
"973.73 -193.457 OFFCURVE",
"806.527 -277 OFFCURVE",
"538 -277 CURVE SMOOTH",
"321.929 -277 OFFCURVE",
"234.891 -168.501 OFFCURVE",
"274.839 51.211 CURVE SMOOTH",
"304.839 216.211 LINE SMOOTH",
"307.853 231.274 OFFCURVE",
"297.352 244.245 OFFCURVE",
"282.104 245.939 CURVE SMOOTH",
"218.393 254.903 LINE SMOOTH",
"204.499 256.64 OFFCURVE",
"193.245 248.7 OFFCURVE",
"190.238 235.169 CURVE",
"154.158 34.772 LINE SMOOTH",
"95.078 -292.739 OFFCURVE",
"221.246 -472 OFFCURVE",
"514 -472 CURVE SMOOTH"
);
},
{
closed = 1;
nodes = (
"1506.961 463.283 OFFCURVE",
"1638.998 517 OFFCURVE",
"1777 517 CURVE SMOOTH",
"1955.189 517 OFFCURVE",
"2090.545 347.562 OFFCURVE",
"2128.08 273.48 CURVE",
"2127.862 273.939 LINE",
"2129.77 269.646 OFFCURVE",
"2129.513 268.863 OFFCURVE",
"2125.7 266.48 CURVE SMOOTH",
"1895.794 128.733 OFFCURVE",
"1534.723 126.053 OFFCURVE",
"1279.703 192.6 CURVE"
);
}
);
width = 2356;
}
);
unicode = 0635;
},
{
glyphname = "sad-ar.fina";
lastChange = "2016-01-30 17:19:08 +0000";
layers = (
{
anchors = (
{
name = bottom;
position = "{609, -612}";
},
{
name = top;
position = "{591, 581}";
}
);
layerId = "3D7C20C2-9735-4AE4-B4D3-DDFDA9BF3443";
name = Light;
paths = (
{
closed = 1;
nodes = (
"2420 148 LINE SMOOTH",
"2367 148 OFFCURVE",
"2261 151 OFFCURVE",
"2188 165 CURVE SMOOTH",
"2173 168 OFFCURVE",
"2167 179 OFFCURVE",
"2171 193 CURVE",
"2242 409 OFFCURVE",
"2054 679 OFFCURVE",
"1831 681 CURVE SMOOTH",
"1686 682 OFFCURVE",
"1491 567 OFFCURVE",
"1189 208 CURVE",
"1181 197 OFFCURVE",
"1170 195 OFFCURVE",
"1159 201 CURVE SMOOTH",
"1122 222 OFFCURVE",
"1117 250 OFFCURVE",
"1083 502 CURVE SMOOTH",
"1082 511 OFFCURVE",
"1080 510 OFFCURVE",
"1077 508 CURVE",
"976 432 LINE SMOOTH",
"971 428 OFFCURVE",
"970 425 OFFCURVE",
"971 420 CURVE",
"1065 -164 LINE",
"1060 -172 LINE",
"1041 -181 OFFCURVE",
"790 -295 OFFCURVE",
"536 -295 CURVE SMOOTH",
"314 -295 OFFCURVE",
"214 -171 OFFCURVE",
"255 54 CURVE SMOOTH",
"285 220 LINE SMOOTH",
"286 225 OFFCURVE",
"284 228 OFFCURVE",
"280 228 CURVE",
"214 237 LINE SMOOTH",
"208 238 OFFCURVE",
"207 237 OFFCURVE",
"206 231 CURVE SMOOTH",
"170 32 LINE SMOOTH",
"124 -221 OFFCURVE",
"198 -454 OFFCURVE",
"512 -454 CURVE SMOOTH",
"708 -454 OFFCURVE",
"1007 -373 OFFCURVE",
"1110 -231 CURVE SMOOTH",
"1150 -174 OFFCURVE",
"1159 -128 OFFCURVE",
"1140 65 CURVE",
"1246 23 OFFCURVE",
"1393 1 OFFCURVE",
"1551 3 CURVE SMOOTH",
"1737 4 OFFCURVE",
"1964 37 OFFCURVE",
"2089 87 CURVE SMOOTH",
"2101 92 OFFCURVE",
"2110 89 OFFCURVE",
"2118 80 CURVE SMOOTH",
"2176 18 OFFCURVE",
"2270 8 OFFCURVE",
"2420 8 CURVE SMOOTH",
"2456 8 LINE",
"2493 55 OFFCURVE",
"2493 101 OFFCURVE",
"2456 148 CURVE"
);
},
{
closed = 1;
nodes = (
"1803 109 OFFCURVE",
"1494 126 OFFCURVE",
"1250 170 CURVE",
"1460 425 OFFCURVE",
"1632 543 OFFCURVE",
"1797 543 CURVE SMOOTH",
"1981 543 OFFCURVE",
"2093 314 OFFCURVE",
"2112 251 CURVE SMOOTH",
"2116 238 OFFCURVE",
"2109 227 OFFCURVE",
"2097 222 CURVE SMOOTH"
);
},
{
closed = 1;
nodes = (
"2112 250 OFFCURVE",
"2112 250 OFFCURVE",
"2112 251 CURVE",
"2111 251 LINE",
"2112 250 LINE"
);
}
);
width = 2460;
},
{
anchors = (
{
name = bottom;
position = "{615, -612}";
},
{
name = top;
position = "{645, 620}";
}
);
layerId = "13527720-5DE3-47C6-AB0B-155DF4EF49D9";
name = Regular;
paths = (
{
closed = 1;
nodes = (
"709 -462 OFFCURVE",
"1012 -380 OFFCURVE",
"1116 -236 CURVE SMOOTH",
"1157 -179 OFFCURVE",
"1167 -131 OFFCURVE",
"1149 53 CURVE",
"1259 12 OFFCURVE",
"1404 -7 OFFCURVE",
"1551 -5 CURVE SMOOTH",
"1738 -4 OFFCURVE",
"1966 29 OFFCURVE",
"2092 80 CURVE SMOOTH",
"2100 83 OFFCURVE",
"2106 82 OFFCURVE",
"2112 75 CURVE",
"2172 10 OFFCURVE",
"2270 0 OFFCURVE",
"2420 0 CURVE SMOOTH",
"2460 0 LINE",
"2502 52 OFFCURVE",
"2502 104 OFFCURVE",
"2460 156 CURVE",
"2420 156 LINE SMOOTH",
"2367 156 OFFCURVE",
"2262 159 OFFCURVE",
"2190 173 CURVE SMOOTH",
"2180 175 OFFCURVE",
"2176 181 OFFCURVE",
"2179 191 CURVE SMOOTH",
"2251 411 OFFCURVE",
"2060 687 OFFCURVE",
"1831 689 CURVE SMOOTH",
"1684 690 OFFCURVE",
"1486 573 OFFCURVE",
"1183 213 CURVE",
"1177 205 OFFCURVE",
"1170 204 OFFCURVE",
"1163 208 CURVE SMOOTH",
"1129 227 OFFCURVE",
"1125 251 OFFCURVE",
"1091 503 CURVE SMOOTH",
"1089 517 OFFCURVE",
"1081 521 OFFCURVE",
"1072 514 CURVE SMOOTH",
"971 438 LINE",
"965 433 OFFCURVE",
"962 428 OFFCURVE",
"963 419 CURVE",
"1057 -165 LINE",
"1038 -174 OFFCURVE",
"788 -287 OFFCURVE",
"536 -287 CURVE SMOOTH",
"340 -287 OFFCURVE",
"219 -188 OFFCURVE",
"263 53 CURVE SMOOTH",
"293 219 LINE",
"295 228 OFFCURVE",
"290 235 OFFCURVE",
"281 236 CURVE SMOOTH",
"215 245 LINE SMOOTH",
"206 246 OFFCURVE",
"200 243 OFFCURVE",
"198 233 CURVE SMOOTH",
"162 33 LINE SMOOTH",
"116 -222 OFFCURVE",
"192 -462 OFFCURVE",
"512 -462 CURVE SMOOTH"
);
},
{
closed = 1;
nodes = (
"1493 450 OFFCURVE",
"1656 535 OFFCURVE",
"1797 535 CURVE SMOOTH",
"1976 535 OFFCURVE",
"2086 310 OFFCURVE",
"2104 248 CURVE",
"2107 240 OFFCURVE",
"2103 233 OFFCURVE",
"2094 230 CURVE",
"1807 119 OFFCURVE",
"1506 133 OFFCURVE",
"1265 175 CURVE"
);
}
);
width = 2460;
},
{
anchors = (
{
name = bottom;
position = "{609, -612}";
},
{
name = top;
position = "{591, 581}";
}
);
layerId = "C8F46AD5-0BB5-455F-A00C-91F555441CD3";
name = Bold;
paths = (
{
closed = 1;
nodes = (
"710.329 -472 OFFCURVE",
"1018.032 -388.727 OFFCURVE",
"1124.107 -241.855 CURVE SMOOTH",
"1168.151 -180.623 OFFCURVE",
"1175.669 -124.869 OFFCURVE",
"1160.454 38.265 CURVE",
"1266.057 1.775 OFFCURVE",
"1404.184 -16.998 OFFCURVE",
"1551.136 -15 CURVE SMOOTH",
"1738.747 -13.996 OFFCURVE",
"1968.63 19.276 OFFCURVE",
"2095.752 70.731 CURVE SMOOTH",
"2100.057 72.341 OFFCURVE",
"2101.409 71.99 OFFCURVE",
"2104.407 68.492 CURVE",
"2167.219 0.436 OFFCURVE",
"2269.491 -10 OFFCURVE",
"2420 -10 CURVE SMOOTH",
"2464.708 -10 LINE",
"2513.648 47.906 OFFCURVE",
"2513.648 108.094 OFFCURVE",
"2464.708 166 CURVE",
"2420 166 LINE SMOOTH",
"2367.143 166 OFFCURVE",
"2263.105 168.973 OFFCURVE",
"2191.909 182.816 CURVE SMOOTH",
"2187.621 183.674 OFFCURVE",
"2187.384 184.146 OFFCURVE",
"2188.578 188.127 CURVE SMOOTH",
"2262.793 414.884 OFFCURVE",
"2066.229 696.946 OFFCURVE",
"1831.087 699 CURVE SMOOTH",
"1660.768 700.158 OFFCURVE",
"1449.269 544.889 OFFCURVE",
"1175.349 219.439 CURVE SMOOTH",
"1175 219 LINE SMOOTH",
"1172.224 215.299 OFFCURVE",
"1170.8 215.06 OFFCURVE",
"1167.961 216.682 CURVE SMOOTH",
"1139.377 232.657 OFFCURVE",
"1135.672 246.689 OFFCURVE",
"1100.91 504.337 CURVE SMOOTH",
"1097.87 525.62 OFFCURVE",
"1081.431 534.004 OFFCURVE",
"1065.861 521.894 CURVE SMOOTH",
"964.987 445.99 LINE",
"955.469 438.075 OFFCURVE",
"951.798 429.265 OFFCURVE",
"953.061 417.896 CURVE",
"1045.918 -159.08 LINE",
"1000.627 -179.413 OFFCURVE",
"769.136 -277 OFFCURVE",
"536 -277 CURVE SMOOTH",
"325.346 -277 OFFCURVE",
"233.642 -163.48 OFFCURVE",
"272.837 51.204 CURVE SMOOTH",
"302.841 217.222 LINE",
"305.944 231.149 OFFCURVE",
"297.252 244.256 OFFCURVE",
"282.104 245.939 CURVE SMOOTH",
"216.351 254.908 LINE SMOOTH",
"201.144 256.601 OFFCURVE",
"191.087 249.427 OFFCURVE",
"188.194 234.961 CURVE SMOOTH",
"152.158 34.772 LINE SMOOTH",
"95.307 -280.384 OFFCURVE",
"229.71 -472 OFFCURVE",
"512 -472 CURVE SMOOTH"
);
},
{
closed = 1;
nodes = (
"1504.63 444.767 OFFCURVE",
"1660.726 525 OFFCURVE",
"1797 525 CURVE SMOOTH",
"1969.758 525 OFFCURVE",
"2076.637 306.383 OFFCURVE",
"2094.397 245.212 CURVE",
"2094.637 244.489 LINE",
"2095.423 242.392 OFFCURVE",
"2094.742 240.788 OFFCURVE",
"2090.838 239.487 CURVE",
"1812.079 131.686 OFFCURVE",
"1521.151 142.375 OFFCURVE",
"1283.814 181.937 CURVE"
);
}
);
width = 2460;
}
);
unicode = FEBA;
},
{
glyphname = "sad-ar.medi";
lastChange = "2016-01-30 17:19:08 +0000";
layers = (
{
anchors = (
{
name = bottom;
position = "{847, -167}";
},
{
name = top;
position = "{998, 839}";
}
);
layerId = "3D7C20C2-9735-4AE4-B4D3-DDFDA9BF3443";
name = Light;
paths = (
{
closed = 1;
nodes = (
"1622 148 LINE SMOOTH",
"1569 148 OFFCURVE",
"1463 151 OFFCURVE",
"1390 165 CURVE SMOOTH",
"1375 168 OFFCURVE",
"1369 179 OFFCURVE",
"1373 193 CURVE",
"1444 409 OFFCURVE",
"1256 679 OFFCURVE",
"1033 681 CURVE SMOOTH",
"867 682 OFFCURVE",
"660 530 OFFCURVE",
"390 210 CURVE",
"383 201 OFFCURVE",
"372 197 OFFCURVE",
"361 202 CURVE",
"323 217 OFFCURVE",
"326 238 OFFCURVE",
"333 322 CURVE SMOOTH",
"349 508 LINE",
"350 512 OFFCURVE",
"347 515 OFFCURVE",
"343 515 CURVE SMOOTH",
"282 517 LINE SMOOTH",
"276 517 OFFCURVE",
"274 516 OFFCURVE",
"274 511 CURVE",
"248 312 LINE SMOOTH",
"232 204 OFFCURVE",
"205 148 OFFCURVE",
"40 148 CURVE SMOOTH",
"0 148 LINE SMOOTH",
"-92 148 OFFCURVE",
"-93 8 OFFCURVE",
"0 8 CURVE SMOOTH",
"40 8 LINE SMOOTH",
"141 8 OFFCURVE",
"218 39 OFFCURVE",
"267 99 CURVE",
"372 39 OFFCURVE",
"555 4 OFFCURVE",
"753 6 CURVE SMOOTH",
"941 7 OFFCURVE",
"1170 42 OFFCURVE",
"1293 103 CURVE SMOOTH",
"1303 108 OFFCURVE",
"1313 105 OFFCURVE",
"1321 95 CURVE",
"1376 34 OFFCURVE",
"1467 8 OFFCURVE",
"1622 8 CURVE SMOOTH",
"1658 8 LINE",
"1695 55 OFFCURVE",
"1695 101 OFFCURVE",
"1658 148 CURVE"
);
},
{
closed = 1;
nodes = (
"980 103 OFFCURVE",
"729 123 OFFCURVE",
"452 173 CURVE",
"660 426 OFFCURVE",
"832 543 OFFCURVE",
"999 543 CURVE SMOOTH",
"1183 543 OFFCURVE",
"1295 320 OFFCURVE",
"1314 258 CURVE SMOOTH",
"1318 245 OFFCURVE",
"1311 234 OFFCURVE",
"1299 229 CURVE SMOOTH"
);
},
{
closed = 1;
nodes = (
"1314 257 OFFCURVE",
"1314 257 OFFCURVE",
"1314 258 CURVE",
"1313 258 LINE",
"1314 257 LINE"
);
},
{
closed = 1;
nodes = (
"390 210 OFFCURVE",
"390 210 OFFCURVE",
"390 210 CURVE",
"391 210 LINE",
"390 210 LINE SMOOTH"
);
}
);
width = 1662;
},
{
anchors = (
{
name = bottom;
position = "{847, -167}";
},
{
name = top;
position = "{998, 839}";
}
);
layerId = "13527720-5DE3-47C6-AB0B-155DF4EF49D9";
name = Regular;
paths = (
{
closed = 1;
nodes = (
"942 -1 OFFCURVE",
"1172 34 OFFCURVE",
"1297 96 CURVE SMOOTH",
"1303 99 OFFCURVE",
"1309 97 OFFCURVE",
"1315 90 CURVE SMOOTH",
"1375 24 OFFCURVE",
"1472 0 OFFCURVE",
"1622 0 CURVE SMOOTH",
"1662 0 LINE",
"1704 52 OFFCURVE",
"1704 104 OFFCURVE",
"1662 156 CURVE",
"1622 156 LINE SMOOTH",
"1569 156 OFFCURVE",
"1464 159 OFFCURVE",
"1392 173 CURVE SMOOTH",
"1382 175 OFFCURVE",
"1378 181 OFFCURVE",
"1381 191 CURVE SMOOTH",
"1453 411 OFFCURVE",
"1262 687 OFFCURVE",
"1033 689 CURVE SMOOTH",
"886 690 OFFCURVE",
"688 576 OFFCURVE",
"384 215 CURVE",
"379 208 OFFCURVE",
"372 206 OFFCURVE",
"364 209 CURVE SMOOTH",
"332 222 OFFCURVE",
"334 237 OFFCURVE",
"341 321 CURVE SMOOTH",
"357 507 LINE SMOOTH",
"358 516 OFFCURVE",
"352 523 OFFCURVE",
"343 523 CURVE SMOOTH",
"282 525 LINE SMOOTH",
"273 525 OFFCURVE",
"267 522 OFFCURVE",
"266 512 CURVE SMOOTH",
"240 313 LINE SMOOTH",
"224 206 OFFCURVE",
"200 156 OFFCURVE",
"40 156 CURVE SMOOTH",
"0 156 LINE SMOOTH",
"-103 156 OFFCURVE",
"-103 0 OFFCURVE",
"0 0 CURVE SMOOTH",
"40 0 LINE SMOOTH",
"135 0 OFFCURVE",
"215 27 OFFCURVE",
"269 89 CURVE",
"381 27 OFFCURVE",
"566 -4 OFFCURVE",
"753 -2 CURVE SMOOTH"
);
},
{
closed = 1;
nodes = (
"695 453 OFFCURVE",
"858 535 OFFCURVE",
"999 535 CURVE SMOOTH",
"1178 535 OFFCURVE",
"1288 316 OFFCURVE",
"1306 255 CURVE",
"1309 247 OFFCURVE",
"1305 240 OFFCURVE",
"1296 237 CURVE",
"984 113 OFFCURVE",
"738 130 OFFCURVE",
"467 178 CURVE"
);
}
);
width = 1662;
},
{
anchors = (
{
name = bottom;
position = "{847, -167}";
},
{
name = top;
position = "{998, 839}";
}
);
layerId = "C8F46AD5-0BB5-455F-A00C-91F555441CD3";
name = Bold;
paths = (
{
closed = 1;
nodes = (
"942.783 -10.996 OFFCURVE",
"1175.046 24.348 OFFCURVE",
"1301.443 87.041 CURVE SMOOTH",
"1302.811 87.725 OFFCURVE",
"1303.725 87.788 OFFCURVE",
"1307.407 83.492 CURVE SMOOTH",
"1366.99 17.945 OFFCURVE",
"1461.727 -10 OFFCURVE",
"1622 -10 CURVE SMOOTH",
"1666.708 -10 LINE",
"1715.648 47.906 OFFCURVE",
"1715.648 108.094 OFFCURVE",
"1666.708 166 CURVE",
"1622 166 LINE SMOOTH",
"1569.143 166 OFFCURVE",
"1465.105 168.973 OFFCURVE",
"1393.909 182.816 CURVE SMOOTH",
"1389.621 183.674 OFFCURVE",
"1389.384 184.146 OFFCURVE",
"1390.578 188.127 CURVE SMOOTH",
"1464.793 414.884 OFFCURVE",
"1268.229 696.946 OFFCURVE",
"1033.087 699 CURVE SMOOTH",
"860.872 700.171 OFFCURVE",
"649.348 545.626 OFFCURVE",
"376.351 221.441 CURVE",
"375.863 220.812 LINE",
"373.472 217.466 OFFCURVE",
"371.496 216.869 OFFCURVE",
"367.511 218.363 CURVE SMOOTH",
"342.935 228.351 OFFCURVE",
"343.945 235.923 OFFCURVE",
"350.965 320.17 CURVE SMOOTH",
"366.963 506.143 LINE SMOOTH",
"368.552 520.41 OFFCURVE",
"358.105 533 OFFCURVE",
"343 533 CURVE SMOOTH",
"282.328 534.995 LINE SMOOTH",
"266.629 535 OFFCURVE",
"257.483 527.329 OFFCURVE",
"256.05 512.995 CURVE SMOOTH",
"230.084 314.296 LINE SMOOTH",
"214.333 208.969 OFFCURVE",
"193.708 166 OFFCURVE",
"40 166 CURVE SMOOTH",
"0 166 LINE SMOOTH",
"-116.354 166 OFFCURVE",
"-116.354 -10 OFFCURVE",
"0 -10 CURVE SMOOTH",
"40 -10 LINE SMOOTH",
"139.626 -10 OFFCURVE",
"217.951 19.253 OFFCURVE",
"271.166 76.461 CURVE",
"380.528 18.669 OFFCURVE",
"558.842 -14.077 OFFCURVE",
"753.107 -12 CURVE SMOOTH"
);
},
{
closed = 1;
nodes = (
"706.556 447.601 OFFCURVE",
"862.64 525 OFFCURVE",
"999 525 CURVE SMOOTH",
"1171.832 525 OFFCURVE",
"1278.662 312.311 OFFCURVE",
"1296.409 252.17 CURVE",
"1296.637 251.489 LINE",
"1297.423 249.392 OFFCURVE",
"1296.742 247.788 OFFCURVE",
"1292.838 246.487 CURVE SMOOTH",
"1292.307 246.293 LINE SMOOTH",
"988.932 125.721 OFFCURVE",
"749.47 139.295 OFFCURVE",
"485.759 184.869 CURVE"
);
}
);
width = 1662;
}
);
unicode = FEBC;
},
{
glyphname = "sad-ar.init";
lastChange = "2016-01-30 17:19:08 +0000";
layers = (
{
anchors = (
{
name = bottom;
position = "{847, -167}";
},
{
name = top;
position = "{998, 839}";
}
);
layerId = "3D7C20C2-9735-4AE4-B4D3-DDFDA9BF3443";
name = Light;
paths = (
{
closed = 1;
nodes = (
"907 682 OFFCURVE",
"711 565 OFFCURVE",
"406 201 CURVE",
"399 192 OFFCURVE",
"388 188 OFFCURVE",
"377 193 CURVE",
"323 209 OFFCURVE",
"325 222 OFFCURVE",
"333 318 CURVE SMOOTH",
"349 508 LINE",
"350 512 OFFCURVE",
"347 515 OFFCURVE",
"343 515 CURVE SMOOTH",
"282 517 LINE SMOOTH",
"276 517 OFFCURVE",
"274 516 OFFCURVE",
"274 511 CURVE",
"248 321 LINE SMOOTH",
"233 213 OFFCURVE",
"205 148 OFFCURVE",
"40 148 CURVE SMOOTH",
"0 148 LINE SMOOTH",
"-92 148 OFFCURVE",
"-93 8 OFFCURVE",
"0 8 CURVE SMOOTH",
"40 8 LINE SMOOTH",
"127 8 OFFCURVE",
"207 43 OFFCURVE",
"263 105 CURVE",
"366 37 OFFCURVE",
"529 1 OFFCURVE",
"717 3 CURVE SMOOTH",
"961 6 OFFCURVE",
"1219 52 OFFCURVE",
"1363 177 CURVE SMOOTH",
"1542 336 OFFCURVE",
"1332 679 OFFCURVE",
"1053 681 CURVE SMOOTH"
);
},
{
closed = 1;
nodes = (
"1079 128 OFFCURVE",
"695 123 OFFCURVE",
"472 169 CURVE",
"706 453 OFFCURVE",
"848 532 OFFCURVE",
"993 532 CURVE SMOOTH",
"1189 532 OFFCURVE",
"1316 366 OFFCURVE",
"1350 302 CURVE",
"1350 301 LINE",
"1356 288 OFFCURVE",
"1352 278 OFFCURVE",
"1340 271 CURVE SMOOTH"
);
},
{
closed = 1;
nodes = (
"406 201 OFFCURVE",
"406 201 OFFCURVE",
"406 201 CURVE",
"407 201 LINE",
"406 201 LINE SMOOTH"
);
}
);
width = 1557;
},
{
anchors = (
{
name = bottom;
position = "{847, -167}";
},
{
name = top;
position = "{998, 839}";
}
);
layerId = "13527720-5DE3-47C6-AB0B-155DF4EF49D9";
name = Regular;
paths = (
{
closed = 1;
nodes = (
"962 -2 OFFCURVE",
"1223 45 OFFCURVE",
"1368 171 CURVE SMOOTH",
"1554 336 OFFCURVE",
"1338 687 OFFCURVE",
"1053 689 CURVE SMOOTH",
"905 690 OFFCURVE",
"706 571 OFFCURVE",
"400 206 CURVE",
"395 199 OFFCURVE",
"388 197 OFFCURVE",
"380 200 CURVE",
"332 215 OFFCURVE",
"333 221 OFFCURVE",
"341 317 CURVE SMOOTH",
"357 507 LINE SMOOTH",
"358 516 OFFCURVE",
"352 523 OFFCURVE",
"343 523 CURVE SMOOTH",
"282 525 LINE SMOOTH",
"273 525 OFFCURVE",
"267 522 OFFCURVE",
"266 512 CURVE",
"240 322 LINE SMOOTH",
"225 215 OFFCURVE",
"200 156 OFFCURVE",
"40 156 CURVE SMOOTH",
"0 156 LINE SMOOTH",
"-103 156 OFFCURVE",
"-103 0 OFFCURVE",
"0 0 CURVE SMOOTH",
"40 0 LINE SMOOTH",
"132 0 OFFCURVE",
"210 37 OFFCURVE",
"264 95 CURVE",
"376 24 OFFCURVE",
"543 -7 OFFCURVE",
"717 -5 CURVE SMOOTH"
);
},
{
closed = 1;
nodes = (
"715 449 OFFCURVE",
"852 524 OFFCURVE",
"993 524 CURVE SMOOTH",
"1185 524 OFFCURVE",
"1309 362 OFFCURVE",
"1343 298 CURVE",
"1347 289 OFFCURVE",
"1345 283 OFFCURVE",
"1336 278 CURVE SMOOTH",
"1082 139 OFFCURVE",
"711 131 OFFCURVE",
"487 174 CURVE"
);
}
);
width = 1557;
},
{
anchors = (
{
name = bottom;
position = "{847, -167}";
},
{
name = top;
position = "{998, 839}";
}
);
layerId = "C8F46AD5-0BB5-455F-A00C-91F555441CD3";
name = Bold;
paths = (
{
closed = 1;
nodes = (
"962.954 -11.989 OFFCURVE",
"1227.481 35.646 OFFCURVE",
"1374.559 163.452 CURVE SMOOTH",
"1567.152 334.299 OFFCURVE",
"1348.326 696.928 OFFCURVE",
"1053.07 699 CURVE SMOOTH",
"882.05 700.155 OFFCURVE",
"669.509 543.039 OFFCURVE",
"392.337 212.425 CURVE",
"391.863 211.812 LINE",
"389.472 208.466 OFFCURVE",
"387.496 207.869 OFFCURVE",
"383.511 209.363 CURVE SMOOTH",
"382.983 209.545 LINE SMOOTH",
"343.296 221.947 OFFCURVE",
"342.931 219.761 OFFCURVE",
"350.965 316.17 CURVE SMOOTH",
"366.965 506.161 LINE SMOOTH",
"368.552 520.41 OFFCURVE",
"358.105 533 OFFCURVE",
"343 533 CURVE SMOOTH",
"282.328 534.995 LINE SMOOTH",
"266.629 535 OFFCURVE",
"257.483 527.329 OFFCURVE",
"256.05 512.995 CURVE",
"230.092 323.356 LINE SMOOTH",
"215.279 217.691 OFFCURVE",
"193.377 166 OFFCURVE",
"40 166 CURVE SMOOTH",
"0 166 LINE SMOOTH",
"-116.354 166 OFFCURVE",
"-116.354 -10 OFFCURVE",
"0 -10 CURVE SMOOTH",
"40 -10 LINE SMOOTH",
"127.235 -10 OFFCURVE",
"207.172 22.739 OFFCURVE",
"265.619 82.227 CURVE",
"372.472 17.318 OFFCURVE",
"532.461 -17.122 OFFCURVE",
"717.115 -15 CURVE SMOOTH"
);
},
{
closed = 1;
nodes = (
"707.558 421.802 OFFCURVE",
"843.762 514 OFFCURVE",
"993 514 CURVE SMOOTH",
"1180.061 514 OFFCURVE",
"1300.557 356.578 OFFCURVE",
"1334.169 293.308 CURVE",
"1333.862 293.939 LINE",
"1335.739 289.715 OFFCURVE",
"1335.637 289.238 OFFCURVE",
"1331.144 286.742 CURVE SMOOTH",
"1085.553 152.344 OFFCURVE",
"729.899 141.49 OFFCURVE",
"505.64 180.748 CURVE"
);
}
);
width = 1557;
}
);
unicode = FEBB;
},
{
glyphname = "tah-ar";
lastChange = "2016-01-30 17:19:08 +0000";
layers = (
{
anchors = (
{
name = bottom;
position = "{692, -170}";
},
{
name = top;
position = "{1065, 885}";
}
);
layerId = "3D7C20C2-9735-4AE4-B4D3-DDFDA9BF3443";
name = Light;
paths = (
{
closed = 1;
nodes = (
"628 -19 OFFCURVE",
"1132 -21 OFFCURVE",
"1374 215 CURVE SMOOTH",
"1554 391 OFFCURVE",
"1343 725 OFFCURVE",
"1085 726 CURVE SMOOTH",
"931 727 OFFCURVE",
"746 609 OFFCURVE",
"551 385 CURVE",
"590 478 OFFCURVE",
"596 579 OFFCURVE",
"591 734 CURVE SMOOTH",
"574 1314 LINE",
"574 1324 OFFCURVE",
"565 1330 OFFCURVE",
"556 1323 CURVE SMOOTH",
"442 1238 LINE",
"440 1236 OFFCURVE",
"439 1235 OFFCURVE",
"439 1233 CURVE",
"491 387 OFFCURVE",
"539 365 OFFCURVE",
"350 164 CURVE",
"345 160 OFFCURVE",
"340 158 OFFCURVE",
"334 158 CURVE SMOOTH",
"333 158 LINE",
"168 175 LINE",
"161 176 OFFCURVE",
"156 171 OFFCURVE",
"159 163 CURVE",
"190 33 OFFCURVE",
"220 4 OFFCURVE",
"328 -2 CURVE SMOOTH"
);
},
{
closed = 1;
nodes = (
"749 486 OFFCURVE",
"855 571 OFFCURVE",
"1010 571 CURVE SMOOTH",
"1215 571 OFFCURVE",
"1323 397 OFFCURVE",
"1349 324 CURVE",
"1352 313 OFFCURVE",
"1347 302 OFFCURVE",
"1336 298 CURVE",
"1075 167 OFFCURVE",
"739 136 OFFCURVE",
"427 152 CURVE"
);
}
);
width = 1568;
},
{
anchors = (
{
name = bottom;
position = "{692, -170}";
},
{
name = top;
position = "{1065, 885}";
}
);
layerId = "13527720-5DE3-47C6-AB0B-155DF4EF49D9";
name = Regular;
paths = (
{
closed = 1;
nodes = (
"628 -27 OFFCURVE",
"1135 -29 OFFCURVE",
"1380 209 CURVE SMOOTH",
"1564 390 OFFCURVE",
"1347 733 OFFCURVE",
"1085 734 CURVE SMOOTH",
"922 735 OFFCURVE",
"741 607 OFFCURVE",
"573 421 CURVE",
"599 505 OFFCURVE",
"603 600 OFFCURVE",
"599 734 CURVE SMOOTH",
"582 1314 LINE",
"582 1331 OFFCURVE",
"565 1340 OFFCURVE",
"551 1329 CURVE SMOOTH",
"437 1244 LINE",
"434 1242 OFFCURVE",
"431 1238 OFFCURVE",
"431 1233 CURVE",
"483 382 OFFCURVE",
"526 362 OFFCURVE",
"344 170 CURVE SMOOTH",
"341 167 OFFCURVE",
"338 166 OFFCURVE",
"334 166 CURVE",
"169 183 LINE SMOOTH",
"157 184 OFFCURVE",
"147 174 OFFCURVE",
"151 161 CURVE",
"182 31 OFFCURVE",
"214 -4 OFFCURVE",
"328 -10 CURVE SMOOTH"
);
},
{
closed = 1;
nodes = (
"757 482 OFFCURVE",
"860 563 OFFCURVE",
"1010 563 CURVE SMOOTH",
"1211 563 OFFCURVE",
"1316 394 OFFCURVE",
"1341 321 CURVE SMOOTH",
"1343 315 OFFCURVE",
"1340 308 OFFCURVE",
"1333 305 CURVE",
"1078 177 OFFCURVE",
"751 145 OFFCURVE",
"445 159 CURVE"
);
}
);
width = 1568;
},
{
anchors = (
{
name = bottom;
position = "{692, -170}";
},
{
name = top;
position = "{1065, 885}";
}
);
layerId = "C8F46AD5-0BB5-455F-A00C-91F555441CD3";
name = Bold;
paths = (
{
closed = 1;
nodes = (
"627.697 -36.999 OFFCURVE",
"1139.041 -39.016 OFFCURVE",
"1386.968 201.827 CURVE SMOOTH",
"1570.245 382.116 OFFCURVE",
"1367.635 742.921 OFFCURVE",
"1085.038 744 CURVE SMOOTH",
"940.374 744.887 OFFCURVE",
"770.497 645.636 OFFCURVE",
"593.005 457.427 CURVE",
"609.979 533.255 OFFCURVE",
"612.402 620.176 OFFCURVE",
"608.996 734.298 CURVE SMOOTH",
"591.996 1314.293 LINE",
"592 1339.364 OFFCURVE",
"565.306 1352.958 OFFCURVE",
"544.822 1336.863 CURVE SMOOTH",
"431.023 1252.017 LINE",
"431.453 1252.321 LINE",
"425.165 1248.129 OFFCURVE",
"421 1240.441 OFFCURVE",
"421 1233 CURVE SMOOTH",
"421.019 1232.39 LINE SMOOTH",
"473.382 375.445 OFFCURVE",
"509.182 358.794 OFFCURVE",
"336.742 176.88 CURVE SMOOTH",
"336.131 176.274 OFFCURVE",
"335.759 176.043 OFFCURVE",
"334.457 176.006 CURVE",
"170.025 192.947 LINE SMOOTH",
"150.309 194.592 OFFCURVE",
"135.524 177.294 OFFCURVE",
"141.442 158.059 CURVE",
"141.273 158.68 LINE",
"173.861 22.019 OFFCURVE",
"211.094 -13.861 OFFCURVE",
"327.474 -19.986 CURVE SMOOTH"
);
},
{
closed = 1;
nodes = (
"767.073 477.167 OFFCURVE",
"865.916 553 OFFCURVE",
"1010 553 CURVE SMOOTH",
"1205.44 553 OFFCURVE",
"1306.907 389.687 OFFCURVE",
"1331.539 317.76 CURVE SMOOTH",
"1331.898 316.682 OFFCURVE",
"1331.222 315.118 OFFCURVE",
"1329.061 314.191 CURVE SMOOTH",
"1328.514 313.937 LINE SMOOTH",
"1081.311 189.851 OFFCURVE",
"766.414 156.616 OFFCURVE",
"467.671 168.056 CURVE"
);
}
);
width = 1568;
}
);
unicode = 0637;
},
{
glyphname = "tah-ar.fina";
lastChange = "2016-01-30 17:19:08 +0000";
layers = (
{
anchors = (
{
name = bottom;
position = "{692, -170}";
},
{
name = top;
position = "{1065, 885}";
}
);
layerId = "3D7C20C2-9735-4AE4-B4D3-DDFDA9BF3443";
name = Light;
paths = (
{
closed = 1;
nodes = (
"561 -5 OFFCURVE",
"918 -9 OFFCURVE",
"1179 91 CURVE",
"1180 92 LINE",
"1190 94 OFFCURVE",
"1199 93 OFFCURVE",
"1205 87 CURVE SMOOTH",
"1256 33 OFFCURVE",
"1373 8 OFFCURVE",
"1562 8 CURVE SMOOTH",
"1596 8 LINE SMOOTH",
"1597 8 OFFCURVE",
"1598 8 OFFCURVE",
"1600 10 CURVE",
"1634 55 OFFCURVE",
"1634 101 OFFCURVE",
"1600 146 CURVE",
"1598 148 OFFCURVE",
"1597 148 OFFCURVE",
"1596 148 CURVE SMOOTH",
"1562 148 LINE SMOOTH",
"1505 148 OFFCURVE",
"1389 154 OFFCURVE",
"1318 167 CURVE",
"1338 183 OFFCURVE",
"1358 198 OFFCURVE",
"1374 215 CURVE",
"1554 391 OFFCURVE",
"1343 708 OFFCURVE",
"1084 726 CURVE SMOOTH",
"916 737 OFFCURVE",
"727 597 OFFCURVE",
"552 395 CURVE",
"589 488 OFFCURVE",
"597 589 OFFCURVE",
"591 744 CURVE SMOOTH",
"570 1321 LINE",
"569 1330 OFFCURVE",
"560 1335 OFFCURVE",
"553 1329 CURVE",
"437 1248 LINE",
"437 1248 OFFCURVE",
"436 1246 OFFCURVE",
"436 1245 CURVE",
"489 385 OFFCURVE",
"534 368 OFFCURVE",
"350 174 CURVE",
"345 170 OFFCURVE",
"340 168 OFFCURVE",
"334 168 CURVE SMOOTH",
"333 168 LINE",
"168 185 LINE",
"161 186 OFFCURVE",
"156 181 OFFCURVE",
"159 173 CURVE",
"190 43 OFFCURVE",
"220 14 OFFCURVE",
"328 8 CURVE SMOOTH"
);
},
{
closed = 1;
nodes = (
"749 496 OFFCURVE",
"855 581 OFFCURVE",
"1011 571 CURVE SMOOTH",
"1215 558 OFFCURVE",
"1323 396 OFFCURVE",
"1349 324 CURVE",
"1352 313 OFFCURVE",
"1347 302 OFFCURVE",
"1336 298 CURVE",
"1075 167 OFFCURVE",
"738 146 OFFCURVE",
"427 162 CURVE"
);
}
);
width = 1602;
},
{
anchors = (
{
name = bottom;
position = "{692, -170}";
},
{
name = top;
position = "{1065, 885}";
}
);
layerId = "13527720-5DE3-47C6-AB0B-155DF4EF49D9";
name = Regular;
paths = (
{
closed = 1;
nodes = (
"561 -13 OFFCURVE",
"919 -17 OFFCURVE",
"1182 84 CURVE",
"1189 86 OFFCURVE",
"1195 85 OFFCURVE",
"1199 81 CURVE SMOOTH",
"1263 15 OFFCURVE",
"1413 0 OFFCURVE",
"1562 0 CURVE SMOOTH",
"1596 0 LINE SMOOTH",
"1600 0 OFFCURVE",
"1603 2 OFFCURVE",
"1606 5 CURVE",
"1643 53 OFFCURVE",
"1643 103 OFFCURVE",
"1606 151 CURVE",
"1603 154 OFFCURVE",
"1600 156 OFFCURVE",
"1596 156 CURVE SMOOTH",
"1562 156 LINE SMOOTH",
"1510 156 OFFCURVE",
"1408 161 OFFCURVE",
"1337 172 CURVE",
"1352 184 OFFCURVE",
"1367 196 OFFCURVE",
"1380 209 CURVE SMOOTH",
"1564 390 OFFCURVE",
"1347 716 OFFCURVE",
"1085 734 CURVE SMOOTH",
"922 745 OFFCURVE",
"741 617 OFFCURVE",
"573 431 CURVE",
"599 515 OFFCURVE",
"604 610 OFFCURVE",
"599 744 CURVE SMOOTH",
"578 1321 LINE SMOOTH",
"577 1337 OFFCURVE",
"561 1345 OFFCURVE",
"548 1336 CURVE SMOOTH",
"434 1256 LINE",
"430 1254 OFFCURVE",
"428 1249 OFFCURVE",
"428 1245 CURVE",
"481 379 OFFCURVE",
"520 365 OFFCURVE",
"344 180 CURVE SMOOTH",
"341 177 OFFCURVE",
"338 176 OFFCURVE",
"334 176 CURVE",
"169 193 LINE SMOOTH",
"157 194 OFFCURVE",
"147 184 OFFCURVE",
"151 171 CURVE",
"182 41 OFFCURVE",
"214 6 OFFCURVE",
"328 0 CURVE SMOOTH"
);
},
{
closed = 1;
nodes = (
"757 492 OFFCURVE",
"860 573 OFFCURVE",
"1010 563 CURVE SMOOTH",
"1211 550 OFFCURVE",
"1316 392 OFFCURVE",
"1341 321 CURVE SMOOTH",
"1343 315 OFFCURVE",
"1340 308 OFFCURVE",
"1333 305 CURVE",
"1078 177 OFFCURVE",
"751 155 OFFCURVE",
"445 169 CURVE"
);
}
);
width = 1602;
},
{
anchors = (
{
name = bottom;
position = "{692, -170}";
},
{
name = top;
position = "{1065, 885}";
}
);
layerId = "C8F46AD5-0BB5-455F-A00C-91F555441CD3";
name = Bold;
paths = (
{
closed = 1;
nodes = (
"560.665 -22.997 OFFCURVE",
"920.8 -27.021 OFFCURVE",
"1185.585 74.665 CURVE",
"1184.747 74.385 LINE",
"1188.854 75.558 OFFCURVE",
"1190.628 75.23 OFFCURVE",
"1191.929 73.929 CURVE SMOOTH",
"1258.367 5.413 OFFCURVE",
"1412.501 -10 OFFCURVE",
"1562 -10 CURVE SMOOTH",
"1596 -10 LINE SMOOTH",
"1602.493 -10 OFFCURVE",
"1608.025 -7.282 OFFCURVE",
"1613.546 -1.589 CURVE",
"1653.731 50.195 OFFCURVE",
"1653.731 105.805 OFFCURVE",
"1613.546 157.589 CURVE",
"1608.025 163.282 OFFCURVE",
"1602.493 166 OFFCURVE",
"1596 166 CURVE SMOOTH",
"1562 166 LINE SMOOTH",
"1515.569 166 OFFCURVE",
"1429.318 169.994 OFFCURVE",
"1361.173 178.7 CURVE",
"1370.186 186.165 OFFCURVE",
"1379 193.857 OFFCURVE",
"1387.071 201.929 CURVE SMOOTH",
"1576.902 388.664 OFFCURVE",
"1352.597 725.639 OFFCURVE",
"1085.685 743.976 CURVE SMOOTH",
"942.073 753.668 OFFCURVE",
"773.266 658.533 OFFCURVE",
"593.079 467.505 CURVE",
"610.227 543.289 OFFCURVE",
"613.252 630.222 OFFCURVE",
"608.993 744.373 CURVE SMOOTH",
"587.993 1321.364 LINE SMOOTH",
"586.491 1345.461 OFFCURVE",
"561.783 1357.704 OFFCURVE",
"542.308 1344.222 CURVE SMOOTH",
"426.15 1262.708 LINE",
"421.265 1258.61 OFFCURVE",
"418 1251.722 OFFCURVE",
"418 1245 CURVE SMOOTH",
"418.019 1244.389 LINE SMOOTH",
"471.421 371.814 OFFCURVE",
"502.177 360.773 OFFCURVE",
"336.755 186.893 CURVE SMOOTH",
"336.131 186.274 OFFCURVE",
"335.759 186.043 OFFCURVE",
"334.457 186.006 CURVE",
"170.025 202.947 LINE SMOOTH",
"150.309 204.592 OFFCURVE",
"135.524 187.294 OFFCURVE",
"141.442 168.059 CURVE",
"141.273 168.68 LINE",
"173.861 32.019 OFFCURVE",
"211.094 -3.861 OFFCURVE",
"327.474 -9.986 CURVE SMOOTH"
);
},
{
closed = 1;
nodes = (
"767.06 487.154 OFFCURVE",
"865.611 562.604 OFFCURVE",
"1009.335 553.022 CURVE SMOOTH",
"1205.412 540.34 OFFCURVE",
"1306.982 387.503 OFFCURVE",
"1331.568 317.679 CURVE SMOOTH",
"1331.898 316.682 OFFCURVE",
"1331.222 315.118 OFFCURVE",
"1329.061 314.191 CURVE SMOOTH",
"1328.514 313.937 LINE SMOOTH",
"1081.441 189.917 OFFCURVE",
"766.547 166.133 OFFCURVE",
"467.655 178.039 CURVE"
);
}
);
width = 1602;
}
);
unicode = FEC2;
},
{
glyphname = "tah-ar.medi";
lastChange = "2016-01-30 17:19:08 +0000";
layers = (
{
anchors = (
{
name = bottom;
position = "{600, -150}";
},
{
name = top;
position = "{954, 884}";
}
);
layerId = "3D7C20C2-9735-4AE4-B4D3-DDFDA9BF3443";
name = Light;
paths = (
{
closed = 1;
nodes = (
"556 4 OFFCURVE",
"839 9 OFFCURVE",
"1056 90 CURVE",
"1065 93 OFFCURVE",
"1073 91 OFFCURVE",
"1080 85 CURVE",
"1132 32 OFFCURVE",
"1246 8 OFFCURVE",
"1436 8 CURVE SMOOTH",
"1472 8 LINE",
"1509 55 OFFCURVE",
"1509 101 OFFCURVE",
"1472 148 CURVE",
"1436 148 LINE SMOOTH",
"1382 148 OFFCURVE",
"1274 154 OFFCURVE",
"1203 166 CURVE",
"1225 182 OFFCURVE",
"1244 197 OFFCURVE",
"1262 215 CURVE SMOOTH",
"1442 391 OFFCURVE",
"1231 725 OFFCURVE",
"973 726 CURVE SMOOTH",
"819 727 OFFCURVE",
"634 609 OFFCURVE",
"439 385 CURVE",
"478 478 OFFCURVE",
"484 579 OFFCURVE",
"479 734 CURVE SMOOTH",
"462 1317 LINE",
"462 1327 OFFCURVE",
"453 1332 OFFCURVE",
"445 1325 CURVE",
"338 1246 LINE",
"336 1244 OFFCURVE",
"335 1243 OFFCURVE",
"335 1241 CURVE",
"368 403 OFFCURVE",
"420 369 OFFCURVE",
"216 154 CURVE",
"211 150 OFFCURVE",
"207 148 OFFCURVE",
"201 148 CURVE SMOOTH",
"0 148 LINE SMOOTH",
"-92 148 OFFCURVE",
"-93 8 OFFCURVE",
"0 8 CURVE SMOOTH",
"320 7 LINE SMOOTH"
);
},
{
closed = 1;
nodes = (
"637 486 OFFCURVE",
"743 571 OFFCURVE",
"898 571 CURVE SMOOTH",
"1103 571 OFFCURVE",
"1211 397 OFFCURVE",
"1237 324 CURVE",
"1240 313 OFFCURVE",
"1235 302 OFFCURVE",
"1224 298 CURVE",
"936 155 OFFCURVE",
"626 157 OFFCURVE",
"314 151 CURVE"
);
}
);
width = 1476;
},
{
anchors = (
{
name = bottom;
position = "{600, -150}";
},
{
name = top;
position = "{954, 884}";
}
);
layerId = "13527720-5DE3-47C6-AB0B-155DF4EF49D9";
name = Regular;
paths = (
{
closed = 1;
nodes = (
"556 -4 OFFCURVE",
"841 1 OFFCURVE",
"1059 83 CURVE",
"1065 85 OFFCURVE",
"1070 83 OFFCURVE",
"1074 79 CURVE SMOOTH",
"1139 14 OFFCURVE",
"1287 0 OFFCURVE",
"1436 0 CURVE SMOOTH",
"1476 0 LINE",
"1518 52 OFFCURVE",
"1518 104 OFFCURVE",
"1476 156 CURVE",
"1436 156 LINE SMOOTH",
"1387 156 OFFCURVE",
"1293 161 OFFCURVE",
"1223 171 CURVE",
"1239 183 OFFCURVE",
"1254 195 OFFCURVE",
"1268 209 CURVE SMOOTH",
"1452 390 OFFCURVE",
"1235 733 OFFCURVE",
"973 734 CURVE SMOOTH",
"810 735 OFFCURVE",
"629 607 OFFCURVE",
"461 421 CURVE",
"487 505 OFFCURVE",
"491 600 OFFCURVE",
"487 734 CURVE SMOOTH",
"470 1317 LINE",
"470 1333 OFFCURVE",
"454 1342 OFFCURVE",
"440 1332 CURVE SMOOTH",
"333 1252 LINE SMOOTH",
"329 1249 OFFCURVE",
"327 1245 OFFCURVE",
"327 1241 CURVE",
"360 399 OFFCURVE",
"408 368 OFFCURVE",
"210 160 CURVE SMOOTH",
"207 157 OFFCURVE",
"204 156 OFFCURVE",
"201 156 CURVE SMOOTH",
"0 156 LINE SMOOTH",
"-103 156 OFFCURVE",
"-103 0 OFFCURVE",
"0 0 CURVE SMOOTH",
"320 -1 LINE SMOOTH"
);
},
{
closed = 1;
nodes = (
"645 482 OFFCURVE",
"748 563 OFFCURVE",
"898 563 CURVE SMOOTH",
"1099 563 OFFCURVE",
"1204 394 OFFCURVE",
"1229 321 CURVE SMOOTH",
"1231 315 OFFCURVE",
"1228 308 OFFCURVE",
"1221 305 CURVE",
"940 166 OFFCURVE",
"639 165 OFFCURVE",
"333 159 CURVE"
);
}
);
width = 1476;
},
{
anchors = (
{
name = bottom;
position = "{600, -150}";
},
{
name = top;
position = "{954, 884}";
}
);
layerId = "C8F46AD5-0BB5-455F-A00C-91F555441CD3";
name = Bold;
paths = (
{
closed = 1;
nodes = (
"556.024 -14.001 OFFCURVE",
"842.903 -8.968 OFFCURVE",
"1062.521 73.64 CURVE",
"1064.077 74.151 OFFCURVE",
"1064.863 73.995 OFFCURVE",
"1066.929 71.929 CURVE SMOOTH",
"1134.474 4.383 OFFCURVE",
"1286.528 -10 OFFCURVE",
"1436 -10 CURVE SMOOTH",
"1480.708 -10 LINE",
"1529.648 47.906 OFFCURVE",
"1529.648 108.094 OFFCURVE",
"1480.708 166 CURVE",
"1436 166 LINE SMOOTH",
"1392.611 166 OFFCURVE",
"1313.905 169.933 OFFCURVE",
"1248.071 177.809 CURVE",
"1257.403 185.379 OFFCURVE",
"1266.446 193.304 OFFCURVE",
"1275.071 201.929 CURVE SMOOTH",
"1458.245 382.116 OFFCURVE",
"1255.635 742.921 OFFCURVE",
"973.038 744 CURVE SMOOTH",
"828.374 744.887 OFFCURVE",
"658.497 645.636 OFFCURVE",
"481.005 457.427 CURVE",
"497.979 533.255 OFFCURVE",
"500.402 620.176 OFFCURVE",
"496.996 734.298 CURVE SMOOTH",
"479.996 1317.291 LINE",
"480 1341.33 OFFCURVE",
"454.667 1354.766 OFFCURVE",
"434.188 1340.137 CURVE SMOOTH",
"327.012 1260.009 LINE SMOOTH",
"320.762 1255.322 OFFCURVE",
"317 1248.226 OFFCURVE",
"317 1241 CURVE",
"350.211 393.418 OFFCURVE",
"392.432 366.15 OFFCURVE",
"202.757 166.895 CURVE SMOOTH",
"201.87 166.013 OFFCURVE",
"201.562 166 OFFCURVE",
"201 166 CURVE SMOOTH",
"0 166 LINE SMOOTH",
"-116.354 166 OFFCURVE",
"-116.354 -10 OFFCURVE",
"0 -10 CURVE SMOOTH",
"319.969 -11 LINE SMOOTH"
);
},
{
closed = 1;
nodes = (
"655.374 477.398 OFFCURVE",
"754.135 553 OFFCURVE",
"898 553 CURVE SMOOTH",
"1093.44 553 OFFCURVE",
"1194.907 389.687 OFFCURVE",
"1219.539 317.76 CURVE SMOOTH",
"1219.898 316.682 OFFCURVE",
"1219.222 315.118 OFFCURVE",
"1217.061 314.191 CURVE SMOOTH",
"1216.566 313.963 LINE SMOOTH",
"945.012 179.636 OFFCURVE",
"654.651 175.148 OFFCURVE",
"357.037 169.466 CURVE"
);
}
);
width = 1476;
}
);
unicode = FEC4;
},
{
glyphname = "tah-ar.init";
lastChange = "2016-01-30 17:19:08 +0000";
layers = (
{
anchors = (
{
name = bottom;
position = "{600, -150}";
},
{
name = top;
position = "{954, 884}";
}
);
layerId = "3D7C20C2-9735-4AE4-B4D3-DDFDA9BF3443";
name = Light;
paths = (
{
closed = 1;
nodes = (
"320 8 LINE SMOOTH",
"643 8 OFFCURVE",
"1055 13 OFFCURVE",
"1262 215 CURVE SMOOTH",
"1442 391 OFFCURVE",
"1231 725 OFFCURVE",
"973 726 CURVE SMOOTH",
"819 727 OFFCURVE",
"634 609 OFFCURVE",
"439 385 CURVE",
"478 478 OFFCURVE",
"484 579 OFFCURVE",
"479 734 CURVE SMOOTH",
"462 1317 LINE",
"462 1327 OFFCURVE",
"453 1332 OFFCURVE",
"445 1325 CURVE",
"341 1251 LINE",
"339 1249 OFFCURVE",
"338 1248 OFFCURVE",
"338 1246 CURVE SMOOTH",
"366 396 OFFCURVE",
"406 356 OFFCURVE",
"216 155 CURVE SMOOTH",
"211 150 OFFCURVE",
"207 148 OFFCURVE",
"201 148 CURVE SMOOTH",
"0 148 LINE SMOOTH",
"-92 148 OFFCURVE",
"-93 8 OFFCURVE",
"0 8 CURVE SMOOTH"
);
},
{
closed = 1;
nodes = (
"637 486 OFFCURVE",
"743 571 OFFCURVE",
"898 571 CURVE SMOOTH",
"1103 571 OFFCURVE",
"1211 397 OFFCURVE",
"1237 324 CURVE",
"1240 313 OFFCURVE",
"1235 302 OFFCURVE",
"1224 298 CURVE",
"936 155 OFFCURVE",
"626 157 OFFCURVE",
"314 151 CURVE"
);
}
);
width = 1456;
},
{
anchors = (
{
name = bottom;
position = "{600, -150}";
},
{
name = top;
position = "{954, 884}";
}
);
layerId = "13527720-5DE3-47C6-AB0B-155DF4EF49D9";
name = Regular;
paths = (
{
closed = 1;
nodes = (
"320 0 LINE SMOOTH",
"643 0 OFFCURVE",
"1058 5 OFFCURVE",
"1268 209 CURVE SMOOTH",
"1452 390 OFFCURVE",
"1235 733 OFFCURVE",
"973 734 CURVE SMOOTH",
"810 735 OFFCURVE",
"629 607 OFFCURVE",
"461 421 CURVE",
"487 505 OFFCURVE",
"491 600 OFFCURVE",
"487 734 CURVE SMOOTH",
"470 1317 LINE",
"470 1333 OFFCURVE",
"454 1342 OFFCURVE",
"440 1332 CURVE SMOOTH",
"336 1257 LINE SMOOTH",
"332 1254 OFFCURVE",
"330 1250 OFFCURVE",
"330 1246 CURVE SMOOTH",
"358 393 OFFCURVE",
"395 356 OFFCURVE",
"210 160 CURVE SMOOTH",
"207 157 OFFCURVE",
"204 156 OFFCURVE",
"201 156 CURVE SMOOTH",
"0 156 LINE SMOOTH",
"-103 156 OFFCURVE",
"-103 0 OFFCURVE",
"0 0 CURVE SMOOTH"
);
},
{
closed = 1;
nodes = (
"645 482 OFFCURVE",
"748 563 OFFCURVE",
"898 563 CURVE SMOOTH",
"1099 563 OFFCURVE",
"1204 394 OFFCURVE",
"1229 321 CURVE SMOOTH",
"1231 315 OFFCURVE",
"1228 308 OFFCURVE",
"1221 305 CURVE",
"940 166 OFFCURVE",
"639 165 OFFCURVE",
"333 159 CURVE"
);
}
);
width = 1456;
},
{
anchors = (
{
name = bottom;
position = "{600, -150}";
},
{
name = top;
position = "{954, 884}";
}
);
layerId = "C8F46AD5-0BB5-455F-A00C-91F555441CD3";
name = Bold;
paths = (
{
closed = 1;
nodes = (
"320 -10 LINE SMOOTH",
"643.06 -10 OFFCURVE",
"1062.108 -4.951 OFFCURVE",
"1274.968 201.827 CURVE SMOOTH",
"1458.245 382.116 OFFCURVE",
"1255.635 742.921 OFFCURVE",
"973.038 744 CURVE SMOOTH",
"828.374 744.887 OFFCURVE",
"658.497 645.636 OFFCURVE",
"481.005 457.427 CURVE",
"497.979 533.255 OFFCURVE",
"500.402 620.176 OFFCURVE",
"496.996 734.298 CURVE SMOOTH",
"479.996 1317.291 LINE",
"480 1341.33 OFFCURVE",
"454.667 1354.766 OFFCURVE",
"434.188 1340.137 CURVE SMOOTH",
"330.151 1265.111 LINE SMOOTH",
"323.762 1260.322 OFFCURVE",
"320 1253.226 OFFCURVE",
"320 1246 CURVE SMOOTH",
"348.135 388.723 OFFCURVE",
"381.059 355.799 OFFCURVE",
"202.728 166.864 CURVE SMOOTH",
"201.87 166.013 OFFCURVE",
"201.562 166 OFFCURVE",
"201 166 CURVE SMOOTH",
"0 166 LINE SMOOTH",
"-116.354 166 OFFCURVE",
"-116.354 -10 OFFCURVE",
"0 -10 CURVE SMOOTH"
);
},
{
closed = 1;
nodes = (
"655.374 477.398 OFFCURVE",
"754.135 553 OFFCURVE",
"898 553 CURVE SMOOTH",
"1093.44 553 OFFCURVE",
"1194.907 389.687 OFFCURVE",
"1219.539 317.76 CURVE SMOOTH",
"1219.898 316.682 OFFCURVE",
"1219.222 315.118 OFFCURVE",
"1217.061 314.191 CURVE SMOOTH",
"1216.566 313.963 LINE SMOOTH",
"945.012 179.636 OFFCURVE",
"654.651 175.148 OFFCURVE",
"357.037 169.466 CURVE"
);
}
);
width = 1456;
}
);
unicode = FEC3;
},
{
glyphname = "ain-ar";
lastChange = "2016-01-30 17:19:08 +0000";
layers = (
{
anchors = (
{
name = bottom;
position = "{742, -783}";
},
{
name = top;
position = "{515, 1200}";
}
);
layerId = "3D7C20C2-9735-4AE4-B4D3-DDFDA9BF3443";
name = Light;
paths = (
{
closed = 1;
nodes = (
"927 -468 OFFCURVE",
"388 -518 OFFCURVE",
"304 -183 CURVE",
"304 -182 LINE",
"297 -144 OFFCURVE",
"296 -127 OFFCURVE",
"300 -95 CURVE SMOOTH",
"332 148 OFFCURVE",
"563 334 OFFCURVE",
"973 453 CURVE",
"978 454 OFFCURVE",
"979 457 OFFCURVE",
"980 463 CURVE",
"992 599 LINE",
"992 604 OFFCURVE",
"991 605 OFFCURVE",
"985 603 CURVE SMOOTH",
"822 554 OFFCURVE",
"706 501 OFFCURVE",
"559 431 CURVE SMOOTH",
"521 412 OFFCURVE",
"492 415 OFFCURVE",
"467 439 CURVE",
"342 541 OFFCURVE",
"269 653 OFFCURVE",
"255 765 CURVE",
"255 766 LINE SMOOTH",
"255 777 OFFCURVE",
"257 782 OFFCURVE",
"264 790 CURVE",
"264 791 LINE",
"388 909 OFFCURVE",
"549 932 OFFCURVE",
"763 863 CURVE",
"768 861 OFFCURVE",
"771 863 OFFCURVE",
"770 866 CURVE",
"742 976 LINE SMOOTH",
"740 985 OFFCURVE",
"741 985 OFFCURVE",
"736 988 CURVE",
"471 1118 OFFCURVE",
"147 989 OFFCURVE",
"158 712 CURVE SMOOTH",
"168 577 OFFCURVE",
"243 456 OFFCURVE",
"402 315 CURVE",
"287 183 OFFCURVE",
"222 25 OFFCURVE",
"219 -135 CURVE SMOOTH",
"215 -470 OFFCURVE",
"397 -631 OFFCURVE",
"772 -625 CURVE SMOOTH",
"886 -623 OFFCURVE",
"1059 -599 OFFCURVE",
"1190 -569 CURVE SMOOTH",
"1199 -567 OFFCURVE",
"1202 -562 OFFCURVE",
"1208 -539 CURVE SMOOTH",
"1236 -430 LINE",
"1238 -425 OFFCURVE",
"1238 -424 OFFCURVE",
"1231 -425 CURVE SMOOTH"
);
},
{
closed = 1;
nodes = (
"974 453 OFFCURVE",
"974 453 OFFCURVE",
"973 453 CURVE",
"973 452 LINE",
"974 453 LINE"
);
},
{
closed = 1;
nodes = (
"467 439 OFFCURVE",
"467 439 OFFCURVE",
"467 439 CURVE SMOOTH",
"466 439 LINE"
);
}
);
width = 1121;
},
{
anchors = (
{
name = bottom;
position = "{742, -783}";
},
{
name = top;
position = "{515, 1200}";
}
);
layerId = "13527720-5DE3-47C6-AB0B-155DF4EF49D9";
name = Regular;
paths = (
{
closed = 1;
nodes = (
"887 -631 OFFCURVE",
"1060 -607 OFFCURVE",
"1192 -577 CURVE",
"1206 -573 OFFCURVE",
"1210 -563 OFFCURVE",
"1216 -541 CURVE SMOOTH",
"1244 -432 LINE SMOOTH",
"1247 -421 OFFCURVE",
"1242 -415 OFFCURVE",
"1230 -417 CURVE SMOOTH",
"926 -460 OFFCURVE",
"394 -509 OFFCURVE",
"312 -181 CURVE",
"305 -143 OFFCURVE",
"304 -127 OFFCURVE",
"308 -96 CURVE SMOOTH",
"347 203 OFFCURVE",
"685 361 OFFCURVE",
"976 445 CURVE",
"984 448 OFFCURVE",
"987 454 OFFCURVE",
"988 462 CURVE",
"1000 598 LINE SMOOTH",
"1001 610 OFFCURVE",
"993 614 OFFCURVE",
"983 611 CURVE SMOOTH",
"819 561 OFFCURVE",
"703 508 OFFCURVE",
"556 438 CURVE SMOOTH",
"525 423 OFFCURVE",
"498 420 OFFCURVE",
"472 445 CURVE",
"363 534 OFFCURVE",
"278 644 OFFCURVE",
"263 766 CURVE",
"263 774 OFFCURVE",
"264 778 OFFCURVE",
"270 785 CURVE",
"389 899 OFFCURVE",
"545 925 OFFCURVE",
"761 855 CURVE SMOOTH",
"771 852 OFFCURVE",
"781 858 OFFCURVE",
"778 868 CURVE",
"750 978 LINE SMOOTH",
"748 987 OFFCURVE",
"748 991 OFFCURVE",
"739 995 CURVE",
"471 1127 OFFCURVE",
"139 994 OFFCURVE",
"150 712 CURVE",
"161 566 OFFCURVE",
"246 444 OFFCURVE",
"391 314 CURVE",
"284 190 OFFCURVE",
"214 33 OFFCURVE",
"211 -135 CURVE SMOOTH",
"206 -528 OFFCURVE",
"457 -638 OFFCURVE",
"772 -633 CURVE SMOOTH"
);
}
);
width = 1121;
},
{
anchors = (
{
name = bottom;
position = "{742, -783}";
},
{
name = top;
position = "{515, 1200}";
}
);
layerId = "C8F46AD5-0BB5-455F-A00C-91F555441CD3";
name = Bold;
paths = (
{
closed = 1;
nodes = (
"887.777 -640.988 OFFCURVE",
"1061.798 -616.846 OFFCURVE",
"1194.216 -586.751 CURVE SMOOTH",
"1194.747 -586.615 LINE SMOOTH",
"1211.071 -581.951 OFFCURVE",
"1217.853 -572.211 OFFCURVE",
"1225.648 -543.631 CURVE SMOOTH",
"1253.686 -434.488 LINE SMOOTH",
"1258.697 -416.119 OFFCURVE",
"1247.476 -403.949 OFFCURVE",
"1228.356 -407.136 CURVE SMOOTH",
"924.84 -450.064 OFFCURVE",
"401.622 -498.256 OFFCURVE",
"321.701 -178.575 CURVE",
"321.835 -179.188 LINE",
"314.919 -141.649 OFFCURVE",
"314.118 -126.731 OFFCURVE",
"317.918 -97.28 CURVE SMOOTH",
"348.569 137.71 OFFCURVE",
"575.615 319.017 OFFCURVE",
"978.773 435.392 CURVE",
"979.511 435.637 LINE",
"990.033 439.582 OFFCURVE",
"996.364 448.29 OFFCURVE",
"997.923 460.76 CURVE",
"1009.961 597.121 LINE SMOOTH",
"1011.471 615.241 OFFCURVE",
"997.843 625.893 OFFCURVE",
"980.127 620.578 CURVE SMOOTH",
"815.448 570.372 OFFCURVE",
"698.772 517.063 OFFCURVE",
"551.701 447.029 CURVE SMOOTH",
"519.39 431.394 OFFCURVE",
"498.959 432.951 OFFCURVE",
"478.931 452.208 CURVE",
"478.325 452.746 LINE",
"357.207 551.64 OFFCURVE",
"286.32 659.677 OFFCURVE",
"272.994 766.74 CURVE",
"273.056 772.333 OFFCURVE",
"273.775 774.038 OFFCURVE",
"277.593 778.492 CURVE",
"276.918 777.779 LINE",
"395.598 891.472 OFFCURVE",
"549.06 913.172 OFFCURVE",
"757.917 845.487 CURVE SMOOTH",
"776.625 839.872 OFFCURVE",
"792.754 853.622 OFFCURVE",
"787.578 870.873 CURVE",
"759.691 980.467 LINE SMOOTH",
"758 988.098 OFFCURVE",
"758 997.499 OFFCURVE",
"743.061 1004.138 CURVE",
"455.497 1145.783 OFFCURVE",
"129.179 989.213 OFFCURVE",
"140.008 711.61 CURVE",
"150.293 575.011 OFFCURVE",
"222.995 452.946 OFFCURVE",
"377.081 313.088 CURVE",
"265.907 181.127 OFFCURVE",
"203.827 23.421 OFFCURVE",
"201.002 -134.821 CURVE SMOOTH",
"196.605 -480.355 OFFCURVE",
"386.74 -649.117 OFFCURVE",
"772.159 -642.999 CURVE SMOOTH"
);
}
);
width = 1121;
}
);
unicode = 0639;
},
{
glyphname = "ain-ar.fina";
lastChange = "2016-01-30 17:19:08 +0000";
layers = (
{
anchors = (
{
name = bottom;
position = "{694, -785}";
},
{
name = top;
position = "{625, 1121}";
}
);
layerId = "3D7C20C2-9735-4AE4-B4D3-DDFDA9BF3443";
name = Light;
paths = (
{
closed = 1;
nodes = (
"802 -475 OFFCURVE",
"330 -518 OFFCURVE",
"246 -183 CURVE",
"246 -182 LINE",
"239 -144 OFFCURVE",
"238 -127 OFFCURVE",
"242 -95 CURVE SMOOTH",
"263 56 OFFCURVE",
"393 202 OFFCURVE",
"539 294 CURVE",
"550 302 OFFCURVE",
"561 300 OFFCURVE",
"571 288 CURVE SMOOTH",
"807 17 OFFCURVE",
"960 8 OFFCURVE",
"1109 8 CURVE SMOOTH",
"1128 8 LINE",
"1165 55 OFFCURVE",
"1165 101 OFFCURVE",
"1128 148 CURVE",
"1104 148 LINE SMOOTH",
"884 148 OFFCURVE",
"775 247 OFFCURVE",
"668 359 CURVE SMOOTH",
"657 370 OFFCURVE",
"658 383 OFFCURVE",
"671 392 CURVE SMOOTH",
"804 481 OFFCURVE",
"1007 572 OFFCURVE",
"1016 707 CURVE SMOOTH",
"1029 876 OFFCURVE",
"810 960 OFFCURVE",
"623 959 CURVE SMOOTH",
"495 958 OFFCURVE",
"333 907 OFFCURVE",
"240 866 CURVE",
"237 864 OFFCURVE",
"234 862 OFFCURVE",
"231 855 CURVE SMOOTH",
"159 676 LINE",
"158 672 OFFCURVE",
"158 671 OFFCURVE",
"164 667 CURVE SMOOTH",
"278 588 OFFCURVE",
"371 514 OFFCURVE",
"463 428 CURVE SMOOTH",
"475 416 OFFCURVE",
"474 404 OFFCURVE",
"462 395 CURVE SMOOTH",
"345 305 OFFCURVE",
"168 120 OFFCURVE",
"161 -135 CURVE SMOOTH",
"152 -469 OFFCURVE",
"335 -631 OFFCURVE",
"714 -625 CURVE SMOOTH",
"828 -623 OFFCURVE",
"1001 -599 OFFCURVE",
"1132 -569 CURVE SMOOTH",
"1141 -567 OFFCURVE",
"1144 -562 OFFCURVE",
"1150 -539 CURVE SMOOTH",
"1178 -430 LINE",
"1180 -425 OFFCURVE",
"1180 -424 OFFCURVE",
"1173 -425 CURVE SMOOTH"
);
},
{
closed = 1;
nodes = (
"290 752 LINE",
"311 761 LINE",
"489 829 OFFCURVE",
"782 872 OFFCURVE",
"926 705 CURVE SMOOTH",
"936 693 OFFCURVE",
"933 679 OFFCURVE",
"920 672 CURVE SMOOTH",
"595 488 LINE",
"583 482 OFFCURVE",
"572 484 OFFCURVE",
"564 494 CURVE",
"427 633 OFFCURVE",
"306 727 OFFCURVE",
"290 738 CURVE"
);
},
{
closed = 1;
nodes = (
"564 494 OFFCURVE",
"564 494 OFFCURVE",
"564 494 CURVE",
"564 493 LINE",
"564 494 LINE"
);
},
{
closed = 1;
nodes = (
"540 294 OFFCURVE",
"540 294 OFFCURVE",
"539 294 CURVE",
"539 293 LINE",
"540 294 LINE"
);
}
);
width = 1132;
},
{
anchors = (
{
name = bottom;
position = "{694, -785}";
},
{
name = top;
position = "{625, 1121}";
}
);
layerId = "13527720-5DE3-47C6-AB0B-155DF4EF49D9";
name = Regular;
paths = (
{
closed = 1;
nodes = (
"829 -631 OFFCURVE",
"1002 -607 OFFCURVE",
"1134 -577 CURVE",
"1148 -573 OFFCURVE",
"1152 -563 OFFCURVE",
"1158 -541 CURVE SMOOTH",
"1186 -432 LINE SMOOTH",
"1189 -421 OFFCURVE",
"1184 -415 OFFCURVE",
"1172 -417 CURVE SMOOTH",
"801 -467 OFFCURVE",
"336 -509 OFFCURVE",
"254 -181 CURVE",
"247 -143 OFFCURVE",
"246 -127 OFFCURVE",
"250 -96 CURVE SMOOTH",
"271 53 OFFCURVE",
"398 196 OFFCURVE",
"544 287 CURVE",
"552 293 OFFCURVE",
"558 291 OFFCURVE",
"565 283 CURVE SMOOTH",
"803 9 OFFCURVE",
"960 0 OFFCURVE",
"1109 0 CURVE SMOOTH",
"1132 0 LINE",
"1174 52 OFFCURVE",
"1174 104 OFFCURVE",
"1132 156 CURVE",
"1104 156 LINE SMOOTH",
"887 156 OFFCURVE",
"781 253 OFFCURVE",
"674 365 CURVE SMOOTH",
"666 373 OFFCURVE",
"668 380 OFFCURVE",
"676 386 CURVE",
"808 474 OFFCURVE",
"1015 567 OFFCURVE",
"1024 706 CURVE SMOOTH",
"1037 881 OFFCURVE",
"811 968 OFFCURVE",
"623 967 CURVE SMOOTH",
"494 966 OFFCURVE",
"330 914 OFFCURVE",
"237 873 CURVE SMOOTH",
"230 870 OFFCURVE",
"227 865 OFFCURVE",
"224 858 CURVE SMOOTH",
"152 679 LINE",
"148 670 OFFCURVE",
"152 665 OFFCURVE",
"160 660 CURVE",
"272 582 OFFCURVE",
"365 508 OFFCURVE",
"458 422 CURVE",
"466 414 OFFCURVE",
"465 407 OFFCURVE",
"457 401 CURVE SMOOTH",
"340 311 OFFCURVE",
"160 123 OFFCURVE",
"153 -135 CURVE SMOOTH",
"142 -528 OFFCURVE",
"399 -638 OFFCURVE",
"714 -633 CURVE SMOOTH"
);
},
{
closed = 1;
nodes = (
"583 491 OFFCURVE",
"576 492 OFFCURVE",
"570 499 CURVE",
"429 642 OFFCURVE",
"306 737 OFFCURVE",
"294 745 CURVE",
"294 745 OFFCURVE",
"302 749 OFFCURVE",
"314 753 CURVE",
"491 821 OFFCURVE",
"779 863 OFFCURVE",
"920 700 CURVE",
"926 692 OFFCURVE",
"925 684 OFFCURVE",
"916 679 CURVE SMOOTH",
"591 495 LINE"
);
}
);
width = 1132;
},
{
anchors = (
{
name = bottom;
position = "{694, -785}";
},
{
name = top;
position = "{625, 1121}";
}
);
layerId = "C8F46AD5-0BB5-455F-A00C-91F555441CD3";
name = Bold;
paths = (
{
closed = 1;
nodes = (
"829.777 -640.988 OFFCURVE",
"1003.798 -616.846 OFFCURVE",
"1136.216 -586.751 CURVE SMOOTH",
"1136.747 -586.615 LINE SMOOTH",
"1153.071 -581.951 OFFCURVE",
"1159.853 -572.211 OFFCURVE",
"1167.648 -543.631 CURVE SMOOTH",
"1195.686 -434.488 LINE SMOOTH",
"1200.697 -416.119 OFFCURVE",
"1189.476 -403.949 OFFCURVE",
"1170.356 -407.136 CURVE SMOOTH",
"799.882 -457.06 OFFCURVE",
"343.625 -498.271 OFFCURVE",
"263.701 -178.575 CURVE",
"263.835 -179.188 LINE",
"256.919 -141.649 OFFCURVE",
"256.118 -126.731 OFFCURVE",
"259.918 -97.28 CURVE SMOOTH",
"278.63 35.483 OFFCURVE",
"389.198 178.731 OFFCURVE",
"549.29 278.513 CURVE",
"550 279 LINE",
"552.757 281.068 OFFCURVE",
"553.114 281.398 OFFCURVE",
"557.474 276.415 CURVE SMOOTH",
"798.216 -0.742 OFFCURVE",
"959.714 -10 OFFCURVE",
"1109 -10 CURVE SMOOTH",
"1136.708 -10 LINE",
"1185.648 47.906 OFFCURVE",
"1185.648 108.094 OFFCURVE",
"1136.708 166 CURVE",
"1104 166 LINE SMOOTH",
"890.885 166 OFFCURVE",
"787.999 260.151 OFFCURVE",
"681.231 371.908 CURVE SMOOTH",
"678.259 374.884 OFFCURVE",
"678.117 375.088 OFFCURVE",
"682 378 CURVE",
"681.547 377.679 LINE",
"812.856 465.219 OFFCURVE",
"1024.59 560.346 OFFCURVE",
"1033.979 705.354 CURVE SMOOTH",
"1047.523 887.665 OFFCURVE",
"812.833 978.01 OFFCURVE",
"622.947 977 CURVE SMOOTH",
"492.415 975.988 OFFCURVE",
"326.461 923.369 OFFCURVE",
"232.966 882.15 CURVE SMOOTH",
"224.532 878.536 OFFCURVE",
"219.477 872.832 OFFCURVE",
"214.809 861.939 CURVE SMOOTH",
"142.722 682.732 LINE",
"137.264 670.465 OFFCURVE",
"141.339 659.87 OFFCURVE",
"154.7 651.52 CURVE",
"267.894 572.673 OFFCURVE",
"360.045 498.962 OFFCURVE",
"451.211 414.658 CURVE",
"454.681 411.177 OFFCURVE",
"454.025 411.269 OFFCURVE",
"451 409 CURVE SMOOTH",
"333.302 318.464 OFFCURVE",
"150.108 127.129 OFFCURVE",
"143.004 -134.729 CURVE SMOOTH",
"133.374 -478.762 OFFCURVE",
"326.059 -649.159 OFFCURVE",
"714.159 -642.999 CURVE SMOOTH"
);
},
{
closed = 1;
nodes = (
"586.528 503.944 LINE",
"582.206 501.783 OFFCURVE",
"580.493 502.125 OFFCURVE",
"577.593 505.508 CURVE SMOOTH",
"577.121 506.021 LINE SMOOTH",
"428.597 656.651 OFFCURVE",
"299.542 754.538 OFFCURVE",
"298.552 753.889 CURVE",
"302.213 738.047 LINE",
"293.155 733.095 OFFCURVE",
"301.306 738.228 OFFCURVE",
"317.162 743.513 CURVE",
"493.546 811.265 OFFCURVE",
"775.021 852.314 OFFCURVE",
"912.437 693.458 CURVE",
"912 694 LINE",
"914.608 690.523 OFFCURVE",
"914.317 689.505 OFFCURVE",
"911.144 687.742 CURVE SMOOTH",
"586.073 503.702 LINE"
);
}
);
width = 1132;
}
);
unicode = FECA;
},
{
glyphname = "ain-ar.medi";
lastChange = "2016-01-30 17:19:08 +0000";
layers = (
{
anchors = (
{
name = bottom;
position = "{530, -150}";
},
{
name = top;
position = "{572, 897}";
}
);
layerId = "3D7C20C2-9735-4AE4-B4D3-DDFDA9BF3443";
name = Light;
paths = (
{
closed = 1;
nodes = (
"40 8 LINE SMOOTH",
"190 8 OFFCURVE",
"383 24 OFFCURVE",
"520 111 CURVE SMOOTH",
"530 117 OFFCURVE",
"540 117 OFFCURVE",
"550 110 CURVE SMOOTH",
"674 29 OFFCURVE",
"853 8 OFFCURVE",
"1020 8 CURVE SMOOTH",
"1056 8 LINE",
"1093 55 OFFCURVE",
"1093 101 OFFCURVE",
"1056 148 CURVE",
"1020 148 LINE SMOOTH",
"919 148 OFFCURVE",
"753 157 OFFCURVE",
"688 174 CURVE SMOOTH",
"667 180 OFFCURVE",
"664 197 OFFCURVE",
"679 208 CURVE SMOOTH",
"786 283 OFFCURVE",
"943 392 OFFCURVE",
"942 484 CURVE SMOOTH",
"941 656 OFFCURVE",
"730 738 OFFCURVE",
"572 737 CURVE SMOOTH",
"444 736 OFFCURVE",
"282 681 OFFCURVE",
"189 640 CURVE",
"185 638 OFFCURVE",
"182 635 OFFCURVE",
"181 630 CURVE",
"119 444 LINE",
"117 439 OFFCURVE",
"118 436 OFFCURVE",
"123 434 CURVE",
"229 378 OFFCURVE",
"337 303 OFFCURVE",
"433 219 CURVE SMOOTH",
"447 207 OFFCURVE",
"443 190 OFFCURVE",
"426 185 CURVE",
"318 159 OFFCURVE",
"172 148 OFFCURVE",
"40 148 CURVE SMOOTH",
"0 148 LINE SMOOTH",
"-92 148 OFFCURVE",
"-93 8 OFFCURVE",
"0 8 CURVE SMOOTH"
);
},
{
closed = 1;
nodes = (
"552 243 OFFCURVE",
"541 245 OFFCURVE",
"531 257 CURVE",
"401 395 OFFCURVE",
"227 502 OFFCURVE",
"227 503 CURVE",
"222 513 OFFCURVE",
"229 517 OFFCURVE",
"249 525 CURVE SMOOTH",
"332 558 OFFCURVE",
"457 599 OFFCURVE",
"556 598 CURVE SMOOTH",
"641 597 OFFCURVE",
"785 562 OFFCURVE",
"850 488 CURVE",
"859 477 OFFCURVE",
"857 464 OFFCURVE",
"845 456 CURVE",
"563 252 LINE"
);
}
);
width = 1060;
},
{
anchors = (
{
name = bottom;
position = "{530, -150}";
},
{
name = top;
position = "{572, 897}";
}
);
layerId = "13527720-5DE3-47C6-AB0B-155DF4EF49D9";
name = Regular;
paths = (
{
closed = 1;
nodes = (
"40 0 LINE SMOOTH",
"190 0 OFFCURVE",
"386 16 OFFCURVE",
"524 104 CURVE SMOOTH",
"532 109 OFFCURVE",
"538 108 OFFCURVE",
"545 103 CURVE",
"671 21 OFFCURVE",
"853 0 OFFCURVE",
"1020 0 CURVE SMOOTH",
"1060 0 LINE",
"1102 52 OFFCURVE",
"1102 104 OFFCURVE",
"1060 156 CURVE",
"1020 156 LINE SMOOTH",
"919 156 OFFCURVE",
"754 165 OFFCURVE",
"690 182 CURVE SMOOTH",
"676 186 OFFCURVE",
"674 194 OFFCURVE",
"684 201 CURVE SMOOTH",
"791 276 OFFCURVE",
"951 388 OFFCURVE",
"950 484 CURVE SMOOTH",
"949 662 OFFCURVE",
"731 746 OFFCURVE",
"572 745 CURVE SMOOTH",
"443 744 OFFCURVE",
"279 688 OFFCURVE",
"186 647 CURVE SMOOTH",
"179 644 OFFCURVE",
"175 639 OFFCURVE",
"173 632 CURVE",
"111 447 LINE SMOOTH",
"108 438 OFFCURVE",
"111 431 OFFCURVE",
"119 427 CURVE SMOOTH",
"217 375 OFFCURVE",
"326 302 OFFCURVE",
"428 213 CURVE SMOOTH",
"437 205 OFFCURVE",
"435 196 OFFCURVE",
"424 193 CURVE SMOOTH",
"317 167 OFFCURVE",
"172 156 OFFCURVE",
"40 156 CURVE SMOOTH",
"0 156 LINE SMOOTH",
"-103 156 OFFCURVE",
"-103 0 OFFCURVE",
"0 0 CURVE SMOOTH"
);
},
{
closed = 1;
nodes = (
"550 252 OFFCURVE",
"544 254 OFFCURVE",
"537 262 CURVE",
"412 395 OFFCURVE",
"248 498 OFFCURVE",
"233 508 CURVE",
"233 509 OFFCURVE",
"241 513 OFFCURVE",
"252 517 CURVE SMOOTH",
"335 550 OFFCURVE",
"458 591 OFFCURVE",
"556 590 CURVE SMOOTH",
"640 589 OFFCURVE",
"781 555 OFFCURVE",
"844 483 CURVE",
"850 475 OFFCURVE",
"848 468 OFFCURVE",
"840 462 CURVE SMOOTH",
"558 258 LINE SMOOTH"
);
}
);
width = 1060;
},
{
anchors = (
{
name = bottom;
position = "{530, -150}";
},
{
name = top;
position = "{572, 897}";
}
);
layerId = "C8F46AD5-0BB5-455F-A00C-91F555441CD3";
name = Bold;
paths = (
{
closed = 1;
nodes = (
"40 -10 LINE SMOOTH",
"190.407 -10 OFFCURVE",
"389.286 6.235 OFFCURVE",
"529.377 95.568 CURVE SMOOTH",
"533.249 97.988 OFFCURVE",
"534.882 97.938 OFFCURVE",
"539.188 94.863 CURVE",
"667.517 11.336 OFFCURVE",
"852.425 -10 OFFCURVE",
"1020 -10 CURVE SMOOTH",
"1064.708 -10 LINE",
"1113.648 47.906 OFFCURVE",
"1113.648 108.094 OFFCURVE",
"1064.708 166 CURVE",
"1020 166 LINE SMOOTH",
"919.273 166 OFFCURVE",
"755.572 174.929 OFFCURVE",
"692.567 191.665 CURVE SMOOTH",
"660.147 200.93 OFFCURVE",
"676.097 183.261 OFFCURVE",
"689.735 192.808 CURVE SMOOTH",
"796.74 267.811 OFFCURVE",
"961.054 382.832 OFFCURVE",
"960 484.104 CURVE SMOOTH",
"958.962 668.878 OFFCURVE",
"732.83 756.012 OFFCURVE",
"571.937 755 CURVE SMOOTH",
"441.302 753.987 OFFCURVE",
"275.361 697.324 OFFCURVE",
"181.966 656.15 CURVE SMOOTH",
"172.633 652.151 OFFCURVE",
"166.265 644.83 OFFCURVE",
"163.385 634.747 CURVE",
"101.518 450.178 LINE SMOOTH",
"96.961 436.507 OFFCURVE",
"101.855 424.392 OFFCURVE",
"114.528 418.056 CURVE SMOOTH",
"218.902 362.67 OFFCURVE",
"326.271 288.492 OFFCURVE",
"421.425 205.465 CURVE SMOOTH",
"426.045 201.358 OFFCURVE",
"424.71 203.559 OFFCURVE",
"421.369 202.648 CURVE SMOOTH",
"315.431 176.91 OFFCURVE",
"171.621 166 OFFCURVE",
"40 166 CURVE SMOOTH",
"0 166 LINE SMOOTH",
"-116.354 166 OFFCURVE",
"-116.354 -10 OFFCURVE",
"0 -10 CURVE SMOOTH"
);
},
{
closed = 1;
nodes = (
"549.243 263.932 OFFCURVE",
"548.886 263.602 OFFCURVE",
"544.526 268.585 CURVE",
"426.243 394.447 OFFCURVE",
"273.823 493.378 OFFCURVE",
"242.864 513.357 CURVE",
"244.709 494.214 OFFCURVE",
"235.16 500.236 OFFCURVE",
"255.417 507.602 CURVE SMOOTH",
"338.431 540.603 OFFCURVE",
"459.573 580.983 OFFCURVE",
"555.898 580 CURVE SMOOTH",
"638.753 579.014 OFFCURVE",
"775.567 546.024 OFFCURVE",
"836.474 476.415 CURVE",
"836 477 LINE",
"838.063 474.249 OFFCURVE",
"838.548 473.411 OFFCURVE",
"834 470 CURVE SMOOTH",
"552.139 266.102 LINE SMOOTH"
);
}
);
width = 1060;
}
);
unicode = FECC;
},
{
glyphname = "ain-ar.init";
lastChange = "2016-01-30 17:19:08 +0000";
layers = (
{
anchors = (
{
name = bottom;
position = "{524, -140}";
},
{
name = top;
position = "{514, 1006}";
}
);
layerId = "3D7C20C2-9735-4AE4-B4D3-DDFDA9BF3443";
name = Light;
paths = (
{
closed = 1;
nodes = (
"40 8 LINE SMOOTH",
"394 8 OFFCURVE",
"600 64 OFFCURVE",
"955 191 CURVE",
"960 192 OFFCURVE",
"963 195 OFFCURVE",
"964 201 CURVE",
"993 335 LINE",
"994 338 OFFCURVE",
"984 342 OFFCURVE",
"978 340 CURVE",
"818 271 OFFCURVE",
"667 223 OFFCURVE",
"518 192 CURVE SMOOTH",
"497 187 OFFCURVE",
"481 192 OFFCURVE",
"470 207 CURVE SMOOTH",
"366 339 OFFCURVE",
"307 456 OFFCURVE",
"275 592 CURVE SMOOTH",
"272 606 OFFCURVE",
"275 616 OFFCURVE",
"285 622 CURVE",
"426 717 OFFCURVE",
"598 724 OFFCURVE",
"792 644 CURVE SMOOTH",
"797 642 OFFCURVE",
"799 644 OFFCURVE",
"799 647 CURVE",
"783 757 LINE",
"782 767 OFFCURVE",
"782 767 OFFCURVE",
"778 769 CURVE",
"527 916 OFFCURVE",
"193 832 OFFCURVE",
"174 555 CURVE",
"172 451 OFFCURVE",
"225 324 OFFCURVE",
"339 163 CURVE",
"234 147 OFFCURVE",
"119 148 OFFCURVE",
"40 148 CURVE SMOOTH",
"0 148 LINE SMOOTH",
"-92 148 OFFCURVE",
"-93 8 OFFCURVE",
"0 8 CURVE SMOOTH"
);
}
);
width = 1121;
},
{
anchors = (
{
name = bottom;
position = "{524, -140}";
},
{
name = top;
position = "{514, 1006}";
}
);
layerId = "13527720-5DE3-47C6-AB0B-155DF4EF49D9";
name = Regular;
paths = (
{
closed = 1;
nodes = (
"40 0 LINE SMOOTH",
"395 0 OFFCURVE",
"602 56 OFFCURVE",
"958 183 CURVE SMOOTH",
"966 186 OFFCURVE",
"970 191 OFFCURVE",
"972 199 CURVE SMOOTH",
"1001 333 LINE SMOOTH",
"1003 344 OFFCURVE",
"986 352 OFFCURVE",
"975 347 CURVE SMOOTH",
"823 282 OFFCURVE",
"672 232 OFFCURVE",
"516 200 CURVE SMOOTH",
"499 196 OFFCURVE",
"486 199 OFFCURVE",
"476 212 CURVE SMOOTH",
"368 350 OFFCURVE",
"313 466 OFFCURVE",
"283 594 CURVE SMOOTH",
"281 603 OFFCURVE",
"281 610 OFFCURVE",
"289 615 CURVE SMOOTH",
"435 713 OFFCURVE",
"607 712 OFFCURVE",
"789 637 CURVE SMOOTH",
"799 633 OFFCURVE",
"808 638 OFFCURVE",
"807 648 CURVE",
"791 758 LINE SMOOTH",
"790 767 OFFCURVE",
"790 772 OFFCURVE",
"782 776 CURVE",
"528 925 OFFCURVE",
"185 838 OFFCURVE",
"166 556 CURVE",
"164 452 OFFCURVE",
"215 327 OFFCURVE",
"325 169 CURVE",
"224 155 OFFCURVE",
"116 156 OFFCURVE",
"40 156 CURVE SMOOTH",
"0 156 LINE SMOOTH",
"-103 156 OFFCURVE",
"-103 0 OFFCURVE",
"0 0 CURVE SMOOTH"
);
}
);
width = 1121;
},
{
anchors = (
{
name = bottom;
position = "{524, -140}";
},
{
name = top;
position = "{514, 1006}";
}
);
layerId = "C8F46AD5-0BB5-455F-A00C-91F555441CD3";
name = Bold;
paths = (
{
closed = 1;
nodes = (
"40 -10 LINE SMOOTH",
"396.329 -10 OFFCURVE",
"604.99 46.45 OFFCURVE",
"961.36 173.581 CURVE SMOOTH",
"972.177 177.636 OFFCURVE",
"978.871 185.254 OFFCURVE",
"981.701 196.575 CURVE SMOOTH",
"1010.774 330.885 LINE SMOOTH",
"1014.293 350.208 OFFCURVE",
"989.631 364.635 OFFCURVE",
"970.862 356.104 CURVE SMOOTH",
"811.278 287.863 OFFCURVE",
"661.711 240.098 OFFCURVE",
"513.991 209.796 CURVE SMOOTH",
"499.27 206.337 OFFCURVE",
"491.161 208.692 OFFCURVE",
"483.926 218.097 CURVE SMOOTH",
"382.017 348.316 OFFCURVE",
"324.039 462.725 OFFCURVE",
"292.736 596.282 CURVE SMOOTH",
"291.127 603.526 OFFCURVE",
"291.589 604.826 OFFCURVE",
"294.3 606.52 CURVE SMOOTH",
"430.995 698.268 OFFCURVE",
"596.661 705.445 OFFCURVE",
"785.19 627.754 CURVE SMOOTH",
"802.003 621.028 OFFCURVE",
"818.704 631.457 OFFCURVE",
"816.95 648.995 CURVE",
"800.896 759.439 LINE SMOOTH",
"800 767.554 OFFCURVE",
"800 778.18 OFFCURVE",
"786.472 784.944 CURVE",
"787.06 784.625 LINE",
"529.52 935.702 OFFCURVE",
"175.51 845.91 OFFCURVE",
"156.023 556.672 CURVE",
"154.004 452.329 OFFCURVE",
"203.057 329.665 OFFCURVE",
"307.474 176.799 CURVE",
"211.964 165.11 OFFCURVE",
"112.02 166 OFFCURVE",
"40 166 CURVE SMOOTH",
"0 166 LINE SMOOTH",
"-116.354 166 OFFCURVE",
"-116.354 -10 OFFCURVE",
"0 -10 CURVE SMOOTH"
);
}
);
width = 1121;
}
);
unicode = FECB;
},
{
glyphname = "dotlessfeh-ar";
lastChange = "2016-01-30 17:19:08 +0000";
layers = (
{
anchors = (
{
name = bottom;
position = "{737, -188}";
},
{
name = top;
position = "{1174, 1124}";
}
);
layerId = "3D7C20C2-9735-4AE4-B4D3-DDFDA9BF3443";
name = Light;
paths = (
{
closed = 1;
nodes = (
"982 962 OFFCURVE",
"887 721 OFFCURVE",
"887 517 CURVE SMOOTH",
"887 260 OFFCURVE",
"1200 288 OFFCURVE",
"1356 363 CURVE",
"1375 373 OFFCURVE",
"1394 361 OFFCURVE",
"1395 339 CURVE SMOOTH",
"1398 252 LINE",
"1295 200 OFFCURVE",
"945 112 OFFCURVE",
"652 117 CURVE SMOOTH",
"363 122 OFFCURVE",
"218 217 OFFCURVE",
"235 396 CURVE SMOOTH",
"247 519 LINE",
"248 523 OFFCURVE",
"245 525 OFFCURVE",
"240 526 CURVE",
"185 531 LINE",
"181 532 OFFCURVE",
"177 529 OFFCURVE",
"177 524 CURVE",
"163 394 LINE SMOOTH",
"131 107 OFFCURVE",
"254 -19 OFFCURVE",
"579 -28 CURVE SMOOTH",
"783 -33 OFFCURVE",
"1021 9 OFFCURVE",
"1199 55 CURVE SMOOTH",
"1461 123 OFFCURVE",
"1477 294 OFFCURVE",
"1477 440 CURVE",
"1462 694 OFFCURVE",
"1338 962 OFFCURVE",
"1178 962 CURVE SMOOTH"
);
},
{
closed = 1;
nodes = (
"980 478 OFFCURVE",
"959 493 OFFCURVE",
"959 504 CURVE SMOOTH",
"961 689 OFFCURVE",
"1034 812 OFFCURVE",
"1143 812 CURVE SMOOTH",
"1240 812 OFFCURVE",
"1347 664 OFFCURVE",
"1380 486 CURVE",
"1380 487 LINE",
"1383 472 OFFCURVE",
"1157 416 OFFCURVE",
"1008 468 CURVE SMOOTH"
);
}
);
width = 1605;
},
{
anchors = (
{
name = bottom;
position = "{737, -188}";
},
{
name = top;
position = "{1174, 1124}";
}
);
layerId = "13527720-5DE3-47C6-AB0B-155DF4EF49D9";
name = Regular;
paths = (
{
closed = 1;
nodes = (
"784 -41 OFFCURVE",
"1023 1 OFFCURVE",
"1201 47 CURVE SMOOTH",
"1468 117 OFFCURVE",
"1485 294 OFFCURVE",
"1485 440 CURVE",
"1470 696 OFFCURVE",
"1343 970 OFFCURVE",
"1178 970 CURVE SMOOTH",
"977 970 OFFCURVE",
"879 723 OFFCURVE",
"879 517 CURVE SMOOTH",
"879 251 OFFCURVE",
"1202 280 OFFCURVE",
"1359 356 CURVE SMOOTH",
"1373 363 OFFCURVE",
"1386 355 OFFCURVE",
"1387 339 CURVE SMOOTH",
"1390 257 LINE",
"1282 205 OFFCURVE",
"940 120 OFFCURVE",
"652 125 CURVE SMOOTH",
"417 129 OFFCURVE",
"224 194 OFFCURVE",
"243 395 CURVE SMOOTH",
"255 518 LINE SMOOTH",
"256 527 OFFCURVE",
"250 533 OFFCURVE",
"241 534 CURVE SMOOTH",
"186 539 LINE SMOOTH",
"177 540 OFFCURVE",
"170 534 OFFCURVE",
"169 525 CURVE SMOOTH",
"155 395 LINE SMOOTH",
"121 92 OFFCURVE",
"262 -27 OFFCURVE",
"579 -36 CURVE SMOOTH"
);
},
{
closed = 1;
nodes = (
"982 486 OFFCURVE",
"967 499 OFFCURVE",
"967 504 CURVE SMOOTH",
"969 672 OFFCURVE",
"1032 804 OFFCURVE",
"1143 804 CURVE SMOOTH",
"1242 804 OFFCURVE",
"1342 646 OFFCURVE",
"1372 485 CURVE",
"1374 478 OFFCURVE",
"1158 424 OFFCURVE",
"1011 476 CURVE SMOOTH"
);
}
);
width = 1605;
},
{
anchors = (
{
name = bottom;
position = "{737, -188}";
},
{
name = top;
position = "{1174, 1124}";
}
);
layerId = "C8F46AD5-0BB5-455F-A00C-91F555441CD3";
name = Bold;
paths = (
{
closed = 1;
nodes = (
"784.751 -51.021 OFFCURVE",
"1025.12 -8.781 OFFCURVE",
"1203.502 37.318 CURVE SMOOTH",
"1477.287 109.097 OFFCURVE",
"1495 293.521 OFFCURVE",
"1495 440 CURVE",
"1494.983 440.585 LINE SMOOTH",
"1479.872 698.482 OFFCURVE",
"1349.387 980 OFFCURVE",
"1178 980 CURVE SMOOTH",
"970.209 980 OFFCURVE",
"869 724.911 OFFCURVE",
"869 517 CURVE SMOOTH",
"869 240.062 OFFCURVE",
"1204.713 270.203 OFFCURVE",
"1363.357 347 CURVE SMOOTH",
"1370.814 350.727 OFFCURVE",
"1376.467 347.221 OFFCURVE",
"1377.019 338.376 CURVE SMOOTH",
"1379.765 263.245 LINE",
"1266.59 211.498 OFFCURVE",
"933.792 130.109 OFFCURVE",
"652.174 134.998 CURVE SMOOTH",
"373.272 139.746 OFFCURVE",
"237.197 227.351 OFFCURVE",
"252.956 394.059 CURVE SMOOTH",
"264.953 517.029 LINE SMOOTH",
"266.51 531.032 OFFCURVE",
"256.937 542.291 OFFCURVE",
"242.104 543.939 CURVE SMOOTH",
"186.905 548.959 LINE SMOOTH",
"172.77 550.532 OFFCURVE",
"160.679 540.665 OFFCURVE",
"159.061 526.104 CURVE SMOOTH",
"145.057 396.071 LINE SMOOTH",
"111.587 97.79 OFFCURVE",
"243.477 -36.478 OFFCURVE",
"578.716 -45.996 CURVE SMOOTH"
);
},
{
closed = 1;
nodes = (
"1000.704 490.128 OFFCURVE",
"977 503.235 OFFCURVE",
"977 504 CURVE SMOOTH",
"979.091 679.543 OFFCURVE",
"1045.533 794 OFFCURVE",
"1143 794 CURVE SMOOTH",
"1229.692 794 OFFCURVE",
"1330.676 652.18 OFFCURVE",
"1362.169 483.168 CURVE",
"1362.385 482.253 LINE",
"1361.544 485.194 OFFCURVE",
"1158.496 434.432 OFFCURVE",
"1014.335 485.428 CURVE SMOOTH"
);
}
);
width = 1605;
}
);
unicode = 06A1;
},
{
glyphname = "dotlessfeh-ar.fina";
lastChange = "2016-01-30 17:19:08 +0000";
layers = (
{
anchors = (
{
name = bottom;
position = "{737, -200}";
},
{
name = top;
position = "{1420, 1021}";
}
);
layerId = "3D7C20C2-9735-4AE4-B4D3-DDFDA9BF3443";
name = Light;
paths = (
{
closed = 1;
nodes = (
"825 -42 OFFCURVE",
"1120 10 OFFCURVE",
"1315 82 CURVE SMOOTH",
"1324 85 OFFCURVE",
"1331 85 OFFCURVE",
"1339 81 CURVE",
"1463 35 OFFCURVE",
"1617 8 OFFCURVE",
"1766 8 CURVE SMOOTH",
"1802 8 LINE",
"1839 55 OFFCURVE",
"1839 101 OFFCURVE",
"1802 148 CURVE",
"1766 148 LINE SMOOTH",
"1663 148 OFFCURVE",
"1539 157 OFFCURVE",
"1539 157 CURVE",
"1533 169 LINE",
"1533 169 OFFCURVE",
"1658 367 OFFCURVE",
"1658 458 CURVE SMOOTH",
"1659 702 OFFCURVE",
"1513 861 OFFCURVE",
"1420 863 CURVE SMOOTH",
"1262 867 OFFCURVE",
"1097 613 OFFCURVE",
"1099 371 CURVE SMOOTH",
"1100 294 OFFCURVE",
"1114 233 OFFCURVE",
"1148 165 CURVE",
"1007 137 OFFCURVE",
"807 106 OFFCURVE",
"652 109 CURVE SMOOTH",
"363 114 OFFCURVE",
"218 209 OFFCURVE",
"235 388 CURVE SMOOTH",
"247 551 LINE",
"248 555 OFFCURVE",
"245 557 OFFCURVE",
"240 558 CURVE",
"185 563 LINE",
"181 564 OFFCURVE",
"179 561 OFFCURVE",
"178 556 CURVE",
"163 386 LINE SMOOTH",
"131 98 OFFCURVE",
"255 -28 OFFCURVE",
"579 -36 CURVE SMOOTH"
);
},
{
closed = 1;
nodes = (
"1235 245 OFFCURVE",
"1160 329 OFFCURVE",
"1169 442 CURVE SMOOTH",
"1177 538 OFFCURVE",
"1286 695 OFFCURVE",
"1385 695 CURVE SMOOTH",
"1512 695 OFFCURVE",
"1573 457 OFFCURVE",
"1585 405 CURVE",
"1585 404 LINE",
"1586 394 OFFCURVE",
"1585 386 OFFCURVE",
"1580 379 CURVE",
"1533 307 OFFCURVE",
"1478 248 OFFCURVE",
"1416 200 CURVE",
"1408 193 OFFCURVE",
"1399 192 OFFCURVE",
"1388 196 CURVE"
);
}
);
width = 1806;
},
{
anchors = (
{
name = bottom;
position = "{737, -200}";
},
{
name = top;
position = "{1420, 1021}";
}
);
layerId = "13527720-5DE3-47C6-AB0B-155DF4EF49D9";
name = Regular;
paths = (
{
closed = 1;
nodes = (
"826 -50 OFFCURVE",
"1122 2 OFFCURVE",
"1318 75 CURVE SMOOTH",
"1324 77 OFFCURVE",
"1329 77 OFFCURVE",
"1336 74 CURVE",
"1450 31 OFFCURVE",
"1603 0 OFFCURVE",
"1766 0 CURVE SMOOTH",
"1806 0 LINE",
"1848 52 OFFCURVE",
"1848 104 OFFCURVE",
"1806 156 CURVE",
"1766 156 LINE SMOOTH",
"1663 156 OFFCURVE",
"1540 165 OFFCURVE",
"1540 165 CURVE SMOOTH",
"1540 165 OFFCURVE",
"1666 365 OFFCURVE",
"1666 458 CURVE SMOOTH",
"1667 705 OFFCURVE",
"1517 869 OFFCURVE",
"1420 871 CURVE SMOOTH",
"1251 875 OFFCURVE",
"1089 608 OFFCURVE",
"1091 371 CURVE SMOOTH",
"1092 299 OFFCURVE",
"1104 239 OFFCURVE",
"1136 171 CURVE",
"996 143 OFFCURVE",
"803 114 OFFCURVE",
"652 117 CURVE SMOOTH",
"417 121 OFFCURVE",
"224 186 OFFCURVE",
"243 387 CURVE SMOOTH",
"255 550 LINE",
"256 559 OFFCURVE",
"250 565 OFFCURVE",
"241 566 CURVE SMOOTH",
"186 571 LINE SMOOTH",
"177 572 OFFCURVE",
"171 566 OFFCURVE",
"170 557 CURVE SMOOTH",
"155 387 LINE SMOOTH",
"121 84 OFFCURVE",
"262 -36 OFFCURVE",
"579 -44 CURVE SMOOTH"
);
},
{
closed = 1;
nodes = (
"1258 246 OFFCURVE",
"1167 321 OFFCURVE",
"1177 441 CURVE SMOOTH",
"1185 535 OFFCURVE",
"1290 687 OFFCURVE",
"1385 687 CURVE SMOOTH",
"1506 687 OFFCURVE",
"1565 455 OFFCURVE",
"1577 403 CURVE",
"1578 395 OFFCURVE",
"1577 389 OFFCURVE",
"1573 383 CURVE SMOOTH",
"1529 316 OFFCURVE",
"1476 256 OFFCURVE",
"1411 206 CURVE",
"1405 201 OFFCURVE",
"1399 200 OFFCURVE",
"1391 203 CURVE"
);
}
);
width = 1806;
},
{
anchors = (
{
name = bottom;
position = "{737, -200}";
},
{
name = top;
position = "{1420, 1021}";
}
);
layerId = "C8F46AD5-0BB5-455F-A00C-91F555441CD3";
name = Bold;
paths = (
{
closed = 1;
nodes = (
"826.751 -60.021 OFFCURVE",
"1124.632 -7.691 OFFCURVE",
"1321.49 65.629 CURVE",
"1325.104 66.827 OFFCURVE",
"1327.672 66.69 OFFCURVE",
"1332.061 64.809 CURVE",
"1459.331 16.793 OFFCURVE",
"1615.018 -10 OFFCURVE",
"1766 -10 CURVE SMOOTH",
"1810.708 -10 LINE",
"1859.648 47.906 OFFCURVE",
"1859.648 108.094 OFFCURVE",
"1810.708 166 CURVE",
"1766 166 LINE SMOOTH",
"1663.365 166 OFFCURVE",
"1540.719 174.974 OFFCURVE",
"1540.719 174.974 CURVE",
"1548.48 159.7 LINE",
"1548.48 159.7 OFFCURVE",
"1676 362.113 OFFCURVE",
"1676 458 CURVE SMOOTH",
"1677.016 708.866 OFFCURVE",
"1521.488 878.91 OFFCURVE",
"1420.206 880.998 CURVE SMOOTH",
"1250.996 885.003 OFFCURVE",
"1078.868 623.648 OFFCURVE",
"1081 370.916 CURVE SMOOTH",
"1082.003 298.726 OFFCURVE",
"1094.102 240.445 OFFCURVE",
"1121.644 178.352 CURVE",
"983.085 151.193 OFFCURVE",
"797.96 124.102 OFFCURVE",
"652.199 126.998 CURVE SMOOTH",
"373.272 131.746 OFFCURVE",
"237.197 219.351 OFFCURVE",
"252.956 386.059 CURVE SMOOTH",
"264.973 549.266 LINE",
"266.51 563.032 OFFCURVE",
"256.937 574.291 OFFCURVE",
"242.104 575.939 CURVE SMOOTH",
"186.905 580.959 LINE SMOOTH",
"172.968 582.51 OFFCURVE",
"161.709 572.937 OFFCURVE",
"160.061 558.104 CURVE SMOOTH",
"145.039 387.879 LINE SMOOTH",
"111.537 89.341 OFFCURVE",
"244.042 -45.55 OFFCURVE",
"578.748 -53.997 CURVE SMOOTH"
);
},
{
closed = 1;
nodes = (
"1248.366 259.624 OFFCURVE",
"1178.352 336.814 OFFCURVE",
"1186.965 440.17 CURVE SMOOTH",
"1194.739 531.503 OFFCURVE",
"1295.246 677 OFFCURVE",
"1385 677 CURVE SMOOTH",
"1497.849 677 OFFCURVE",
"1554.901 454.131 OFFCURVE",
"1567.135 401.274 CURVE",
"1567.781 395.603 OFFCURVE",
"1567.032 392.075 OFFCURVE",
"1564.679 388.547 CURVE SMOOTH",
"1519.025 319.029 OFFCURVE",
"1465.993 260.918 OFFCURVE",
"1404.903 213.926 CURVE",
"1401.171 210.826 OFFCURVE",
"1399.359 210.546 OFFCURVE",
"1394.511 212.363 CURVE"
);
}
);
width = 1806;
}
);
},
{
glyphname = "dotlessfeh-ar.medi";
lastChange = "2016-01-30 17:19:08 +0000";
layers = (
{
anchors = (
{
name = bottom;
position = "{427, -151}";
},
{
name = top;
position = "{521, 1021}";
}
);
layerId = "3D7C20C2-9735-4AE4-B4D3-DDFDA9BF3443";
name = Light;
paths = (
{
closed = 1;
nodes = (
"867 148 LINE SMOOTH",
"764 148 OFFCURVE",
"640 157 OFFCURVE",
"640 157 CURVE",
"640 178 LINE",
"686 240 OFFCURVE",
"754 345 OFFCURVE",
"755 454 CURVE SMOOTH",
"757 667 OFFCURVE",
"647 860 OFFCURVE",
"521 863 CURVE SMOOTH",
"362 867 OFFCURVE",
"197 612 OFFCURVE",
"200 371 CURVE SMOOTH",
"201 290 OFFCURVE",
"222 223 OFFCURVE",
"266 162 CURVE",
"234 157 OFFCURVE",
"127 148 OFFCURVE",
"40 148 CURVE SMOOTH",
"0 148 LINE SMOOTH",
"-92 148 OFFCURVE",
"-93 8 OFFCURVE",
"0 8 CURVE SMOOTH",
"40 8 LINE SMOOTH",
"198 8 OFFCURVE",
"322 33 OFFCURVE",
"427 87 CURVE",
"541 41 OFFCURVE",
"698 8 OFFCURVE",
"867 8 CURVE SMOOTH",
"903 8 LINE",
"940 55 OFFCURVE",
"940 101 OFFCURVE",
"903 148 CURVE"
);
},
{
closed = 1;
nodes = (
"510 193 OFFCURVE",
"500 191 OFFCURVE",
"492 194 CURVE",
"337 244 OFFCURVE",
"261 328 OFFCURVE",
"270 442 CURVE SMOOTH",
"278 538 OFFCURVE",
"387 695 OFFCURVE",
"486 695 CURVE SMOOTH",
"616 695 OFFCURVE",
"684 446 OFFCURVE",
"695 401 CURVE",
"696 394 OFFCURVE",
"695 388 OFFCURVE",
"690 382 CURVE",
"637 312 OFFCURVE",
"579 251 OFFCURVE",
"515 199 CURVE"
);
},
{
closed = 1;
nodes = (
"492 195 OFFCURVE",
"492 194 OFFCURVE",
"492 194 CURVE",
"493 194 LINE",
"492 195 LINE"
);
}
);
width = 907;
},
{
anchors = (
{
name = bottom;
position = "{427, -151}";
},
{
name = top;
position = "{521, 1021}";
}
);
layerId = "13527720-5DE3-47C6-AB0B-155DF4EF49D9";
name = Regular;
paths = (
{
closed = 1;
nodes = (
"40 0 LINE SMOOTH",
"215 0 OFFCURVE",
"334 31 OFFCURVE",
"427 78 CURVE",
"542 33 OFFCURVE",
"699 0 OFFCURVE",
"867 0 CURVE SMOOTH",
"907 0 LINE",
"949 52 OFFCURVE",
"949 104 OFFCURVE",
"907 156 CURVE",
"867 156 LINE SMOOTH",
"764 156 OFFCURVE",
"641 165 OFFCURVE",
"641 165 CURVE",
"686 226 OFFCURVE",
"762 338 OFFCURVE",
"763 454 CURVE SMOOTH",
"765 654 OFFCURVE",
"662 868 OFFCURVE",
"521 871 CURVE SMOOTH",
"352 875 OFFCURVE",
"189 608 OFFCURVE",
"192 371 CURVE SMOOTH",
"193 279 OFFCURVE",
"220 216 OFFCURVE",
"252 168 CURVE",
"210 163 OFFCURVE",
"117 156 OFFCURVE",
"40 156 CURVE SMOOTH",
"0 156 LINE SMOOTH",
"-103 156 OFFCURVE",
"-103 0 OFFCURVE",
"0 0 CURVE SMOOTH"
);
},
{
closed = 1;
nodes = (
"360 245 OFFCURVE",
"268 320 OFFCURVE",
"278 441 CURVE SMOOTH",
"286 535 OFFCURVE",
"391 687 OFFCURVE",
"486 687 CURVE SMOOTH",
"610 687 OFFCURVE",
"676 444 OFFCURVE",
"687 399 CURVE SMOOTH",
"688 395 OFFCURVE",
"687 391 OFFCURVE",
"684 387 CURVE SMOOTH",
"629 314 OFFCURVE",
"570 254 OFFCURVE",
"509 205 CURVE",
"506 201 OFFCURVE",
"500 200 OFFCURVE",
"495 202 CURVE"
);
}
);
width = 907;
},
{
anchors = (
{
name = bottom;
position = "{427, -151}";
},
{
name = top;
position = "{521, 1021}";
}
);
layerId = "C8F46AD5-0BB5-455F-A00C-91F555441CD3";
name = Bold;
paths = (
{
closed = 1;
nodes = (
"40 -10 LINE SMOOTH",
"197.375 -10 OFFCURVE",
"322.113 14.752 OFFCURVE",
"427.513 67.073 CURVE",
"555.37 17.77 OFFCURVE",
"713.664 -10 OFFCURVE",
"867 -10 CURVE SMOOTH",
"911.708 -10 LINE",
"960.648 47.906 OFFCURVE",
"960.648 108.094 OFFCURVE",
"911.708 166 CURVE",
"867 166 LINE SMOOTH",
"757.024 166 OFFCURVE",
"624.073 176.304 OFFCURVE",
"643.654 174.83 CURVE",
"641.686 149.155 LINE",
"685.064 207.191 OFFCURVE",
"771.915 328.118 OFFCURVE",
"773 453.914 CURVE SMOOTH",
"775.236 677.585 OFFCURVE",
"658.876 878.069 OFFCURVE",
"521.213 880.998 CURVE SMOOTH",
"351.501 885.015 OFFCURVE",
"178.812 622.801 OFFCURVE",
"182 370.873 CURVE SMOOTH",
"182.929 285.448 OFFCURVE",
"206.272 223.404 OFFCURVE",
"234.931 176.193 CURVE",
"188.49 171.482 OFFCURVE",
"108.025 166 OFFCURVE",
"40 166 CURVE SMOOTH",
"0 166 LINE SMOOTH",
"-116.354 166 OFFCURVE",
"-116.354 -10 OFFCURVE",
"0 -10 CURVE SMOOTH"
);
},
{
closed = 1;
nodes = (
"498.035 211.528 LINE",
"350.136 258.637 OFFCURVE",
"279.35 335.917 OFFCURVE",
"287.966 440.176 CURVE SMOOTH",
"295.739 531.503 OFFCURVE",
"396.246 677 OFFCURVE",
"486 677 CURVE SMOOTH",
"602.354 677 OFFCURVE",
"666.316 441.502 OFFCURVE",
"677.286 396.625 CURVE SMOOTH",
"677.523 395.676 OFFCURVE",
"677.435 394.913 OFFCURVE",
"676 393 CURVE SMOOTH",
"622.654 322.195 OFFCURVE",
"564.071 261.71 OFFCURVE",
"500.23 210.789 CURVE",
"499.905 210.852 OFFCURVE",
"499.428 211 OFFCURVE",
"498.714 211.285 CURVE"
);
}
);
width = 907;
}
);
},
{
glyphname = "dotlessfeh-ar.init";
lastChange = "2016-01-30 17:19:08 +0000";
layers = (
{
anchors = (
{
name = bottom;
position = "{347, -150}";
},
{
name = top;
position = "{435, 1132}";
}
);
layerId = "3D7C20C2-9735-4AE4-B4D3-DDFDA9BF3443";
name = Light;
paths = (
{
closed = 1;
nodes = (
"719 706 OFFCURVE",
"595 974 OFFCURVE",
"435 974 CURVE SMOOTH",
"239 974 OFFCURVE",
"144 733 OFFCURVE",
"144 529 CURVE SMOOTH",
"144 272 OFFCURVE",
"461 300 OFFCURVE",
"617 375 CURVE",
"636 385 OFFCURVE",
"656 373 OFFCURVE",
"656 351 CURVE SMOOTH",
"655 247 LINE SMOOTH",
"655 239 OFFCURVE",
"650 231 OFFCURVE",
"643 227 CURVE",
"436 142 OFFCURVE",
"91 148 OFFCURVE",
"40 148 CURVE SMOOTH",
"0 148 LINE SMOOTH",
"-92 148 OFFCURVE",
"-93 8 OFFCURVE",
"0 8 CURVE SMOOTH",
"40 8 LINE SMOOTH",
"193 8 OFFCURVE",
"312 5 OFFCURVE",
"457 38 CURVE SMOOTH",
"727 100 OFFCURVE",
"746 253 OFFCURVE",
"734 452 CURVE SMOOTH"
);
},
{
closed = 1;
nodes = (
"237 490 OFFCURVE",
"216 505 OFFCURVE",
"216 516 CURVE SMOOTH",
"218 701 OFFCURVE",
"291 824 OFFCURVE",
"400 824 CURVE SMOOTH",
"497 824 OFFCURVE",
"604 676 OFFCURVE",
"637 498 CURVE",
"637 499 LINE",
"640 484 OFFCURVE",
"414 428 OFFCURVE",
"265 480 CURVE SMOOTH"
);
}
);
width = 865;
},
{
anchors = (
{
name = bottom;
position = "{347, -150}";
},
{
name = top;
position = "{435, 1132}";
}
);
layerId = "13527720-5DE3-47C6-AB0B-155DF4EF49D9";
name = Regular;
paths = (
{
closed = 1;
nodes = (
"40 0 LINE SMOOTH",
"193 0 OFFCURVE",
"313 -3 OFFCURVE",
"459 30 CURVE SMOOTH",
"734 93 OFFCURVE",
"754 253 OFFCURVE",
"742 452 CURVE SMOOTH",
"727 708 OFFCURVE",
"600 982 OFFCURVE",
"435 982 CURVE SMOOTH",
"234 982 OFFCURVE",
"136 735 OFFCURVE",
"136 529 CURVE SMOOTH",
"136 263 OFFCURVE",
"463 292 OFFCURVE",
"620 368 CURVE SMOOTH",
"634 375 OFFCURVE",
"648 367 OFFCURVE",
"648 351 CURVE SMOOTH",
"647 247 LINE SMOOTH",
"647 242 OFFCURVE",
"644 237 OFFCURVE",
"639 234 CURVE",
"434 150 OFFCURVE",
"91 156 OFFCURVE",
"40 156 CURVE SMOOTH",
"0 156 LINE SMOOTH",
"-103 156 OFFCURVE",
"-103 0 OFFCURVE",
"0 0 CURVE SMOOTH"
);
},
{
closed = 1;
nodes = (
"239 498 OFFCURVE",
"224 511 OFFCURVE",
"224 516 CURVE SMOOTH",
"226 684 OFFCURVE",
"289 816 OFFCURVE",
"400 816 CURVE SMOOTH",
"499 816 OFFCURVE",
"599 658 OFFCURVE",
"629 497 CURVE",
"631 490 OFFCURVE",
"415 436 OFFCURVE",
"268 488 CURVE SMOOTH"
);
}
);
width = 865;
},
{
anchors = (
{
name = bottom;
position = "{347, -150}";
},
{
name = top;
position = "{435, 1132}";
}
);
layerId = "C8F46AD5-0BB5-455F-A00C-91F555441CD3";
name = Bold;
paths = (
{
closed = 1;
nodes = (
"40 -10 LINE SMOOTH",
"192.875 -10 OFFCURVE",
"313.992 -13.028 OFFCURVE",
"461.205 20.246 CURVE SMOOTH",
"743.055 84.815 OFFCURVE",
"764.038 252.678 OFFCURVE",
"751.982 452.602 CURVE SMOOTH",
"736.872 710.482 OFFCURVE",
"606.387 992 OFFCURVE",
"435 992 CURVE SMOOTH",
"227.209 992 OFFCURVE",
"126 736.911 OFFCURVE",
"126 529 CURVE SMOOTH",
"126 252.074 OFFCURVE",
"465.708 282.201 OFFCURVE",
"624.357 359 CURVE SMOOTH",
"632.006 362.823 OFFCURVE",
"638 359.216 OFFCURVE",
"638 351 CURVE SMOOTH",
"637 247.096 LINE SMOOTH",
"637 245.53 OFFCURVE",
"636.247 244.175 OFFCURVE",
"634.404 242.924 CURVE",
"431.215 160.05 OFFCURVE",
"91.02 166 OFFCURVE",
"40 166 CURVE SMOOTH",
"0 166 LINE SMOOTH",
"-116.354 166 OFFCURVE",
"-116.354 -10 OFFCURVE",
"0 -10 CURVE SMOOTH"
);
},
{
closed = 1;
nodes = (
"257.704 502.128 OFFCURVE",
"234 515.235 OFFCURVE",
"234 516 CURVE SMOOTH",
"236.091 691.543 OFFCURVE",
"302.533 806 OFFCURVE",
"400 806 CURVE SMOOTH",
"486.692 806 OFFCURVE",
"587.676 664.18 OFFCURVE",
"619.169 495.168 CURVE",
"619.385 494.253 LINE",
"618.544 497.194 OFFCURVE",
"415.496 446.432 OFFCURVE",
"271.335 497.428 CURVE SMOOTH"
);
}
);
width = 865;
}
);
},
{
glyphname = "dotlessqaf-ar";
lastChange = "2016-01-30 17:19:08 +0000";
layers = (
{
anchors = (
{
name = bottom;
position = "{666, -610}";
},
{
name = top;
position = "{965, 847}";
}
);
layerId = "3D7C20C2-9735-4AE4-B4D3-DDFDA9BF3443";
name = Light;
paths = (
{
closed = 1;
nodes = (
"768 689 OFFCURVE",
"653 408 OFFCURVE",
"653 204 CURVE SMOOTH",
"653 -100 OFFCURVE",
"983 -64 OFFCURVE",
"1164 28 CURVE",
"1180 37 OFFCURVE",
"1195 28 OFFCURVE",
"1193 9 CURVE",
"1185 -165 LINE",
"1185 -176 OFFCURVE",
"1178 -184 OFFCURVE",
"1167 -188 CURVE SMOOTH",
"1110 -210 OFFCURVE",
"858 -293 OFFCURVE",
"557 -293 CURVE SMOOTH",
"352 -293 OFFCURVE",
"239 -188 OFFCURVE",
"248 -7 CURVE SMOOTH",
"249 13 OFFCURVE",
"252 33 OFFCURVE",
"290 240 CURVE SMOOTH",
"291 246 OFFCURVE",
"289 249 OFFCURVE",
"284 250 CURVE SMOOTH",
"216 264 LINE",
"212 265 OFFCURVE",
"209 263 OFFCURVE",
"208 258 CURVE SMOOTH",
"171 34 LINE",
"120 -218 OFFCURVE",
"218 -452 OFFCURVE",
"533 -452 CURVE SMOOTH",
"707 -452 OFFCURVE",
"1121 -398 OFFCURVE",
"1236 -229 CURVE SMOOTH",
"1282 -163 OFFCURVE",
"1286 -72 OFFCURVE",
"1290 50 CURVE SMOOTH",
"1299 335 OFFCURVE",
"1160 689 OFFCURVE",
"964 689 CURVE SMOOTH"
);
},
{
closed = 1;
nodes = (
"1023 106 OFFCURVE",
"879 93 OFFCURVE",
"760 147 CURVE",
"759 147 LINE",
"750 152 OFFCURVE",
"745 159 OFFCURVE",
"744 170 CURVE",
"744 171 LINE",
"735 323 OFFCURVE",
"793 539 OFFCURVE",
"929 539 CURVE SMOOTH",
"1044 539 OFFCURVE",
"1169 355 OFFCURVE",
"1185 165 CURVE SMOOTH",
"1186 152 OFFCURVE",
"1179 142 OFFCURVE",
"1166 139 CURVE SMOOTH"
);
},
{
closed = 1;
nodes = (
"1164 28 OFFCURVE",
"1164 28 OFFCURVE",
"1164 28 CURVE SMOOTH"
);
}
);
width = 1418;
},
{
anchors = (
{
name = bottom;
position = "{666, -610}";
},
{
name = top;
position = "{965, 847}";
}
);
layerId = "13527720-5DE3-47C6-AB0B-155DF4EF49D9";
name = Regular;
paths = (
{
closed = 1;
nodes = (
"708 -460 OFFCURVE",
"1126 -405 OFFCURVE",
"1243 -234 CURVE SMOOTH",
"1290 -166 OFFCURVE",
"1294 -72 OFFCURVE",
"1298 50 CURVE SMOOTH",
"1307 336 OFFCURVE",
"1165 697 OFFCURVE",
"964 697 CURVE SMOOTH",
"763 697 OFFCURVE",
"645 410 OFFCURVE",
"645 204 CURVE SMOOTH",
"645 -109 OFFCURVE",
"986 -72 OFFCURVE",
"1168 21 CURVE",
"1178 27 OFFCURVE",
"1186 22 OFFCURVE",
"1185 10 CURVE",
"1177 -165 LINE",
"1177 -173 OFFCURVE",
"1172 -178 OFFCURVE",
"1164 -181 CURVE SMOOTH",
"1107 -202 OFFCURVE",
"857 -285 OFFCURVE",
"557 -285 CURVE SMOOTH",
"379 -285 OFFCURVE",
"246 -203 OFFCURVE",
"256 -7 CURVE SMOOTH",
"257 12 OFFCURVE",
"260 32 OFFCURVE",
"298 239 CURVE SMOOTH",
"300 249 OFFCURVE",
"295 256 OFFCURVE",
"286 258 CURVE SMOOTH",
"218 272 LINE SMOOTH",
"209 274 OFFCURVE",
"202 269 OFFCURVE",
"200 260 CURVE",
"163 35 LINE",
"112 -219 OFFCURVE",
"213 -460 OFFCURVE",
"533 -460 CURVE SMOOTH"
);
},
{
closed = 1;
nodes = (
"1022 114 OFFCURVE",
"880 101 OFFCURVE",
"763 154 CURVE",
"756 158 OFFCURVE",
"753 163 OFFCURVE",
"752 171 CURVE",
"743 322 OFFCURVE",
"799 531 OFFCURVE",
"929 531 CURVE SMOOTH",
"1043 531 OFFCURVE",
"1162 344 OFFCURVE",
"1177 164 CURVE SMOOTH",
"1178 155 OFFCURVE",
"1173 149 OFFCURVE",
"1164 147 CURVE SMOOTH"
);
}
);
width = 1418;
},
{
anchors = (
{
name = bottom;
position = "{666, -610}";
},
{
name = top;
position = "{965, 847}";
}
);
layerId = "C8F46AD5-0BB5-455F-A00C-91F555441CD3";
name = Bold;
paths = (
{
closed = 1;
nodes = (
"708.655 -470 OFFCURVE",
"1131.732 -414.332 OFFCURVE",
"1251.253 -239.647 CURVE SMOOTH",
"1299.868 -169.31 OFFCURVE",
"1303.993 -72.376 OFFCURVE",
"1307.995 49.672 CURVE SMOOTH",
"1317.06 337.744 OFFCURVE",
"1171.812 707 OFFCURVE",
"964 707 CURVE SMOOTH",
"756.299 707 OFFCURVE",
"635 411.976 OFFCURVE",
"635 204 CURVE SMOOTH",
"635 -120.144 OFFCURVE",
"988.91 -81.743 OFFCURVE",
"1172.55 12.095 CURVE SMOOTH",
"1173.145 12.425 LINE SMOOTH",
"1176.594 14.495 OFFCURVE",
"1175.549 17.006 OFFCURVE",
"1175.035 10.83 CURVE",
"1167.01 -164.543 LINE",
"1167 -168.193 OFFCURVE",
"1165.851 -169.626 OFFCURVE",
"1160.489 -171.637 CURVE SMOOTH",
"1103.695 -192.56 OFFCURVE",
"855.383 -275 OFFCURVE",
"557 -275 CURVE SMOOTH",
"361.501 -275 OFFCURVE",
"257.265 -178.458 OFFCURVE",
"265.987 -7.51 CURVE SMOOTH",
"266.961 10.993 OFFCURVE",
"269.865 30.355 OFFCURVE",
"307.836 237.194 CURVE SMOOTH",
"310.795 251.985 OFFCURVE",
"302.81 264.508 OFFCURVE",
"288.169 267.762 CURVE SMOOTH",
"220.017 281.795 LINE SMOOTH",
"205.981 284.915 OFFCURVE",
"193.466 276.693 OFFCURVE",
"190.238 262.169 CURVE SMOOTH",
"190.133 261.623 LINE",
"153.133 36.623 LINE",
"101.592 -220.037 OFFCURVE",
"206.348 -470 OFFCURVE",
"533 -470 CURVE SMOOTH"
);
},
{
closed = 1;
nodes = (
"990.359 116.913 OFFCURVE",
"865.227 118.67 OFFCURVE",
"767.126 163.109 CURVE",
"767.961 162.682 LINE",
"763.827 165.045 OFFCURVE",
"762.583 166.96 OFFCURVE",
"761.923 172.24 CURVE",
"761.982 171.595 LINE",
"753.079 320.977 OFFCURVE",
"806.673 521 OFFCURVE",
"929 521 CURVE SMOOTH",
"1033.584 521 OFFCURVE",
"1151.977 343.86 OFFCURVE",
"1167.035 163.17 CURVE SMOOTH",
"1167.447 159.424 OFFCURVE",
"1166.224 157.738 OFFCURVE",
"1161.831 156.762 CURVE SMOOTH"
);
}
);
width = 1418;
}
);
unicode = 066F;
},
{
glyphname = "dotlessqaf-ar.fina";
lastChange = "2016-01-30 17:19:08 +0000";
layers = (
{
anchors = (
{
name = bottom;
position = "{666, -610}";
},
{
name = top;
position = "{965, 847}";
}
);
layerId = "3D7C20C2-9735-4AE4-B4D3-DDFDA9BF3443";
name = Light;
paths = (
{
closed = 1;
nodes = (
"707 -453 OFFCURVE",
"1121 -399 OFFCURVE",
"1236 -230 CURVE SMOOTH",
"1277 -172 OFFCURVE",
"1285 -93 OFFCURVE",
"1289 8 CURVE",
"1441 8 LINE",
"1478 55 OFFCURVE",
"1478 101 OFFCURVE",
"1441 148 CURVE",
"1288 148 LINE",
"1267 410 OFFCURVE",
"1138 688 OFFCURVE",
"964 688 CURVE SMOOTH",
"768 688 OFFCURVE",
"633 427 OFFCURVE",
"633 223 CURVE SMOOTH",
"633 -51 OFFCURVE",
"958 -28 OFFCURVE",
"1165 11 CURVE SMOOTH",
"1180 14 OFFCURVE",
"1190 5 OFFCURVE",
"1190 -11 CURVE",
"1184 -165 LINE",
"1184 -176 OFFCURVE",
"1178 -185 OFFCURVE",
"1167 -189 CURVE SMOOTH",
"1110 -211 OFFCURVE",
"858 -294 OFFCURVE",
"557 -294 CURVE SMOOTH",
"352 -294 OFFCURVE",
"239 -189 OFFCURVE",
"248 -8 CURVE SMOOTH",
"249 12 OFFCURVE",
"253 33 OFFCURVE",
"291 239 CURVE SMOOTH",
"292 245 OFFCURVE",
"290 248 OFFCURVE",
"285 249 CURVE SMOOTH",
"217 263 LINE",
"213 264 OFFCURVE",
"210 262 OFFCURVE",
"209 257 CURVE SMOOTH",
"171 33 LINE SMOOTH",
"120 -219 OFFCURVE",
"218 -453 OFFCURVE",
"533 -453 CURVE SMOOTH"
);
},
{
closed = 1;
nodes = (
"982 119 OFFCURVE",
"815 132 OFFCURVE",
"721 178 CURVE",
"714 181 OFFCURVE",
"710 188 OFFCURVE",
"709 199 CURVE",
"709 200 LINE",
"702 351 OFFCURVE",
"794 538 OFFCURVE",
"929 538 CURVE SMOOTH",
"1050 538 OFFCURVE",
"1179 338 OFFCURVE",
"1186 142 CURVE"
);
}
);
width = 1445;
},
{
anchors = (
{
name = bottom;
position = "{666, -610}";
},
{
name = top;
position = "{965, 847}";
}
);
layerId = "13527720-5DE3-47C6-AB0B-155DF4EF49D9";
name = Regular;
paths = (
{
closed = 1;
nodes = (
"708 -461 OFFCURVE",
"1126 -406 OFFCURVE",
"1243 -235 CURVE SMOOTH",
"1284 -176 OFFCURVE",
"1293 -98 OFFCURVE",
"1297 0 CURVE",
"1445 0 LINE",
"1487 52 OFFCURVE",
"1487 104 OFFCURVE",
"1445 156 CURVE",
"1295 156 LINE",
"1272 417 OFFCURVE",
"1141 696 OFFCURVE",
"964 696 CURVE SMOOTH",
"763 696 OFFCURVE",
"625 429 OFFCURVE",
"625 223 CURVE SMOOTH",
"625 -60 OFFCURVE",
"959 -36 OFFCURVE",
"1166 3 CURVE SMOOTH",
"1177 5 OFFCURVE",
"1182 -1 OFFCURVE",
"1182 -11 CURVE",
"1176 -165 LINE",
"1176 -173 OFFCURVE",
"1172 -179 OFFCURVE",
"1164 -182 CURVE SMOOTH",
"1107 -203 OFFCURVE",
"857 -286 OFFCURVE",
"557 -286 CURVE SMOOTH",
"379 -286 OFFCURVE",
"246 -204 OFFCURVE",
"256 -8 CURVE SMOOTH",
"257 11 OFFCURVE",
"261 31 OFFCURVE",
"299 238 CURVE SMOOTH",
"301 248 OFFCURVE",
"296 255 OFFCURVE",
"287 257 CURVE SMOOTH",
"219 271 LINE SMOOTH",
"210 273 OFFCURVE",
"203 268 OFFCURVE",
"201 259 CURVE",
"163 34 LINE SMOOTH",
"112 -220 OFFCURVE",
"213 -461 OFFCURVE",
"533 -461 CURVE SMOOTH"
);
},
{
closed = 1;
nodes = (
"991 129 OFFCURVE",
"821 138 OFFCURVE",
"724 185 CURVE SMOOTH",
"720 187 OFFCURVE",
"718 192 OFFCURVE",
"717 200 CURVE",
"710 349 OFFCURVE",
"799 530 OFFCURVE",
"929 530 CURVE SMOOTH",
"1046 530 OFFCURVE",
"1168 334 OFFCURVE",
"1178 149 CURVE"
);
}
);
width = 1445;
},
{
anchors = (
{
name = bottom;
position = "{666, -610}";
},
{
name = top;
position = "{965, 847}";
}
);
layerId = "C8F46AD5-0BB5-455F-A00C-91F555441CD3";
name = Bold;
paths = (
{
closed = 1;
nodes = (
"708.655 -471 OFFCURVE",
"1131.732 -415.332 OFFCURVE",
"1251.253 -240.647 CURVE SMOOTH",
"1292.259 -181.639 OFFCURVE",
"1302.331 -104.045 OFFCURVE",
"1306.58 -10 CURVE",
"1449.708 -10 LINE",
"1498.648 47.906 OFFCURVE",
"1498.648 108.094 OFFCURVE",
"1449.708 166 CURVE",
"1304.114 166 LINE",
"1278.69 426.227 OFFCURVE",
"1145.232 706 OFFCURVE",
"964 706 CURVE SMOOTH",
"756.912 706 OFFCURVE",
"615 431.431 OFFCURVE",
"615 223 CURVE SMOOTH",
"615 3.235 OFFCURVE",
"811.013 -74.058 OFFCURVE",
"1167.851 -6.827 CURVE SMOOTH",
"1171.572 -6.151 OFFCURVE",
"1172 -6.34 OFFCURVE",
"1172 -11 CURVE",
"1166.008 -164.611 LINE",
"1166 -169.009 OFFCURVE",
"1164.509 -171.129 OFFCURVE",
"1160.489 -172.637 CURVE SMOOTH",
"1103.695 -193.56 OFFCURVE",
"855.383 -276 OFFCURVE",
"557 -276 CURVE SMOOTH",
"361.501 -276 OFFCURVE",
"257.265 -179.458 OFFCURVE",
"265.987 -8.51 CURVE SMOOTH",
"266.948 9.75 OFFCURVE",
"270.821 29.117 OFFCURVE",
"308.836 236.194 CURVE SMOOTH",
"311.795 250.985 OFFCURVE",
"303.81 263.508 OFFCURVE",
"289.169 266.762 CURVE SMOOTH",
"221.017 280.795 LINE SMOOTH",
"206.981 283.915 OFFCURVE",
"194.466 275.693 OFFCURVE",
"191.238 261.169 CURVE SMOOTH",
"191.14 260.665 LINE",
"153.14 35.665 LINE SMOOTH",
"101.592 -221.037 OFFCURVE",
"206.348 -471 OFFCURVE",
"533 -471 CURVE SMOOTH"
);
},
{
closed = 1;
nodes = (
"974.153 138.234 OFFCURVE",
"816.323 151.378 OFFCURVE",
"728.36 194 CURVE",
"728.889 193.736 OFFCURVE",
"727.728 194.802 OFFCURVE",
"726.923 201.24 CURVE",
"726.989 200.469 LINE",
"719.346 363.146 OFFCURVE",
"817.724 520 OFFCURVE",
"929 520 CURVE SMOOTH",
"1035.294 520 OFFCURVE",
"1153.903 339.278 OFFCURVE",
"1167.405 157.947 CURVE"
);
}
);
width = 1445;
}
);
},
{
glyphname = "dotlesskaf-ar";
lastChange = "2016-01-30 17:19:08 +0000";
layers = (
{
anchors = (
{
name = bottom;
position = "{674, -187}";
},
{
name = top;
position = "{628, 807}";
}
);
layerId = "3D7C20C2-9735-4AE4-B4D3-DDFDA9BF3443";
name = Light;
paths = (
{
closed = 1;
nodes = (
"467 -20 OFFCURVE",
"647 -12 OFFCURVE",
"791 4 CURVE SMOOTH",
"1089 37 OFFCURVE",
"1181 161 OFFCURVE",
"1176 520 CURVE SMOOTH",
"1164 1322 LINE",
"1164 1329 OFFCURVE",
"1163 1328 OFFCURVE",
"1158 1325 CURVE",
"1055 1253 LINE",
"1050 1250 OFFCURVE",
"1049 1248 OFFCURVE",
"1049 1242 CURVE",
"1077 594 OFFCURVE",
"1085 332 OFFCURVE",
"1069 226 CURVE",
"1066 212 OFFCURVE",
"1062 206 OFFCURVE",
"1051 202 CURVE SMOOTH",
"885 143 OFFCURVE",
"439 116 OFFCURVE",
"166 185 CURVE",
"161 187 OFFCURVE",
"160 187 OFFCURVE",
"159 180 CURVE",
"151 35 OFFCURVE",
"170 14 OFFCURVE",
"323 -3 CURVE SMOOTH"
);
}
);
width = 1304;
},
{
anchors = (
{
name = bottom;
position = "{674, -187}";
},
{
name = top;
position = "{628, 807}";
}
);
layerId = "13527720-5DE3-47C6-AB0B-155DF4EF49D9";
name = Regular;
paths = (
{
closed = 1;
nodes = (
"467 -28 OFFCURVE",
"648 -20 OFFCURVE",
"792 -4 CURVE SMOOTH",
"1109 31 OFFCURVE",
"1189 175 OFFCURVE",
"1184 520 CURVE SMOOTH",
"1172 1322 LINE",
"1172 1334 OFFCURVE",
"1165 1339 OFFCURVE",
"1154 1332 CURVE",
"1050 1260 LINE SMOOTH",
"1043 1255 OFFCURVE",
"1041 1251 OFFCURVE",
"1041 1242 CURVE",
"1069 594 OFFCURVE",
"1077 332 OFFCURVE",
"1061 227 CURVE",
"1059 217 OFFCURVE",
"1057 213 OFFCURVE",
"1048 210 CURVE SMOOTH",
"883 151 OFFCURVE",
"440 124 OFFCURVE",
"168 193 CURVE",
"158 196 OFFCURVE",
"152 192 OFFCURVE",
"151 181 CURVE SMOOTH",
"142 24 OFFCURVE",
"172 6 OFFCURVE",
"322 -11 CURVE SMOOTH"
);
}
);
width = 1304;
},
{
anchors = (
{
name = bottom;
position = "{674, -187}";
},
{
name = top;
position = "{628, 807}";
}
);
layerId = "C8F46AD5-0BB5-455F-A00C-91F555441CD3";
name = Bold;
paths = (
{
closed = 1;
nodes = (
"466.636 -38.026 OFFCURVE",
"648.774 -29.976 OFFCURVE",
"793.104 -13.939 CURVE SMOOTH",
"1101.173 20.075 OFFCURVE",
"1199.326 152.571 OFFCURVE",
"1193.999 520.145 CURVE SMOOTH",
"1181.999 1322.15 LINE",
"1182 1342.525 OFFCURVE",
"1165.901 1351.426 OFFCURVE",
"1148.631 1340.437 CURVE",
"1044.308 1268.222 LINE SMOOTH",
"1034.659 1261.331 OFFCURVE",
"1031 1254.058 OFFCURVE",
"1031 1242 CURVE",
"1059.007 593.632 OFFCURVE",
"1066.977 332.606 OFFCURVE",
"1051.114 228.506 CURVE",
"1049.619 221.085 OFFCURVE",
"1049.381 221.001 OFFCURVE",
"1044.838 219.487 CURVE SMOOTH",
"880.972 160.895 OFFCURVE",
"440.948 134.076 OFFCURVE",
"170.459 202.693 CURVE",
"154.572 207.469 OFFCURVE",
"142.609 199.147 OFFCURVE",
"141.041 181.905 CURVE SMOOTH",
"132.061 25.357 OFFCURVE",
"158.089 -2.487 OFFCURVE",
"320.874 -20.936 CURVE SMOOTH"
);
}
);
width = 1304;
}
);
},
{
glyphname = "dotlesskaf-ar.fina";
lastChange = "2016-01-30 17:19:08 +0000";
layers = (
{
anchors = (
{
name = bottom;
position = "{674, -187}";
},
{
name = top;
position = "{627, 807}";
}
);
guideLines = (
{
position = "{-180, 1345}";
}
);
layerId = "3D7C20C2-9735-4AE4-B4D3-DDFDA9BF3443";
name = Light;
paths = (
{
closed = 1;
nodes = (
"467 -20 OFFCURVE",
"627 -12 OFFCURVE",
"771 4 CURVE SMOOTH",
"979 27 OFFCURVE",
"1084 90 OFFCURVE",
"1112 206 CURVE",
"1150 71 OFFCURVE",
"1229 8 OFFCURVE",
"1360 8 CURVE SMOOTH",
"1456 8 LINE",
"1493 55 OFFCURVE",
"1493 101 OFFCURVE",
"1456 148 CURVE",
"1402 148 LINE SMOOTH",
"1314 148 OFFCURVE",
"1180 174 OFFCURVE",
"1180 268 CURVE",
"1164 1322 LINE",
"1164 1329 OFFCURVE",
"1163 1328 OFFCURVE",
"1158 1325 CURVE",
"1055 1253 LINE",
"1050 1250 OFFCURVE",
"1049 1248 OFFCURVE",
"1049 1242 CURVE",
"1077 594 OFFCURVE",
"1085 332 OFFCURVE",
"1069 226 CURVE",
"1066 212 OFFCURVE",
"1062 206 OFFCURVE",
"1051 202 CURVE SMOOTH",
"885 143 OFFCURVE",
"439 116 OFFCURVE",
"166 185 CURVE",
"161 187 OFFCURVE",
"160 187 OFFCURVE",
"159 180 CURVE",
"151 35 OFFCURVE",
"170 14 OFFCURVE",
"323 -3 CURVE SMOOTH"
);
}
);
width = 1460;
},
{
anchors = (
{
name = bottom;
position = "{674, -187}";
},
{
name = top;
position = "{627, 807}";
}
);
layerId = "13527720-5DE3-47C6-AB0B-155DF4EF49D9";
name = Regular;
paths = (
{
closed = 1;
nodes = (
"467 -28 OFFCURVE",
"628 -20 OFFCURVE",
"772 -4 CURVE SMOOTH",
"955 16 OFFCURVE",
"1072 68 OFFCURVE",
"1112 179 CURVE",
"1150 68 OFFCURVE",
"1223 0 OFFCURVE",
"1360 0 CURVE SMOOTH",
"1460 0 LINE",
"1502 52 OFFCURVE",
"1502 104 OFFCURVE",
"1460 156 CURVE",
"1402 156 LINE SMOOTH",
"1315 156 OFFCURVE",
"1188 181 OFFCURVE",
"1188 268 CURVE",
"1172 1322 LINE",
"1172 1334 OFFCURVE",
"1165 1339 OFFCURVE",
"1154 1332 CURVE",
"1050 1260 LINE SMOOTH",
"1043 1255 OFFCURVE",
"1041 1251 OFFCURVE",
"1041 1242 CURVE",
"1069 594 OFFCURVE",
"1077 332 OFFCURVE",
"1061 227 CURVE",
"1059 217 OFFCURVE",
"1057 213 OFFCURVE",
"1048 210 CURVE SMOOTH",
"883 151 OFFCURVE",
"440 124 OFFCURVE",
"168 193 CURVE",
"158 196 OFFCURVE",
"152 192 OFFCURVE",
"151 181 CURVE SMOOTH",
"142 24 OFFCURVE",
"172 6 OFFCURVE",
"322 -11 CURVE SMOOTH"
);
}
);
width = 1460;
},
{
anchors = (
{
name = bottom;
position = "{674, -187}";
},
{
name = top;
position = "{627, 807}";
}
);
guideLines = (
{
position = "{-180, 1345}";
}
);
layerId = "C8F46AD5-0BB5-455F-A00C-91F555441CD3";
name = Bold;
paths = (
{
closed = 1;
nodes = (
"466.664 -38.029 OFFCURVE",
"628.801 -29.973 OFFCURVE",
"773.104 -13.939 CURVE SMOOTH",
"957.717 6.237 OFFCURVE",
"1065.437 58.572 OFFCURVE",
"1111.447 152.102 CURVE",
"1156.535 42.967 OFFCURVE",
"1237.897 -10 OFFCURVE",
"1360 -10 CURVE SMOOTH",
"1464.708 -10 LINE",
"1513.648 47.906 OFFCURVE",
"1513.648 108.094 OFFCURVE",
"1464.708 166 CURVE",
"1402 166 LINE SMOOTH",
"1315.975 166 OFFCURVE",
"1198 189.223 OFFCURVE",
"1198 268 CURVE",
"1181.999 1322.152 LINE",
"1182 1342.525 OFFCURVE",
"1165.901 1351.426 OFFCURVE",
"1148.631 1340.437 CURVE",
"1044.308 1268.222 LINE SMOOTH",
"1034.659 1261.331 OFFCURVE",
"1031 1254.058 OFFCURVE",
"1031 1242 CURVE",
"1059.007 593.632 OFFCURVE",
"1066.977 332.606 OFFCURVE",
"1051.114 228.506 CURVE",
"1049.619 221.085 OFFCURVE",
"1049.381 221.001 OFFCURVE",
"1044.838 219.487 CURVE SMOOTH",
"880.972 160.895 OFFCURVE",
"440.948 134.076 OFFCURVE",
"170.459 202.693 CURVE",
"154.572 207.469 OFFCURVE",
"142.609 199.147 OFFCURVE",
"141.041 181.905 CURVE SMOOTH",
"132.061 25.357 OFFCURVE",
"158.089 -2.487 OFFCURVE",
"320.874 -20.936 CURVE SMOOTH"
);
}
);
width = 1460;
}
);
userData = {
com.typemytype.robofont.guides = (
{
angle = 0;
isGlobal = 0;
x = "-180";
y = 1345;
}
);
};
},
{
glyphname = "kaf-ar.medi";
lastChange = "2016-01-30 17:19:08 +0000";
layers = (
{
anchors = (
{
name = bottom;
position = "{338, -149}";
},
{
name = top;
position = "{439, 1315}";
}
);
layerId = "3D7C20C2-9735-4AE4-B4D3-DDFDA9BF3443";
name = Light;
paths = (
{
closed = 1;
nodes = (
"40 8 LINE SMOOTH",
"218 8 OFFCURVE",
"416 46 OFFCURVE",
"535 95 CURVE SMOOTH",
"554 103 OFFCURVE",
"568 119 OFFCURVE",
"598 172 CURVE SMOOTH",
"607 188 OFFCURVE",
"624 190 OFFCURVE",
"633 174 CURVE",
"707 64 OFFCURVE",
"787 8 OFFCURVE",
"871 8 CURVE SMOOTH",
"907 8 LINE",
"944 55 OFFCURVE",
"944 101 OFFCURVE",
"907 148 CURVE",
"871 148 LINE SMOOTH",
"760 148 OFFCURVE",
"704 185 OFFCURVE",
"646 298 CURVE SMOOTH",
"534 517 OFFCURVE",
"457 733 OFFCURVE",
"171 912 CURVE SMOOTH",
"154 923 OFFCURVE",
"156 941 OFFCURVE",
"174 947 CURVE SMOOTH",
"817 1147 LINE",
"822 1148 OFFCURVE",
"824 1150 OFFCURVE",
"825 1156 CURVE",
"841 1283 LINE",
"842 1288 OFFCURVE",
"840 1289 OFFCURVE",
"836 1287 CURVE",
"170 1067 LINE",
"163 1065 OFFCURVE",
"161 1063 OFFCURVE",
"159 1059 CURVE SMOOTH",
"54 840 LINE SMOOTH",
"52 836 OFFCURVE",
"53 833 OFFCURVE",
"58 830 CURVE",
"386 651 OFFCURVE",
"509 369 OFFCURVE",
"557 248 CURVE SMOOTH",
"562 236 OFFCURVE",
"557 225 OFFCURVE",
"546 219 CURVE",
"545 219 LINE",
"415 165 OFFCURVE",
"223 152 OFFCURVE",
"40 148 CURVE SMOOTH",
"0 148 LINE SMOOTH",
"-92 148 OFFCURVE",
"-93 8 OFFCURVE",
"0 8 CURVE SMOOTH"
);
}
);
width = 911;
},
{
anchors = (
{
name = bottom;
position = "{338, -149}";
},
{
name = top;
position = "{439, 1315}";
}
);
layerId = "13527720-5DE3-47C6-AB0B-155DF4EF49D9";
name = Regular;
paths = (
{
closed = 1;
nodes = (
"40 0 LINE SMOOTH",
"219 0 OFFCURVE",
"418 38 OFFCURVE",
"538 88 CURVE",
"554 94 OFFCURVE",
"568 102 OFFCURVE",
"605 168 CURVE SMOOTH",
"611 179 OFFCURVE",
"620 180 OFFCURVE",
"626 170 CURVE",
"719 33 OFFCURVE",
"805 0 OFFCURVE",
"871 0 CURVE SMOOTH",
"911 0 LINE",
"953 52 OFFCURVE",
"953 104 OFFCURVE",
"911 156 CURVE",
"871 156 LINE SMOOTH",
"759 156 OFFCURVE",
"708 195 OFFCURVE",
"653 302 CURVE SMOOTH",
"541 520 OFFCURVE",
"464 738 OFFCURVE",
"175 919 CURVE SMOOTH",
"164 926 OFFCURVE",
"165 935 OFFCURVE",
"177 939 CURVE SMOOTH",
"819 1139 LINE",
"827 1141 OFFCURVE",
"832 1146 OFFCURVE",
"833 1155 CURVE SMOOTH",
"849 1282 LINE SMOOTH",
"850 1293 OFFCURVE",
"844 1299 OFFCURVE",
"833 1295 CURVE SMOOTH",
"167 1075 LINE",
"159 1072 OFFCURVE",
"155 1069 OFFCURVE",
"152 1062 CURVE",
"47 843 LINE SMOOTH",
"43 835 OFFCURVE",
"46 828 OFFCURVE",
"54 823 CURVE",
"380 645 OFFCURVE",
"502 366 OFFCURVE",
"550 245 CURVE SMOOTH",
"553 237 OFFCURVE",
"550 230 OFFCURVE",
"542 226 CURVE",
"413 173 OFFCURVE",
"223 160 OFFCURVE",
"40 156 CURVE SMOOTH",
"0 156 LINE SMOOTH",
"-103 156 OFFCURVE",
"-103 0 OFFCURVE",
"0 0 CURVE SMOOTH"
);
}
);
width = 911;
},
{
anchors = (
{
name = bottom;
position = "{338, -149}";
},
{
name = top;
position = "{439, 1315}";
}
);
layerId = "C8F46AD5-0BB5-455F-A00C-91F555441CD3";
name = Bold;
paths = (
{
closed = 1;
nodes = (
"40 -10 LINE SMOOTH",
"212.615 -10 OFFCURVE",
"414.996 25.915 OFFCURVE",
"541.846 78.769 CURVE",
"565.948 87.801 OFFCURVE",
"583.053 108.401 OFFCURVE",
"613.723 163.11 CURVE SMOOTH",
"617.18 169.446 OFFCURVE",
"616.019 167.199 OFFCURVE",
"617.425 164.855 CURVE SMOOTH",
"617.726 164.384 LINE SMOOTH",
"696.001 49.075 OFFCURVE",
"781.08 -10 OFFCURVE",
"871 -10 CURVE SMOOTH",
"915.708 -10 LINE",
"964.648 47.906 OFFCURVE",
"964.648 108.094 OFFCURVE",
"915.708 166 CURVE",
"871 166 LINE SMOOTH",
"766.244 166 OFFCURVE",
"717.251 198.876 OFFCURVE",
"661.894 306.572 CURVE SMOOTH",
"550.204 523.968 OFFCURVE",
"472.266 744.622 OFFCURVE",
"180.308 927.475 CURVE SMOOTH",
"85.525 987.792 OFFCURVE",
"18.935 875.771 OFFCURVE",
"180.162 929.513 CURVE SMOOTH",
"821.974 1129.453 LINE",
"821.425 1129.299 LINE",
"833.833 1132.401 OFFCURVE",
"841.528 1141.197 OFFCURVE",
"842.939 1153.896 CURVE SMOOTH",
"858.922 1280.75 LINE SMOOTH",
"860.628 1299.458 OFFCURVE",
"847.245 1310.82 OFFCURVE",
"829.583 1304.398 CURVE SMOOTH",
"163.863 1084.495 LINE",
"152.534 1080.255 OFFCURVE",
"146.766 1075.173 OFFCURVE",
"142.809 1065.939 CURVE",
"37.983 847.323 LINE SMOOTH",
"31.838 835.036 OFFCURVE",
"35.976 822.473 OFFCURVE",
"48.7 814.52 CURVE SMOOTH",
"49.208 814.223 LINE SMOOTH",
"372.207 637.861 OFFCURVE",
"492.768 362.152 OFFCURVE",
"540.705 241.313 CURVE SMOOTH",
"541.769 238.469 OFFCURVE",
"541.085 236.723 OFFCURVE",
"537.528 234.944 CURVE",
"538.2 235.25 LINE",
"410.7 182.866 OFFCURVE",
"222.549 169.993 OFFCURVE",
"39.781 165.998 CURVE SMOOTH",
"0 166 LINE SMOOTH",
"-116.354 166 OFFCURVE",
"-116.354 -10 OFFCURVE",
"0 -10 CURVE SMOOTH"
);
}
);
width = 911;
}
);
unicode = FEDC;
},
{
glyphname = "kaf-ar.init";
lastChange = "2016-01-30 17:19:08 +0000";
layers = (
{
anchors = (
{
name = bottom;
position = "{337, -149}";
},
{
name = top;
position = "{395, 1273}";
}
);
layerId = "3D7C20C2-9735-4AE4-B4D3-DDFDA9BF3443";
name = Light;
paths = (
{
closed = 1;
nodes = (
"140 1067 LINE",
"133 1065 OFFCURVE",
"131 1063 OFFCURVE",
"129 1059 CURVE SMOOTH",
"25 841 LINE SMOOTH",
"23 837 OFFCURVE",
"24 834 OFFCURVE",
"29 831 CURVE",
"360 652 OFFCURVE",
"505 397 OFFCURVE",
"546 261 CURVE SMOOTH",
"550 249 OFFCURVE",
"545 239 OFFCURVE",
"534 233 CURVE",
"383 158 OFFCURVE",
"215 148 OFFCURVE",
"40 148 CURVE SMOOTH",
"0 148 LINE SMOOTH",
"-92 148 OFFCURVE",
"-93 8 OFFCURVE",
"0 8 CURVE SMOOTH",
"40 8 LINE SMOOTH",
"171 8 OFFCURVE",
"302 26 OFFCURVE",
"406 58 CURVE SMOOTH",
"562 108 OFFCURVE",
"621 189 OFFCURVE",
"605 327 CURVE SMOOTH",
"571 620 OFFCURVE",
"317 826 OFFCURVE",
"144 914 CURVE SMOOTH",
"126 923 OFFCURVE",
"128 941 OFFCURVE",
"148 948 CURVE SMOOTH",
"717 1127 LINE",
"722 1128 OFFCURVE",
"724 1130 OFFCURVE",
"725 1136 CURVE",
"741 1262 LINE",
"742 1268 OFFCURVE",
"740 1269 OFFCURVE",
"736 1267 CURVE"
);
},
{
closed = 1;
nodes = (
"29 831 OFFCURVE",
"29 831 OFFCURVE",
"29 831 CURVE SMOOTH"
);
}
);
width = 736;
},
{
anchors = (
{
name = bottom;
position = "{337, -149}";
},
{
name = top;
position = "{395, 1273}";
}
);
layerId = "13527720-5DE3-47C6-AB0B-155DF4EF49D9";
name = Regular;
paths = (
{
closed = 1;
nodes = (
"40 0 LINE SMOOTH",
"160 0 OFFCURVE",
"295 15 OFFCURVE",
"408 50 CURVE SMOOTH",
"550 96 OFFCURVE",
"631 171 OFFCURVE",
"613 328 CURVE SMOOTH",
"579 624 OFFCURVE",
"321 833 OFFCURVE",
"148 921 CURVE SMOOTH",
"136 927 OFFCURVE",
"137 936 OFFCURVE",
"150 940 CURVE SMOOTH",
"719 1119 LINE",
"727 1121 OFFCURVE",
"732 1126 OFFCURVE",
"733 1135 CURVE SMOOTH",
"749 1261 LINE",
"750 1272 OFFCURVE",
"744 1279 OFFCURVE",
"733 1275 CURVE SMOOTH",
"137 1075 LINE",
"129 1072 OFFCURVE",
"125 1069 OFFCURVE",
"122 1062 CURVE",
"18 844 LINE SMOOTH",
"14 836 OFFCURVE",
"17 829 OFFCURVE",
"25 824 CURVE",
"354 646 OFFCURVE",
"498 394 OFFCURVE",
"538 259 CURVE SMOOTH",
"541 250 OFFCURVE",
"538 244 OFFCURVE",
"530 240 CURVE SMOOTH",
"381 166 OFFCURVE",
"215 156 OFFCURVE",
"40 156 CURVE SMOOTH",
"0 156 LINE SMOOTH",
"-103 156 OFFCURVE",
"-103 0 OFFCURVE",
"0 0 CURVE SMOOTH"
);
}
);
width = 736;
},
{
anchors = (
{
name = bottom;
position = "{337, -149}";
},
{
name = top;
position = "{395, 1273}";
}
);
layerId = "C8F46AD5-0BB5-455F-A00C-91F555441CD3";
name = Bold;
paths = (
{
closed = 1;
nodes = (
"40 -10 LINE SMOOTH",
"173.041 -10 OFFCURVE",
"306.193 7.998 OFFCURVE",
"410.959 40.448 CURVE SMOOTH",
"574.905 93.556 OFFCURVE",
"639.833 181.753 OFFCURVE",
"622.935 329.139 CURVE SMOOTH",
"588.469 629.199 OFFCURVE",
"326.475 841.435 OFFCURVE",
"152.534 929.913 CURVE SMOOTH",
"18.648 996.857 OFFCURVE",
"97.004 913.231 OFFCURVE",
"152.941 930.442 CURVE SMOOTH",
"722 1109.461 LINE",
"721.425 1109.299 LINE",
"733.833 1112.401 OFFCURVE",
"741.528 1121.197 OFFCURVE",
"742.939 1133.896 CURVE SMOOTH",
"758.92 1259.74 LINE",
"760.656 1278.759 OFFCURVE",
"747.111 1290.772 OFFCURVE",
"729.583 1284.398 CURVE SMOOTH",
"133.819 1084.48 LINE SMOOTH",
"122.534 1080.255 OFFCURVE",
"116.766 1075.173 OFFCURVE",
"112.809 1065.939 CURVE",
"8.974 848.306 LINE SMOOTH",
"2.838 836.036 OFFCURVE",
"6.976 823.473 OFFCURVE",
"19.7 815.52 CURVE SMOOTH",
"20.241 815.205 LINE SMOOTH",
"346.733 638.562 OFFCURVE",
"488.742 390.046 OFFCURVE",
"528.412 256.159 CURVE SMOOTH",
"529.8 251.976 OFFCURVE",
"529.348 250.855 OFFCURVE",
"525.528 248.944 CURVE SMOOTH",
"378.371 175.86 OFFCURVE",
"214.699 166 OFFCURVE",
"40 166 CURVE SMOOTH",
"0 166 LINE SMOOTH",
"-116.354 166 OFFCURVE",
"-116.354 -10 OFFCURVE",
"0 -10 CURVE SMOOTH"
);
}
);
width = 736;
}
);
unicode = FEDB;
},
{
glyphname = "keheh-ar";
lastChange = "2016-01-30 17:19:08 +0000";
layers = (
{
anchors = (
{
name = bottom;
position = "{683, -176}";
},
{
name = top;
position = "{524, 940}";
}
);
layerId = "3D7C20C2-9735-4AE4-B4D3-DDFDA9BF3443";
name = Light;
paths = (
{
closed = 1;
nodes = (
"901 1067 LINE",
"894 1065 OFFCURVE",
"892 1063 OFFCURVE",
"890 1059 CURVE SMOOTH",
"785 840 LINE SMOOTH",
"783 836 OFFCURVE",
"784 833 OFFCURVE",
"789 830 CURVE",
"1120 651 OFFCURVE",
"1252 394 OFFCURVE",
"1293 257 CURVE SMOOTH",
"1297 245 OFFCURVE",
"1292 234 OFFCURVE",
"1279 229 CURVE SMOOTH",
"1172 186 OFFCURVE",
"929 122 OFFCURVE",
"652 127 CURVE SMOOTH",
"363 132 OFFCURVE",
"218 227 OFFCURVE",
"235 406 CURVE SMOOTH",
"247 529 LINE",
"248 533 OFFCURVE",
"245 535 OFFCURVE",
"240 536 CURVE",
"185 541 LINE",
"181 542 OFFCURVE",
"177 539 OFFCURVE",
"177 534 CURVE",
"163 404 LINE SMOOTH",
"131 117 OFFCURVE",
"254 -9 OFFCURVE",
"579 -18 CURVE SMOOTH",
"890 -26 OFFCURVE",
"1170 48 OFFCURVE",
"1296 103 CURVE",
"1296 103 LINE",
"1300 111 LINE",
"1330 179 OFFCURVE",
"1359 275 OFFCURVE",
"1352 323 CURVE SMOOTH",
"1318 559 OFFCURVE",
"1076 822 OFFCURVE",
"904 913 CURVE SMOOTH",
"886 923 OFFCURVE",
"889 941 OFFCURVE",
"907 948 CURVE",
"1478 1127 LINE",
"1483 1128 OFFCURVE",
"1485 1130 OFFCURVE",
"1486 1136 CURVE",
"1502 1262 LINE",
"1503 1268 OFFCURVE",
"1501 1269 OFFCURVE",
"1497 1267 CURVE"
);
},
{
closed = 1;
nodes = (
"789 830 OFFCURVE",
"789 830 OFFCURVE",
"789 830 CURVE SMOOTH"
);
},
{
closed = 1;
nodes = (
"1279 229 OFFCURVE",
"1279 229 OFFCURVE",
"1279 229 CURVE",
"1279 230 LINE",
"1279 229 LINE"
);
},
{
closed = 1;
nodes = (
"1296 103 LINE",
"1296 103 OFFCURVE",
"1296 103 OFFCURVE",
"1296 103 CURVE",
"1296 104 LINE"
);
}
);
width = 1481;
},
{
anchors = (
{
name = bottom;
position = "{683, -176}";
},
{
name = top;
position = "{524, 940}";
}
);
layerId = "13527720-5DE3-47C6-AB0B-155DF4EF49D9";
name = Regular;
paths = (
{
closed = 1;
nodes = (
"891 -34 OFFCURVE",
"1173 40 OFFCURVE",
"1299 96 CURVE",
"1302 97 OFFCURVE",
"1304 101 OFFCURVE",
"1307 108 CURVE SMOOTH",
"1338 176 OFFCURVE",
"1367 274 OFFCURVE",
"1360 324 CURVE SMOOTH",
"1326 563 OFFCURVE",
"1081 828 OFFCURVE",
"908 920 CURVE",
"896 927 OFFCURVE",
"898 936 OFFCURVE",
"910 940 CURVE SMOOTH",
"1480 1119 LINE",
"1488 1121 OFFCURVE",
"1493 1126 OFFCURVE",
"1494 1135 CURVE SMOOTH",
"1510 1261 LINE",
"1511 1272 OFFCURVE",
"1505 1279 OFFCURVE",
"1494 1275 CURVE SMOOTH",
"898 1075 LINE",
"890 1072 OFFCURVE",
"886 1069 OFFCURVE",
"883 1062 CURVE",
"778 843 LINE SMOOTH",
"774 835 OFFCURVE",
"777 828 OFFCURVE",
"785 823 CURVE",
"1114 645 OFFCURVE",
"1245 391 OFFCURVE",
"1285 255 CURVE",
"1288 246 OFFCURVE",
"1285 240 OFFCURVE",
"1276 237 CURVE",
"1170 194 OFFCURVE",
"928 130 OFFCURVE",
"652 135 CURVE SMOOTH",
"417 139 OFFCURVE",
"224 204 OFFCURVE",
"243 405 CURVE SMOOTH",
"255 528 LINE SMOOTH",
"256 537 OFFCURVE",
"250 543 OFFCURVE",
"241 544 CURVE SMOOTH",
"186 549 LINE SMOOTH",
"177 550 OFFCURVE",
"170 544 OFFCURVE",
"169 535 CURVE SMOOTH",
"155 405 LINE SMOOTH",
"121 102 OFFCURVE",
"262 -17 OFFCURVE",
"579 -26 CURVE SMOOTH"
);
}
);
width = 1481;
},
{
anchors = (
{
name = bottom;
position = "{683, -176}";
},
{
name = top;
position = "{524, 940}";
}
);
layerId = "C8F46AD5-0BB5-455F-A00C-91F555441CD3";
name = Bold;
paths = (
{
closed = 1;
nodes = (
"892.164 -44.033 OFFCURVE",
"1176.321 30.533 OFFCURVE",
"1303.061 86.862 CURVE",
"1302.162 86.513 LINE",
"1308.091 88.49 OFFCURVE",
"1311.437 92.967 OFFCURVE",
"1316.191 104.061 CURVE SMOOTH",
"1347.39 172.49 OFFCURVE",
"1377.204 273.24 OFFCURVE",
"1369.903 325.386 CURVE SMOOTH",
"1335.461 567.497 OFFCURVE",
"1087.192 836.033 OFFCURVE",
"912.695 928.829 CURVE",
"758.382 1018.854 OFFCURVE",
"730.056 869.478 OFFCURVE",
"913.162 930.513 CURVE SMOOTH",
"1482.996 1109.459 LINE",
"1482.425 1109.299 LINE",
"1494.833 1112.401 OFFCURVE",
"1502.528 1121.197 OFFCURVE",
"1503.939 1133.896 CURVE SMOOTH",
"1519.92 1259.74 LINE",
"1521.656 1278.759 OFFCURVE",
"1508.111 1290.772 OFFCURVE",
"1490.583 1284.398 CURVE SMOOTH",
"894.819 1084.48 LINE SMOOTH",
"883.534 1080.255 OFFCURVE",
"877.766 1075.173 OFFCURVE",
"873.809 1065.939 CURVE",
"768.983 847.323 LINE SMOOTH",
"762.838 835.036 OFFCURVE",
"766.976 822.473 OFFCURVE",
"779.7 814.52 CURVE SMOOTH",
"780.241 814.205 LINE SMOOTH",
"1106.527 637.673 OFFCURVE",
"1235.675 387.264 OFFCURVE",
"1275.406 252.178 CURVE SMOOTH",
"1276.698 248.284 OFFCURVE",
"1276.391 247.671 OFFCURVE",
"1272.838 246.487 CURVE SMOOTH",
"1272.241 246.267 LINE SMOOTH",
"1166.829 203.505 OFFCURVE",
"926.789 140.024 OFFCURVE",
"652.181 144.998 CURVE SMOOTH",
"373.272 149.746 OFFCURVE",
"237.197 237.351 OFFCURVE",
"252.956 404.059 CURVE SMOOTH",
"264.953 527.029 LINE SMOOTH",
"266.51 541.032 OFFCURVE",
"256.937 552.291 OFFCURVE",
"242.104 553.939 CURVE SMOOTH",
"186.905 558.959 LINE SMOOTH",
"172.77 560.532 OFFCURVE",
"160.679 550.665 OFFCURVE",
"159.061 536.104 CURVE SMOOTH",
"145.057 406.071 LINE SMOOTH",
"111.587 107.79 OFFCURVE",
"243.477 -26.478 OFFCURVE",
"578.716 -35.996 CURVE SMOOTH"
);
}
);
width = 1481;
}
);
unicode = 06A9;
},
